<?xml version="1.0" encoding="utf-8"?>
<!-- Generator: Adobe Illustrator 24.0.1, SVG Export Plug-In . SVG Version: 6.00 Build 0)  -->
<svg version="1.1" id="Layer_1" xmlns="http://www.w3.org/2000/svg" xmlns:xlink="http://www.w3.org/1999/xlink" x="0px" y="0px"
	 viewBox="0 0 50.52 50.58" style="enable-background:new 0 0 50.52 50.58;" xml:space="preserve">
<style type="text/css">
	.st0{fill:#EC2044;}
</style>
<g>
	<path class="st0" d="M15.18,5.02C17.73,1.66,21.15,0.04,25.29,0c4.15-0.04,7.44,1.81,9.94,4.83c1.35-0.5,2.58-1.14,3.89-1.41
		c3.56-0.74,6.63,0.24,9.08,2.97c1.81,2.02,2.57,4.43,2.26,7.07c-0.23,1.96-0.64,3.94-1.25,5.82c-1.42,4.39-2.99,8.74-4.52,13.1
		c-0.51,1.45-1.8,2.33-3.38,2.36c-0.9,0.02-1.81,0.01-2.71,0.01c-9.65,0-19.29,0-28.94,0c-2.18,0-3.29-0.78-4.01-2.84
		c-1.47-4.21-3.01-8.39-4.35-12.64c-0.64-2.01-1.11-4.14-1.26-6.24C-0.35,8.02,3.36,3.8,8.36,3.24c2.24-0.25,4.3,0.24,6.21,1.41
		C14.74,4.76,14.91,4.86,15.18,5.02z M36.89,31.63c1.4,0,2.7-0.02,4.01,0.01c0.52,0.01,0.8-0.15,0.97-0.66
		c1.45-4.26,2.99-8.48,4.36-12.76c0.56-1.74,1-3.58,1.12-5.4c0.27-3.85-3.29-6.98-7.11-6.47c-1.63,0.22-2.95,0.98-4.08,2.13
		c-0.85,0.86-1.79,0.7-2.5-0.31c-0.65-0.93-1.32-1.88-2.13-2.66c-3.02-2.87-8.04-3.2-11.49-0.87c-1.4,0.94-2.49,2.13-3.31,3.6
		c-0.51,0.91-1.44,1.04-2.24,0.38c-0.28-0.23-0.54-0.48-0.81-0.72c-1.27-1.11-2.76-1.68-4.42-1.61c-4.01,0.16-6.82,3.71-6.07,7.68
		c1.13,5.99,3.47,11.6,5.55,17.3c0.06,0.15,0.27,0.34,0.42,0.35c1.46,0.03,2.92,0.02,4.4,0.02c-0.04-0.31-0.07-0.55-0.11-0.79
		c-0.78-4.26-1.58-8.52-2.35-12.78c-0.07-0.4-0.06-0.85,0.04-1.25c0.17-0.65,0.84-1.03,1.55-0.99c0.7,0.04,1.29,0.58,1.47,1.38
		c0.11,0.49,0.18,0.99,0.27,1.48c0.78,4.3,1.55,8.6,2.33,12.91c2.3,0,4.59,0,6.94,0c0-0.29,0-0.55,0-0.81c0-5.31,0-10.61,0-15.92
		c0-0.26,0-0.52,0.02-0.78c0.08-0.9,0.56-1.37,1.41-1.42c0.85-0.04,1.42,0.37,1.59,1.22c0.06,0.31,0.09,0.64,0.09,0.96
		c0.01,5.35,0,10.69,0,16.04c0,0.23,0,0.47,0,0.72c2.35,0,4.61,0,6.88,0c0.7-3.83,1.39-7.64,2.09-11.45
		c0.17-0.95,0.33-1.9,0.51-2.85c0.17-0.88,0.71-1.43,1.42-1.49c1.11-0.09,1.9,0.82,1.69,2.01c-0.29,1.72-0.62,3.44-0.94,5.15
		C37.97,25.84,37.44,28.69,36.89,31.63z"/>
	<path class="st0" d="M6.31,38.01c1.04,0,2.02,0,3.08,0c0,0.28,0,0.54,0,0.79c0.03,2.03-0.01,4.06,0.1,6.08
		c0.08,1.36,1.35,2.45,2.71,2.54c0.26,0.02,0.52,0.03,0.78,0.03c8.18,0,16.36-0.01,24.54,0.01c1.24,0,2.28-0.31,3.04-1.37
		c0.45-0.63,0.54-1.33,0.55-2.06c0.01-1.77,0.01-3.54,0.01-5.31c0-0.22,0-0.44,0-0.71c1.04,0,2.03,0,3.03,0
		c0.02,0.02,0.06,0.05,0.06,0.08c-0.03,2.41,0.11,4.84-0.15,7.22c-0.3,2.74-2.58,4.86-5.55,5.19c-0.34,0.04-0.68,0.05-1.02,0.05
		c-8.16,0-16.32,0-24.47,0c-2.25,0-4.11-0.78-5.48-2.61c-0.84-1.12-1.21-2.4-1.24-3.77c-0.04-1.97-0.01-3.94-0.01-5.91
		C6.27,38.21,6.29,38.14,6.31,38.01z"/>
</g>
</svg>
