<svg viewBox="0 0 250 250" xmlns="http://www.w3.org/2000/svg" xmlns:xlink="http://www.w3.org/1999/xlink"><clipPath id="a"><path d="m216.2 127.46a134.73 134.73 0 0 0 -1.78-15.9c-.82-4.77-2-9.66-4.92-13.5-3.38-4.43-8.77-7-14.23-8s-11.09-.87-16.66-.8c-27 .33-53.81-2.7-80.68-4.8l-2.35-.18q-27.33 10.4-53.69 23.19c-4.89 2.37-9.77 4.82-14.49 7.53a16.1 16.1 0 0 0 .4 7.53c2.25 7 9.66 10.74 16.37 13.73l37.61 16.74c2.84 1.26 5.71 2.53 8.6 3.75a292.42 292.42 0 0 0 70.5-2.54c5.73-.91 11.46-2 17.21-2.77a198.1 198.1 0 0 0 33.81-16 9.17 9.17 0 0 0 3.69-3.31 9.14 9.14 0 0 0 .61-4.67z"/></clipPath><path d="m208.06 157.92c-.34 3.33-3.93 5.2-7.08 6.33-22.77 8.14-47.4 9-71.58 9.82-29.69 1-60.69 1.7-87.53-11-2.47-1.17-5.12-2.71-5.88-5.33-.72-2.43.51-5.11 2.42-6.78a16.85 16.85 0 0 1 6.86-3.13c13.95-3.67 28.62-2.73 43-3.46 20.22-1 40.22-5.4 60.47-5.39a209.12 209.12 0 0 1 38.73 3.93c6.32 1.18 21.38 7.21 20.59 15.01z" fill="#efefef"/><path d="m28.65 125.55c6.45 19.07 24 28.29 39.72 35.82 9.88 4.74 20.63 6.53 31.35 7.63 34.69 3.56 70.83-.07 101.92-17.8 12.07-6.89 24.18-17.44 26.4-32.49.12-.86-1.19-1.72-.95-.9z" fill="#003d32"/><path d="m34.82 100.65c-6.27 3.43-13 8.41-14 16.21-.75 6.36 2.77 12.35 6.71 17 9.54 11.23 22.36 18.4 35.67 22.52s27.15 5.35 40.93 6.13c35.87 2 73.18.65 105.52-17 9.28-5.06 19-13.2 19.53-24.81.35-7.74-3.76-15.09-9.27-19.71s-12.27-6.91-19-8.56c-10.29-2.53-16.71-6.7-27.46-8.85-9.88-2-22.77-2.29-32.75-3.07-23.34-1.84-47-.43-69.82 5.7a163.09 163.09 0 0 0 -36.06 14.44z" fill="#89cfbb"/><path d="m214.66 127.65a6.46 6.46 0 0 0 -.57-1.67 13 13 0 0 1 -.85-1.86 22.54 22.54 0 0 0 -4.24-7.45c-4.79-5.66-11.68-9.23-18.82-11.24s-14.58-2.61-22-3.19l-26.43-2.06c-18.58-1.45-37.35-2.89-55.81-.28s-34.94 5.23-48.87 17.58c-3.16 2.79-1.62 9.63-1.23 10.76a5.14 5.14 0 0 0 1.33 1.76 106.57 106.57 0 0 0 36.34 22.89 67.91 67.91 0 0 0 10.49 3.16 99.43 99.43 0 0 0 10.2 1.31l17.3 1.62a116.65 116.65 0 0 0 17.42.76 117 117 0 0 0 12.63-1.64l12.81-2.1a140 140 0 0 0 17.73-3.77 145.06 145.06 0 0 0 32.18-9.23 21.86 21.86 0 0 0 7.28-4.46 12.27 12.27 0 0 0 3.11-10.89z" fill="#639384"/><path d="m216.2 127.46a134.73 134.73 0 0 0 -1.78-15.9c-.82-4.77-2-9.66-4.92-13.5-3.38-4.43-8.77-7-14.23-8s-11.09-.87-16.66-.8c-27 .33-53.81-2.7-80.68-4.8l-2.35-.18q-27.33 10.4-53.69 23.19c-4.89 2.37-9.77 4.82-14.49 7.53a16.1 16.1 0 0 0 .4 7.53c2.25 7 9.66 10.74 16.37 13.73l37.61 16.74c2.84 1.26 5.71 2.53 8.6 3.75a292.42 292.42 0 0 0 70.5-2.54c5.73-.91 11.46-2 17.21-2.77a198.1 198.1 0 0 0 33.81-16 9.17 9.17 0 0 0 3.69-3.31 9.14 9.14 0 0 0 .61-4.67z" fill="#ffcf8f"/><path d="m91.73 115.18a8.13 8.13 0 0 1 2.93-2.48c1.06-.46 2.26-.52 3.35-.9 1.82-.62 3.23-2.06 4.87-3.08s3.88-1.58 5.41-.41c1.13.88 1.49 2.43 2.36 3.56s2.31 1.91 2.76 3.28c.59 1.78-.74 3.85.08 5.53.26.52.69 1.16.31 1.59a1.16 1.16 0 0 1 -.5.27 17.1 17.1 0 0 1 -3.72 1c-1 .1-2.11 0-3.16.09-2.13.17-4.15 1.1-6.29 1.12-2.44 0-4.79-1.13-7.24-1.06-.79 0-1.58.17-2.38.15-5.6-.21-.23-6.9 1.22-8.66z" fill="#ec2044"/><path d="m124.58 138.27a14.52 14.52 0 0 0 -4.94 1.49 1.09 1.09 0 0 0 -.55.55c-.17.53.41 1 .91 1.22 5.67 2.62 12.34 1.51 18.39 3.05a52.73 52.73 0 0 0 5.36 1.39 12.9 12.9 0 0 0 5.14-.12c2.71-.41 3-1.32 5.7-1.74 1.8-.29 2.6-1.9 4.32-2.5 2.14-.75.43-2.51 2.58-3.24 1.2-.4 11.64.19 11.64-1s-5.11-1.68-7.06-1.59c-3.51.16-7 .66-10.53.41s-7.2-1.3-10.83-1.13c-3.33.16-6.51 1.32-9.79 1.81-1.57.23-3.11.17-4.65.46-1.89.32-3.79.67-5.69.94z" fill="#efc089"/><path d="m170.08 120.69c-5.15-.21-10.28-.68-15.42-1.19l-.59-.24 10-6.13-51.44 4.87-48.55 9.86c-3 0-9.76 2.22-9.76 3.77s10 3.52 14.3 4a11.41 11.41 0 0 1 4.27.95c.94.51 1.7 1.32 2.65 1.84a10.11 10.11 0 0 0 4.67.87 65.79 65.79 0 0 0 7.69-.12 70.39 70.39 0 0 0 14.1-3.27l10.81-3.27c.61-.19 1.3-.45 1.49-1.06a1.72 1.72 0 0 0 -.25-1.27l9.14.34c1.62.07 3.48 0 4.49-1.23a.5.5 0 0 0 .15-.35c0-.16-.18-.26-.32-.34a7.17 7.17 0 0 0 -2.43-.8 3.76 3.76 0 0 1 -2.35-.73c-.25-.27-.34-.8 0-.94.07 0-1.55-1.28-3-2.42h.62c1.52.35 3 .94 4.54 1.31.59.15 1.18.25 1.77.34.07.06.12.07.13 0 2.65.38 5.36.31 8 .47 6.8.41 13.43 2.4 20.23 2.94 5.31.42 14.83-.08 20-1.43a43.16 43.16 0 0 1 8-1.2 12 12 0 0 0 7.07-2.57c-5.56-2.69-13.85-2.75-20.01-3z" fill="#efc089"/><path d="m112.25 106.37c1.86-2 3-5.16 5.6-5.88a21.41 21.41 0 0 1 2.89-.27c4.17-.54 6.72-5.37 10.6-7.12a15.44 15.44 0 0 1 6.19-1 5 5 0 0 1 2.92.55c.5.34.89.85 1.39 1.2 1.74 1.21 4 0 6 0s3.81 1.11 5.42 2.38a29.26 29.26 0 0 1 6.4 7.11 8.4 8.4 0 0 0 1.11 1.51 13.53 13.53 0 0 0 1.21.94c2.83 2.21 5.22 8.3 6.6 10.13s5.59 3.94 5.16 5.45-14 2.55-16.15 2.41c-4.55-.3-8.87-1.48-13.34-.6l-8.25 1.64a20.89 20.89 0 0 1 -6.18.58c-1.46-.16-2.87-.63-4.31-.9a66 66 0 0 0 -12.51-1.28c-6.37-.11-15.5-.36-13.94-3.08 1.15-2 5.64-8 7.31-9.4 1.88-1.6 4.18-2.5 5.88-4.37z" fill="#935650"/><path d="m75 165.85.17.49" fill="none"/><g fill="#fff5ca"><path d="m175.38 99.57a6.8 6.8 0 0 0 4.39-.42 2.77 2.77 0 0 0 1.35-1.2 2 2 0 0 0 -.63-2.25 6.17 6.17 0 0 0 -2.78-1.37c-2-.49-5-.12-5.77 1.42s1.44 3.34 3.44 3.82z"/><path d="m199.9 99.55a2.22 2.22 0 0 0 1.1.45 1.53 1.53 0 0 0 .79-.24 1.7 1.7 0 0 0 1.08-1.76 2.9 2.9 0 0 0 -.49-1c-.83-1.15-3.06-3.12-4.18-2.1s.19 3.67 1.7 4.65z"/><path d="m188.54 106.1c-.45.47-.21 2 0 2.56a2.67 2.67 0 0 0 3 1.68 1.47 1.47 0 0 0 1-.76 1.89 1.89 0 0 0 0-1.26 4.92 4.92 0 0 0 -1-2 2.53 2.53 0 0 0 -1.92-.94 1.14 1.14 0 0 0 -1.09.69"/><path d="m198.85 135a1.33 1.33 0 0 0 -.26.78c0 .59.74.87 1.32.94 2.38.3 9.05-2.25 6.86-5.57s-6.77 1.99-7.92 3.85z"/></g><path d="m78.82 113.59c2.62-1 5.67-1.63 8.1-.25 2 1.12 3.25 3.42 5.45 3.86 1.3.26 2.66-.21 4 0 2.23.39 3.57 2.59 4.92 4.41a23.32 23.32 0 0 0 4.67 4.69 3.35 3.35 0 0 1 1.49 1.76 2.52 2.52 0 0 1 -1 2.22c-2 1.77-4.81 2.14-7.07 3.51-1.47.89-2.66 2.19-4.12 3.08-4.32 2.63-9.85 1.25-14.69-.2l-9.58-2.87a13.28 13.28 0 0 1 -4.79-2.17c-9.13-7.5 7.02-15.96 12.62-18.04z" fill="#ffc513"/><path d="m101.42 137.9a21.27 21.27 0 0 0 -5.42 2.48 2.59 2.59 0 0 0 -1.42 1.76 1.86 1.86 0 0 0 1.35 1.77 5.31 5.31 0 0 0 2.38.1l4.31-.46a4.64 4.64 0 0 0 2.74-.91 4.36 4.36 0 0 0 1.06-2.39 2.16 2.16 0 0 0 -.14-1.66 2 2 0 0 0 -.77-.56c-1.51-.73-4.09-.13-4.09-.13z" fill="#ec2044"/><path d="m77 119.05a2.68 2.68 0 0 1 1.31-.43 1.41 1.41 0 0 1 1.21.57c.43.63.13 1.49.27 2.23s.59 1.24.67 1.91a2 2 0 0 1 -1.86 2.12 3 3 0 0 1 -2.6-1.39c-1.32-1.93-1-3.82 1-5.01z" fill="#d78f00"/><path d="m79.73 136.22a.85.85 0 0 1 .48-.13.92.92 0 0 1 .62.54 7.46 7.46 0 0 1 .76 1.82 1.16 1.16 0 0 1 .06.58c-.1.53-.71.75-1.24.85a14.37 14.37 0 0 1 -2.53.33c-1 0-1.25.12-1-.92a5.58 5.58 0 0 1 2.85-3.07z" fill="#d78f00"/><path d="m119.89 122.53a1.85 1.85 0 0 1 .87-.06 1.34 1.34 0 0 1 .66.48c1.17 1.4 1.11 3.44 2.61 4.6.4.31.94.7.7 1.11a.86.86 0 0 1 -.32.27 11.08 11.08 0 0 1 -3.22 1.4 8.22 8.22 0 0 1 -2.88.28 12 12 0 0 1 -1.69-.33c-2.8-.68-6.16-1.24-3.47-3.94a14.32 14.32 0 0 1 6.74-3.81z" fill="#6b3d3b"/><path d="m63.46 124a2.87 2.87 0 0 1 1.06-.31 2.35 2.35 0 0 1 2 1.63c.35.84.46 1.78.84 2.61.49 1.07 1.46 2 1.35 3.21a2.36 2.36 0 0 1 -1.2 1.74 4.5 4.5 0 0 1 -2.1.55c-2.32.13-7.42-.73-8-3.58s4.13-5.01 6.05-5.85z" fill="#d78f00"/><path d="m190 134.71a3.37 3.37 0 0 0 -3.81 3.85.87.87 0 0 0 .2.47.85.85 0 0 0 .58.17 3.42 3.42 0 0 0 3.21-4.54" fill="#fff5ca"/><path d="m94.64 124.76a2.37 2.37 0 0 1 1-.49 1.6 1.6 0 0 1 1.27.43 4.5 4.5 0 0 1 .86 1.08.62.62 0 0 1 -.12 1.07l-1.88 1.22c-1.21.79-2.72 1.25-3.49-.41-.66-1.33 1.48-2.27 2.36-2.9z" fill="#d78f00"/><path d="m119.14 110.76a21.07 21.07 0 0 1 1.83 1.31 11.91 11.91 0 0 1 2 1 2.07 2.07 0 0 1 .46 2.46 4.28 4.28 0 0 0 -.45.81c-.09.34 0 .71-.17 1-.24.49-.89.57-1.43.59a2.55 2.55 0 0 1 -1.57-.3c-.73-.54-.74-1.73-1.52-2.19a5.66 5.66 0 0 0 -1.5-.34 1.89 1.89 0 0 1 -1.32-1.48c-.29-1.8 1.99-3.62 3.67-2.86z" fill="#6b3d3b"/><path d="m153.76 109.24a.89.89 0 0 0 .39.12.67.67 0 0 0 .37-.15 2.37 2.37 0 0 0 .62-2.17c0-.61-.11-1.21-.2-1.81-.3-2-2.57-4-3.8-1.49s.44 4.5 2.62 5.5z" fill="#ec2044"/><path d="m127.31 96.84a4.41 4.41 0 0 0 .74 2.35 3.31 3.31 0 0 0 1.45 1.35 3.82 3.82 0 0 0 3-.31 3.17 3.17 0 0 0 .65-.36c4.25-3.17-5.84-9.87-5.84-3.03z" fill="#ec2044"/><path d="m137.65 114.15a2 2 0 0 0 .52 1.83 1.54 1.54 0 0 0 2 0 3.15 3.15 0 0 0 .54-.77c.58-1.06 1.87-3.44 0-3.94-1.61-.44-2.81 1.55-3.06 2.88z" fill="#6b3d3b"/><path d="m154.11 119.39a10.54 10.54 0 0 1 4.8-2.69 11.9 11.9 0 0 1 5.6.55 24.66 24.66 0 0 0 5.53 1.22 21.69 21.69 0 0 1 3.52.13c2.05.44 5.7 2.79 5 3.6s-5.25 1-7.91 1a36.67 36.67 0 0 0 -5.35.28c-1.21.2-2.39.59-3.6.85a28.22 28.22 0 0 1 -7.51.36c-.85 0-2.54.17-3.18-.49a1.52 1.52 0 0 1 .14-1.93 23.18 23.18 0 0 1 2.96-2.88z" fill="#6b3d3b"/><path d="m111.87 146.11a1.8 1.8 0 0 0 .68 1c1.26 1.1 5.7 2.94 5.51-.7a2.3 2.3 0 0 0 -1.67-2.24c-1.18-.25-4.83.03-4.52 1.94z" fill="#fff5ca"/><path d="m103 97a8.27 8.27 0 0 0 3.57.2 8.17 8.17 0 0 0 2.45-.79c.83-.43 1.68-1.28 1.36-2.16-1-2.59-5.46-2.29-7.47-1.62-3 .98-3.35 3.37.09 4.37z" fill="#fff5ca"/><path d="m43.81 127.88a2.76 2.76 0 0 0 2 1.68 1.7 1.7 0 0 0 1.09-.33 3.1 3.1 0 0 0 1.1-1.84c1.28-5.98-6.82-4.53-4.19.49z" fill="#fff5ca"/><path d="m89.56 105.82a5 5 0 0 0 -1.93.16 1.68 1.68 0 0 0 -1.19 1.4 2.11 2.11 0 0 0 .1.66 2.42 2.42 0 0 0 1.31 1.59c1.08.41 2.26-.41 2.85-1.4a2 2 0 0 0 .29-1.76 2 2 0 0 0 -2.06-.9c-.52 0-1.17.24-1.22.77" fill="#fff5ca"/><path d="m167.83 132.66a6.43 6.43 0 0 1 3.16 1.91c.45.41.94.94.84 1.54a1.9 1.9 0 0 1 -.44.81 3.61 3.61 0 0 1 -1.35 1.17 3.23 3.23 0 0 1 -1.24.14c-2.1 0-6.11 0-6-3 .2-2.09 3.33-2.83 5.03-2.57z" fill="#ec2044"/><path d="m129.5 139.81a7.76 7.76 0 0 0 4.07 1.56l9.9 1.71a22.62 22.62 0 0 0 4.85.49c3.72-.16 7.1-2.13 10.19-4.22.7-.48 1.47-1.09 1.52-1.95a2.25 2.25 0 0 0 -1-1.75c-.56-.43-1.21-.74-1.72-1.22a10.14 10.14 0 0 1 -1.8-3.43 11.38 11.38 0 0 0 -8.26-6.27 7.24 7.24 0 0 0 -4.05.24 15.84 15.84 0 0 0 -3.79 2.82 52.57 52.57 0 0 1 -5.65 3.61c-2.27 1.41-7.43 5.43-4.26 8.41z" fill="#67ad39"/><path d="m131.41 134.19c.37.46.49 1.07.81 1.56.94 1.45 3.41 1.6 3.86 3.27.31 1.17-.63 2.27-1.49 3.12a2.88 2.88 0 0 1 -.92.71 3.19 3.19 0 0 1 -1.23.13l-3.53-.1c-1 0-2.6.25-3.5-.19-1.29-.63-2-3-1.72-4.33.44-2.36 5.56-6.94 7.72-4.17z" fill="#519600"/><path d="m148.6 134.19a2.16 2.16 0 0 0 .93.73 6 6 0 0 0 2.19.58 1 1 0 0 0 1.25-1 5.28 5.28 0 0 0 -.27-3.19 1 1 0 0 0 -.25-.4c-.55-.52-2.34.11-3 .4a2.16 2.16 0 0 0 -.85 2.88z" fill="#519600"/><g clip-path="url(#a)"><path d="m25.22 114.93a40.46 40.46 0 0 0 25.65 4.91 62 62 0 0 0 14.13-4.11 163.18 163.18 0 0 0 17.17-8.14c3.39-1.85 6.83-3.88 9.11-7 2.58-3.53 3.38-8 4.11-12.33a6.48 6.48 0 0 0 .11-2.36c-.34-1.64-1.89-2.76-3.45-3.37-4.5-1.76-9.59-.6-14.18.95-11.19 3.78-21.53 9.66-31.79 15.52-8 4.56-16 9.12-23.3 14.67" fill="#efc089"/><g fill="#c98263"><path d="m21.7 114.84c18.1 1 36.5-2.22 53.94-7.21 4.87-1.4 9.75-3.06 13.91-5.95s7.56-7.19 8.39-12.19c1-5.79-15.32-13.91-18.71-18.7"/><path d="m177.72 144.52a14.09 14.09 0 0 1 -4.69-1.19c-.71-.4-1.36-1-2.1-1.29a7.59 7.59 0 0 0 -4.15-.28c-24.3 3-47.3 14.58-71.66 16.9-.35 0-.72.2-1.08.23a261.57 261.57 0 0 0 68.36-3.17c5.73-1 11.46-2.22 17.21-3.1 2.91-1.2 5.28-2.94 8.13-4.27a6.28 6.28 0 0 0 -2.3-1.41 28.63 28.63 0 0 0 -7.72-2.42z"/></g></g></svg>