<svg width="82" height="55" viewBox="0 0 82 55" fill="none" xmlns="http://www.w3.org/2000/svg">
    <path d="M0.754252 50.8941C1.04976 50.469 1.18739 50.0359 1.50719 49.627C1.64483 50.2949 2.14678 50.8738 3.02926 50.8738C5.05733 50.8738 5.10591 47.8175 3.19117 47.6516C3.62027 47.182 4.06152 46.7124 4.51895 46.2388C4.60801 46.9675 5.11806 47.6354 6.0653 47.6354C8.10553 47.6354 8.14195 44.5508 6.19888 44.4091C6.57536 43.9436 6.91945 43.4619 7.21901 42.9639C7.47808 43.2918 7.87883 43.5185 8.42532 43.5185C9.82189 43.5185 10.2834 42.0653 9.80978 41.1059C9.57499 40.6323 9.04873 40.2963 8.32412 40.2882C8.39699 39.9684 8.45773 39.6405 8.49822 39.3004C9.14185 39.2154 9.76121 39.0697 10.3684 38.8956C10.2632 39.1102 10.1943 39.349 10.1822 39.604C10.1417 40.4784 10.9554 41.2435 11.8014 41.2233C12.3519 41.2111 13.4287 40.6201 13.453 39.604C13.4692 38.9361 13.0199 38.3492 12.4208 38.1063C12.943 37.8472 13.453 37.5679 13.9267 37.244C14.0076 37.9808 14.5177 38.6609 15.473 38.6609C17.3837 38.6609 17.5375 35.9527 15.9507 35.4953C16.3312 35.0824 16.6915 34.6492 17.0113 34.1837C17.2946 34.6938 17.8533 35.054 18.4402 35.054C19.0191 35.054 20.0918 34.4104 20.0918 33.4348C20.0918 32.5604 19.3996 31.6982 18.2459 31.8358C18.5252 31.1193 18.752 30.3705 18.8977 29.5811C18.9625 29.5568 19.0232 29.5204 19.0879 29.4961C18.9786 30.3745 19.4927 31.346 20.6343 31.346C22.4559 31.346 22.6826 28.8808 21.3306 28.2533C21.8204 27.9092 22.2981 27.5328 22.7352 27.1158C22.9457 27.7594 23.5975 28.2574 24.2776 28.2412C24.9941 28.2209 25.9858 27.5652 25.9292 26.622C25.8806 25.8002 25.2532 25.1039 24.4638 25.0189C24.7269 24.606 24.9657 24.185 25.16 23.7438C25.407 23.9381 25.7308 24.0595 26.1316 24.0595C27.0464 24.0595 27.5565 23.4402 27.6698 22.7439C28.1354 23.0961 28.6049 23.4402 29.0745 23.7883C27.9572 24.5615 28.2608 26.7596 29.9772 26.7596C30.8152 26.7596 31.309 26.2374 31.475 25.614C31.9446 25.9823 32.4061 26.3669 32.8635 26.7555C31.5438 27.4073 31.7867 29.8321 33.5881 29.8321C34.3774 29.8321 34.8673 29.3665 35.0575 28.7917C35.5514 29.3058 36.0088 29.8402 36.4338 30.3907C34.5434 30.585 34.6041 33.6089 36.62 33.6089C37.3284 33.6089 37.794 33.2324 38.0207 32.7345C38.3445 33.285 38.64 33.8477 38.9193 34.4185C36.8629 34.4509 36.8751 37.6529 38.9477 37.6529C39.4699 37.6529 39.7573 37.5598 40.0163 37.2562C40.154 37.6043 40.239 37.8715 40.3685 38.2277C39.5306 38.3694 39.1015 39.2438 39.1622 40.0453C39.2108 40.697 39.7046 41.4419 40.7328 41.454C41.7651 41.4419 42.2549 40.697 42.3035 40.0453C42.3642 39.2438 41.9351 38.3694 41.0972 38.2277C41.2267 37.8755 41.3117 37.6084 41.4494 37.2562C41.7084 37.5598 41.9958 37.6529 42.518 37.6529C44.5906 37.6529 44.6028 34.4468 42.5464 34.4185C42.8298 33.8477 43.1253 33.281 43.4451 32.7345C43.6717 33.2284 44.1332 33.6089 44.8457 33.6089C46.8616 33.6089 46.9264 30.581 45.0319 30.3907C45.457 29.8402 45.9144 29.3058 46.4082 28.7917C46.5985 29.3706 47.0883 29.8321 47.8777 29.8321C49.6831 29.8321 49.9219 27.4113 48.6023 26.7555C49.0597 26.371 49.5172 25.9864 49.9908 25.614C50.1568 26.2374 50.6506 26.7596 51.4885 26.7596C53.2049 26.7596 53.5085 24.5615 52.3913 23.7883C52.8609 23.4402 53.3264 23.0921 53.796 22.7439C53.9093 23.4402 54.4234 24.0595 55.3342 24.0595C55.735 24.0595 56.0588 23.9381 56.3057 23.7438C56.5001 24.185 56.7389 24.606 57.002 25.0189C56.2126 25.1039 55.5852 25.8002 55.5366 26.622C55.4799 27.5652 56.4717 28.2209 57.1882 28.2412C57.8683 28.2574 58.52 27.7594 58.7305 27.1158C59.1718 27.5328 59.6454 27.9052 60.1352 28.2533C58.7791 28.8808 59.0098 31.346 60.8314 31.346C61.973 31.346 62.4871 30.3745 62.3778 29.4961C62.4426 29.5244 62.5033 29.5568 62.5681 29.5811C62.7138 30.3705 62.9364 31.1193 63.2198 31.8358C62.0621 31.6982 61.3698 32.5604 61.3739 33.4348C61.3739 34.4104 62.4466 35.05 63.0255 35.054C63.6124 35.054 64.1711 34.6938 64.4544 34.1837C64.7742 34.6533 65.1345 35.0824 65.515 35.4953C63.9282 35.9527 64.082 38.6609 65.9927 38.6609C66.948 38.6609 67.4581 37.9808 67.539 37.244C68.0167 37.5679 68.5227 37.8513 69.0449 38.1063C68.4498 38.3492 67.9965 38.9361 68.0127 39.604C68.041 40.6201 69.1178 41.2111 69.6643 41.2233C70.5103 41.2435 71.324 40.4784 71.2835 39.604C71.2713 39.3531 71.2025 39.1142 71.0973 38.8956C71.7045 39.0697 72.3238 39.2154 72.9675 39.3004C73.0079 39.6405 73.0687 39.9684 73.1416 40.2882C72.4129 40.2963 71.8907 40.6323 71.6559 41.1059C71.1823 42.0653 71.6397 43.5185 73.0403 43.5185C73.5868 43.5185 73.9876 43.2918 74.2467 42.9639C74.5462 43.4619 74.8903 43.9436 75.2668 44.4091C73.3237 44.5508 73.3601 47.6354 75.4003 47.6354C76.3476 47.6354 76.8576 46.9675 76.9467 46.2388C77.4041 46.7084 77.8454 47.1779 78.2745 47.6516C76.3597 47.8216 76.4042 50.8738 78.4364 50.8738C79.3188 50.8738 79.8208 50.2949 79.9584 49.627C80.2782 50.0318 80.4199 50.469 80.7114 50.8941C79.1367 51.3232 79.2257 53.9989 81.2012 54.0435L81.2012 48.3721C81.2012 48.3721 81.1769 48.3357 81.1607 48.3195C78.7886 45.3361 74.8781 43.1501 74.5381 38.9968C74.4329 37.7217 73.5949 37.7703 73.2347 37.7298C68.4944 37.2157 64.9807 33.7668 64.1185 29.152C64.0092 28.4598 64.0375 28.3748 63.5801 28.229C61.7099 27.638 59.6454 26.1645 58.3945 24.2984C57.5768 23.0758 57.1478 21.5254 57.2975 19.8738C61.463 16.0403 64.2926 11.292 64.8877 5.78257C67.1222 10.875 71.4172 14.7328 76.7808 16.097C77.7362 16.3399 79.2866 16.6273 81.1972 16.6476L81.1972 15.0081C73.2307 14.9717 66.6526 9.19508 65.167 1.1516L69.5591 1.1516C69.4863 1.80333 69.8708 2.51984 70.7209 2.51984C71.1541 2.51984 71.4617 2.32958 71.656 2.06241C71.7896 2.52389 71.9394 2.97322 72.1256 3.39826C72.0649 3.39017 72.0042 3.37803 71.9394 3.37803C70.3768 3.37803 70.3728 5.80686 71.9394 5.80686C72.5142 5.80686 72.8745 5.47898 73.0283 5.06203C73.3643 5.57208 73.7327 6.04976 74.1375 6.4829C73.0364 6.5841 73.0526 7.72968 73.0526 7.72968C73.0526 8.36523 73.6112 8.97243 74.267 8.9441C74.9147 8.91576 75.5745 8.53119 75.5098 7.67706C75.9631 8.009 76.4367 8.31665 76.9387 8.56358C75.8093 8.95624 75.9429 10.9195 77.3557 10.9195C78.392 10.9195 78.7401 9.85088 78.4001 9.13437C79.0316 9.32058 79.7885 9.47036 80.4605 9.51894C79.6185 10.0533 79.8614 11.6523 81.2013 11.6442L81.2013 7.89972C77.3597 7.86329 74.0444 5.0863 73.1174 1.1516L77.2019 1.1516C77.5217 3.23634 79.0882 4.74627 81.2013 4.77461L81.2013 3.96905C79.5295 3.94476 78.3232 2.75058 78.0358 1.15565L81.2013 1.15565L81.2013 -0.46357L0.240307 -0.46357L0.240302 1.15565L3.40588 1.15565C3.11442 2.75058 1.91214 3.94476 0.240293 3.96905L0.240291 4.77461C2.34932 4.75032 3.91998 3.24039 4.23978 1.1516L8.32425 1.1516C7.40129 5.0863 4.08593 7.85924 0.240281 7.89972L0.240269 11.6442C1.58017 11.6523 1.82307 10.0533 0.981075 9.51894C1.65306 9.46631 2.41002 9.32058 3.04152 9.13437C2.70149 9.85492 3.04962 10.9195 4.08592 10.9195C5.49464 10.9195 5.62822 8.95624 4.50287 8.56358C5.00482 8.31665 5.47845 8.00899 5.93184 7.67706C5.86707 8.53524 6.52286 8.91576 7.1746 8.9441C7.83037 8.97243 8.38901 8.36523 8.38901 7.72968C8.38901 7.72968 8.40521 6.5841 7.30414 6.4829C7.70895 6.04976 8.08137 5.57208 8.41331 5.06203C8.56713 5.47898 8.92741 5.80686 9.50224 5.80686C11.0688 5.80686 11.0648 3.37802 9.50224 3.37802C9.43747 3.37802 9.37674 3.39017 9.31602 3.39826C9.49819 2.97322 9.65203 2.52389 9.78561 2.06241C9.97991 2.32958 10.2876 2.51984 10.7207 2.51984C11.5708 2.51984 11.9513 1.80738 11.8825 1.1516L16.2746 1.1516C14.789 9.19508 8.21088 14.9757 0.24431 15.0081L0.244304 16.6476C2.15094 16.6273 3.70133 16.3399 4.66072 16.097C10.0244 14.7328 14.3194 10.875 16.5539 5.78257C17.149 11.292 19.9786 16.0363 24.144 19.8738C24.2938 21.5254 23.8687 23.0758 23.047 24.2984C21.7961 26.1645 19.7316 27.638 17.8614 28.229C17.4039 28.3748 17.4323 28.4598 17.323 29.152C16.4648 33.7668 12.947 37.2157 8.20675 37.7298C7.84647 37.7703 7.00854 37.7217 6.90328 38.9968C6.56728 43.1501 2.65684 45.3361 0.280627 48.3195C0.268481 48.3357 0.256343 48.3559 0.240153 48.3721L0.240135 54.0435C2.21153 53.9989 2.30466 51.3232 0.729968 50.8941L0.754252 50.8941ZM40.7451 1.1516L43.9633 1.1516C43.769 2.87607 42.6234 4.1836 40.7451 4.22408C38.8668 4.1836 37.7212 2.87607 37.5269 1.1516L40.7451 1.1516ZM36.5432 1.20017C36.8428 3.43065 38.3851 5.13893 40.7451 5.15513C43.1011 5.13489 44.6434 3.43065 44.947 1.20017L48.8979 1.1516C48.4202 5.12274 45.1008 8.47453 40.7451 8.44619C36.3894 8.47048 33.07 5.12274 32.5923 1.1516L36.5432 1.20017ZM29.0381 1.1516C28.9896 1.28114 28.9369 1.41472 28.9531 1.5564C29.0462 2.54413 29.8275 2.77487 30.2161 2.77082C30.6169 2.76677 30.9569 2.57248 31.1715 2.28102C31.3091 2.86799 31.4832 3.43874 31.7098 3.98118C31.5682 3.92046 31.4103 3.88808 31.2281 3.88808C29.6615 3.88808 29.6656 6.31692 31.2281 6.31692C31.9203 6.31692 32.3049 5.84331 32.3859 5.31706C32.7097 5.85545 33.0781 6.3655 33.4991 6.83103C31.9972 6.89579 32.0175 9.25581 33.5598 9.25581C34.3815 9.25581 34.7661 8.58384 34.7256 7.94829C35.2357 8.345 35.7781 8.70526 36.3732 8.99267C35.4259 9.50677 35.6162 11.2798 36.9521 11.2798C37.9236 11.2798 38.292 10.3407 38.0531 9.63227C38.6563 9.79824 39.2878 9.91968 39.9517 9.9804C39.6764 10.2071 39.4983 10.5471 39.4821 10.9236C39.4578 11.5106 40.0043 12.1502 40.7451 12.138C41.4859 12.1502 42.0364 11.5106 42.0081 10.9236C41.9919 10.5431 41.8138 10.203 41.5385 9.9804C42.2024 9.91968 42.8339 9.79824 43.437 9.63227C43.2023 10.3407 43.5666 11.2798 44.5381 11.2798C45.874 11.2798 46.0642 9.51082 45.117 8.99267C45.712 8.70121 46.2545 8.34095 46.7645 7.94829C46.72 8.58384 47.1086 9.25581 47.9304 9.25581C49.4727 9.25581 49.4929 6.89579 47.9911 6.83103C48.4121 6.3655 48.7805 5.8595 49.1043 5.31706C49.1853 5.84331 49.5698 6.31692 50.2621 6.31692C51.8246 6.31692 51.8287 3.88808 50.2621 3.88808C50.0799 3.88808 49.918 3.92451 49.7804 3.98118C50.007 3.43874 50.1811 2.86799 50.3188 2.28102C50.5374 2.57653 50.8733 2.76677 51.2741 2.77082C51.6667 2.77487 52.444 2.54413 52.5371 1.5564C52.5492 1.41472 52.4966 1.28114 52.4521 1.1516L58.3825 1.1516C58.3258 4.40218 57.4474 7.55562 55.6783 10.3123C53.9093 13.065 51.3712 14.8624 48.8209 16.8257C46.4245 18.6716 44.1616 20.6875 42.0728 22.8775C41.6154 23.3552 41.1701 23.8409 40.745 24.3429C40.324 23.8409 39.8747 23.3552 39.4173 22.8775C37.3285 20.6875 35.0697 18.6675 32.6692 16.8257C30.1189 14.8624 27.5808 13.065 25.8118 10.3123C24.0428 7.55562 23.1644 4.40218 23.1077 1.1516L29.0381 1.1516ZM19.9624 11.6442C18.7196 9.02103 17.9384 6.04569 17.9384 1.1516L22.2981 1.1516C22.3912 6.70957 24.9131 11.7332 29.2526 15.2307C31.8191 17.2993 34.4746 19.1978 36.867 21.4769C38.1907 22.7358 39.6318 24.0717 40.741 25.5937C41.8502 24.0717 43.2913 22.7358 44.615 21.4769C47.0074 19.1978 49.667 17.2993 52.2294 15.2307C56.5689 11.7332 59.0909 6.70957 59.184 1.1516L63.5437 1.1516C63.5437 6.04165 62.7584 9.02103 61.5197 11.6442C59.0423 16.8864 54.3748 20.1613 49.2621 24.1607C45.2748 27.2818 42.6881 30.7348 40.741 34.7828C38.7939 30.7348 36.2072 27.2818 32.2198 24.1607C27.1072 20.1613 22.4398 16.8864 19.9624 11.6442Z"
          fill="#FFFFFF"/>
</svg>
