<svg viewBox="0 0 250 250" xmlns="http://www.w3.org/2000/svg" xmlns:xlink="http://www.w3.org/1999/xlink"><clipPath id="a"><path d="m123.68 124.07c-7.56.8-15.19 1.46-22.78.83-5.61-.47-11.2-1.65-16.82-1.36-7.08.36-14.25 3-21.08 1.12-1.07-.3-6 3.12-6 5.48a231.71 231.71 0 0 0 1.69 28 8.6 8.6 0 0 0 1 3.62c1.42 2.21 4.41 2.65 7 2.81 9.44.57 18.9.19 28.34-.18l26.48-1.06a183.11 183.11 0 0 0 21.08-1.65c4.38-.69 8.71-1.69 13-2.73q13.08-3.18 26.05-6.86c2.74-.78 5.73-1.76 7.23-4.18 1.64-2.64 1-6 .05-9a179.67 179.67 0 0 0 -8.47-21.36c-.59-1.31-4.48-1.64-5.53-1.11-1.87.93-4.77.94-6.82 1.31q-7.44 1.33-14.89 2.49-14.7 2.26-29.53 3.83z"/></clipPath><clipPath id="b"><path d="m137.47 98.86c4 2.83 7.94 5.85 11.72 9a12.35 12.35 0 0 0 3.1 2.14 11.38 11.38 0 0 0 4.23.67 82.86 82.86 0 0 0 19.29-1.89 26.54 26.54 0 0 0 8.77-3.23c3.51-2.27 6-5.82 8.22-9.34 1.47-2.28 2.93-4.7 3.11-7.41a31.72 31.72 0 0 0 -5.28-4.25 2.73 2.73 0 0 0 -1.26-.52 2.87 2.87 0 0 0 -1.79.76l-13.24 9.8c-3.19 2.36-6.43 4.74-10.14 6.15s-8 1.74-11.57 0c-2.32-1.14-4.14-3.06-6.11-4.73a35.07 35.07 0 0 0 -10.82-6.25c-4.51-1.62-9.75-2.57-12.59-6.43a4.4 4.4 0 0 0 -1.19-1.33 1.15 1.15 0 0 0 -1.8.93c0 .75 1 1.38 1.47 1.9a54 54 0 0 0 4.52 5.39c3.46 3.31 7.47 5.91 11.36 8.64z"/></clipPath><path d="m162.75 118c-16.52-3.77-33.6-5.72-50.49-4.37s-33.6 6.08-47.73 14.9c-11 6.86-21 17.81-19.88 30.34.84 9.74 8.21 17.95 16.46 23.83 14.67 10.45 32.92 15.69 51.14 17s36.48-1.23 54.25-5.07c7.74-1.67 15.5-3.63 22.51-7.16s19.74-12.77 23-19.63c5.31-11.05-3.8-25-12.74-34.17-8.45-8.78-25.02-13.05-36.52-15.67z" fill="#efefef"/><g fill="none" stroke="#003d32" stroke-miterlimit="10" stroke-width="3"><path d="m163.66 89.74c-18.29-3.18-37.08-4.33-55.47-1.9s-36.41 8.56-51.35 19c-11.64 8.13-21.92 20.68-20 34.33 1.47 10.6 10 19.16 19.35 25.11 16.65 10.61 36.91 15.3 56.91 15.65s39.83-3.43 59-8.64c8.38-2.27 16.75-4.85 24.22-9.11s20.86-15.09 24.07-22.79c5.17-12.38-5.58-27.07-15.88-36.64-9.75-9.07-28.11-12.75-40.85-15.01z"/><path d="m212.59 113.42a237.37 237.37 0 0 0 -24.94-2.87c-48.26-2.6-96.53 3.24-144.5 9.06"/><path d="m187.15 95.74c-37.05.13-87.58 2.07-124.26 7.21"/><path d="m219.69 126.51c-60.64-1.15-123.64 6.19-183.87 13.35"/><path d="m219.17 144.59c-59.32 3.22-115.17 7.18-174.35 12.41"/><path d="m199.73 162.07c-49.71 2.26-89.11 7.37-138.88 7.78"/><path d="m101.61 88.77a584.75 584.75 0 0 0 -33.44 84"/><path d="m131.54 86.1c-.7 3.93-1.66 7.81-2.52 11.7-6 27.23-7.48 55.23-8.9 83.08"/><path d="m65.56 101a288.39 288.39 0 0 0 -21.62 55"/><path d="m160.33 89.18a670.47 670.47 0 0 1 4.91 85.92"/><path d="m187.84 94.94a515.87 515.87 0 0 1 13.53 65.56"/></g><path d="m123.68 124.07c-7.56.8-15.19 1.46-22.78.83-5.61-.47-11.2-1.65-16.82-1.36-7.08.36-14.25 3-21.08 1.12-1.07-.3-6 3.12-6 5.48a231.71 231.71 0 0 0 1.69 28 8.6 8.6 0 0 0 1 3.62c1.42 2.21 4.41 2.65 7 2.81 9.44.57 18.9.19 28.34-.18l26.48-1.06a183.11 183.11 0 0 0 21.08-1.65c4.38-.69 8.71-1.69 13-2.73q13.08-3.18 26.05-6.86c2.74-.78 5.73-1.76 7.23-4.18 1.64-2.64 1-6 .05-9a179.67 179.67 0 0 0 -8.47-21.36c-.59-1.31-4.48-1.64-5.53-1.11-1.87.93-4.77.94-6.82 1.31q-7.44 1.33-14.89 2.49-14.7 2.26-29.53 3.83z" fill="#935650"/><g clip-path="url(#a)"><path d="m133.74 153.66-16.12 2.41c-5.89.87-11.78 1.75-17.73 2.05-11.33.56-22.68-1-33.82-3.2l-5.74 6.88c-.7.84-1.44 2-1 2.94a2.92 2.92 0 0 0 2.18 1.26c13.82 3.05 28.14 2.63 42.28 2.17 7.89-.26 15.78-.53 23.63-1.24 13.5-1.21 26.85-3.72 40.17-6.22 4-.76 33.25-5.6 25.24-13.79-2.92-3-9.2-3-12.94-2.3-7.08 1.27-14 3.62-21.13 5-8.3 1.55-16.66 2.8-25.02 4.04z" fill="#663f38"/><g fill="#ceaa94"><path d="m56.74 136.15c.71-2.48 3.16-4.14 5.68-4.72a26.19 26.19 0 0 1 7.71-.1c11.72.84 23.5-.7 35.23-.12 7.08.35 14.14 1.48 21.22 1.18 14.24-.58 27.76-6.84 42-7.57 4.06-.21 8.18 0 12.13-.91s7.86-3.31 9.27-7.12c1.9-5.13-1.53-11-6.31-13.69s-10.51-2.89-16-2.9c-17.91 0-35.78 1.48-53.63 3-16.86 1.43-33.75 2.85-50.43 5.69-5.49.93-11.26 2.16-15.34 5.95s-5.52 11-1.51 14.83"/><path d="m171.64 126.17a61.72 61.72 0 0 1 -19.89 4.3 11 11 0 0 0 -4.37.91 1.25 1.25 0 0 0 .54 2.35 18.72 18.72 0 0 0 2.37-.12c9.3-.85 17.3-4.41 26-7.9 3.05-1.23 7.25-1.29 10.51-1.79 1.57-.24 6.44-.71 5.92-3.45-.35-1.83-2.85-.92-4.14-.65-6.02 1.25-11.32 4.11-16.94 6.35z"/><path d="m191.25 132.43a21.4 21.4 0 0 0 -9.49 1 29.65 29.65 0 0 1 -4.39 1.44c-2.1.38-4.49.06-6.15 1.41-1.47 1.2-2.06 3.55-3.9 4a7.12 7.12 0 0 0 -1.47.32c-.45.22-.76.86-.4 1.22a1.06 1.06 0 0 0 1 .11 11.59 11.59 0 0 0 5.61-3.41 4.78 4.78 0 0 1 1.28-1.18 4.42 4.42 0 0 1 1.77-.37 24.59 24.59 0 0 0 6.24-1.3 6.93 6.93 0 0 1 2.08-.53 2 2 0 0 1 1.84.88c-3.13 1.61-7.14 1-10.1 2.88-.29.19-.59.53-.42.83a.71.71 0 0 0 .35.24c1.44.53 3 0 4.49-.39a49 49 0 0 1 10.61-1.84 5 5 0 0 0 3.14-.87c.82-.73.81-2.41-.25-2.71"/></g></g><path d="m61.64 137.49c-.1-.74-.09-1.68.58-2-.22.11 3.57 14.52 3.11 16.17-2.69-.53-3.33-11.73-3.69-14.17z" fill="#663f38"/><path d="m65.65 133a2.84 2.84 0 0 0 -1.56.19 1 1 0 0 0 -.5 1.33 1.45 1.45 0 0 0 1.11.53 135.89 135.89 0 0 0 20.74 1.6 6 6 0 0 0 3.91-.94c.2-.17.39-.43.29-.66a.62.62 0 0 0 -.39-.28c-3.26-1.24-7.53 0-11-.23-4.25-.33-8.37-1.21-12.6-1.54z" fill="#ceaa94"/><path d="m134.17 139c-.87 0-2.06-.28-2-1.14 0-.63.77-1 1.39-1.07 2.5-.45 7.36-.69 7.31-1.55s-6.18-.69-9.2-.05a3.86 3.86 0 0 0 -1.89.8 1.51 1.51 0 0 0 -.38 1.86c.36.55 1.08.68 1.66 1s1.06 1.11.59 1.56a1.29 1.29 0 0 1 -.72.26c-6.52.92-13.08 1.85-19.66 1.71-2.4 0-4.87-.23-7.15.5-1.42.46-2.7 1.25-4.08 1.81-3 1.18-6.24 1.21-9.42 1.23a36.7 36.7 0 0 1 -6.71-.36c-3.73-.65-7.68-2.4-11.12-.8a.93.93 0 0 0 -.48.39c-.23.52.48.93 1 1.06a80.75 80.75 0 0 0 27.61.83c8.86-1.11 5.83 2.64 6.59 3s1.48-.36 1.85-1c.57-.92-.16-2.15-1.11-2.68s-3.56-.37-3.05-1.11 31-4.33 46.58-4.88c2.9-.1 5.81-.15 8.69-.53.52-.06 1.19-.29 1.2-.82s-.51-.75-1-.87c-4-1.07-8.72 0-12.77.26q-6.82.47-13.73.59z" fill="#ceaa94"/><path d="m105.24 137.11a5.51 5.51 0 0 0 -2.88.55c-.11.07-.23.16-.24.28 0 .27.32.37.59.37a35.34 35.34 0 0 1 5.82 0c1 .15 3.46-.2 1.41-.91a16.41 16.41 0 0 0 -4.7-.29z" fill="#ceaa94"/><path d="m128.53 146.57a43.77 43.77 0 0 1 -7.65 1 10.23 10.23 0 0 0 -2.64.34.71.71 0 0 0 -.46.31c-.23.47.51.79 1 .78a62.07 62.07 0 0 0 10.79-1.09 34.62 34.62 0 0 1 5.65-.61c1.07 0 2.7.33 1.91-.92-1.41-2.33-6.79-.22-8.6.19z" fill="#ceaa94"/><path d="m93.41 128.85a24 24 0 0 0 -5.21 1.08c-1.1.4-2.08.95-3.13 1.43-4.46 2-9.85 2.52-15 3-.61.05-1.41 0-1.52-.38a49.75 49.75 0 0 0 15.57-3.82 19.5 19.5 0 0 1 3.1-1.19 9.18 9.18 0 0 1 2.81-.25" fill="#ceaa94"/><path d="m87.61 152.43c-.48.06-1.09.3-1 .78a.72.72 0 0 0 .45.53 4.6 4.6 0 0 0 2.65 0c.92-.12 6.46 1 5.41-1.38-.7-1.51-6.12-.13-7.51.07z" fill="#ceaa94"/><path d="m99.6 95.09c.34.78-.24 1.63-1 2.21s-1.7 1-2.4 1.64a.8.8 0 0 0 -.29.4c-.13.54.81.81 1.51.86 8.67.67 17.44 1.09 25.77 3 1.34.31 2.37 1.11 3.71 1.41.46.1 1.35-.29 1.62.65.43 1.48-3.68 3.92-5.65 4-6.65.23-13.41.46-19.88-.76a1.47 1.47 0 0 0 .26 1.39c.21.16.64.06.69-.17.7.43.6 1.26.39 1.92a22.32 22.32 0 0 1 -1.41 3.45 3.86 3.86 0 0 1 -1 1.33 5.61 5.61 0 0 1 -2.06.91c-4.19 1.13-8.75 1.13-13.19 1q-3.67-.07-7.33-.18a18.79 18.79 0 0 1 -4.13-.42 15.61 15.61 0 0 1 -4.9-2.53 33.59 33.59 0 0 1 -3.8-2.89c-.73-.67-2.78-4.72-2.73-5.59s.54-.91 1.27-1.51c6.16-5 10-12 18.71-13.56 3.23-.56 6.81-.57 9.65.74" fill="#e0b87c"/><path d="m91 98.48c-1.35-.06-3.14-.39-3-1.1s1.69-.8 2.88-.82l7.27-.13a4.37 4.37 0 0 0 1.33-.16 1.25 1.25 0 0 0 .79-.77c.63-1.57-.07-3.21-1-4.74a4.76 4.76 0 0 0 -1.67-1.86c-1.76-1.08-4.77-1.26-7.47-1.35a43.08 43.08 0 0 0 -9.54.38 25.05 25.05 0 0 0 -8.94 4 27.32 27.32 0 0 0 -5.82 4.41 10.54 10.54 0 0 0 -2.39 7.33c0 2.84.56 5.92 4.22 8 2.6 1.48 6.37 2.23 10.06 2.79 4.78.73 9.67 1.25 14.62 1.54a19.4 19.4 0 0 0 6-.3 8.65 8.65 0 0 0 2.9-1.44 7.57 7.57 0 0 0 3.26-4.7 1.67 1.67 0 0 0 -.32-1.47c-.69-.77-2.35-1.15-3.91-1.39a55.09 55.09 0 0 0 -7.88-.68c-.8 0-1.77-.07-2.09-.46s.21-.74.85-.89a7.54 7.54 0 0 1 2.08-.09q15.4.78 30.72 2a7.73 7.73 0 0 0 3.88-.33c1.12-.61.59-1.63-.11-2.4-1.07-1.19-2.64-3.13-4.77-3.91s-6.5-.51-9.14-.6q-11.39-.34-22.81-.86z" fill="#ffcf8f"/><path d="m90.69 92.63a9.21 9.21 0 0 0 -4.15.06 7 7 0 0 0 -2.54 1.68c-.89.82-1.79 1.75-1.8 2.82a2.14 2.14 0 0 0 2.66 1.81 2.18 2.18 0 0 0 1.42-1.59 6.71 6.71 0 0 1 .58-2 3.08 3.08 0 0 1 2.07-1.28 11 11 0 0 1 3.07.17c.72.08 2.57.18 2.18-.82-.24-.61-2.79-.75-3.49-.85z" fill="#cea972"/><path d="m93.69 108.15a13.77 13.77 0 0 1 -3.76-.52 3.73 3.73 0 0 1 -2.52-2.08c-.22-.71-.09-1.58-.82-2a2.08 2.08 0 0 0 -2.48.5 2.53 2.53 0 0 0 -.28 2.19 3.62 3.62 0 0 0 2.55 2.89 13.94 13.94 0 0 0 3.53 0c1.91 0 5.52 1.84 7.2 1.14 3.13-1.39-2.26-2.09-3.42-2.12z" fill="#cea972"/><path d="m78.65 90.55c-.8.29-1.71.77-1.63 1.45 1.27.24 2.53-.31 3.79-.58 1.09-.23 5.85-.12 4.57-1.56s-5.38.19-6.73.69z" fill="#ffe1c0"/><path d="m68.37 96.68a4.11 4.11 0 0 0 -.7 1.3l-2.21 5.84a1.24 1.24 0 0 0 -.09.94c.29.65 1.58.69 2.24.22a2.84 2.84 0 0 0 1-1.89l.55-2.67a3.61 3.61 0 0 1 1-2.12 8.58 8.58 0 0 1 1.64-1c.84-.48 5-3.95 2.62-3.66-.83.1-2.17 1.18-3 1.5a7.47 7.47 0 0 0 -3.05 1.54z" fill="#ffe1c0"/><path d="m137.47 98.86c4 2.83 7.94 5.85 11.72 9a12.35 12.35 0 0 0 3.1 2.14 11.38 11.38 0 0 0 4.23.67 82.86 82.86 0 0 0 19.29-1.89 26.54 26.54 0 0 0 8.77-3.23c3.51-2.27 6-5.82 8.22-9.34 1.47-2.28 2.93-4.7 3.11-7.41a31.72 31.72 0 0 0 -5.28-4.25 2.73 2.73 0 0 0 -1.26-.52 2.87 2.87 0 0 0 -1.79.76l-13.24 9.8c-3.19 2.36-6.43 4.74-10.14 6.15s-8 1.74-11.57 0c-2.32-1.14-4.14-3.06-6.11-4.73a35.07 35.07 0 0 0 -10.82-6.25c-4.51-1.62-9.75-2.57-12.59-6.43a4.4 4.4 0 0 0 -1.19-1.33 1.15 1.15 0 0 0 -1.8.93c0 .75 1 1.38 1.47 1.9a54 54 0 0 0 4.52 5.39c3.46 3.31 7.47 5.91 11.36 8.64z" fill="#ec2044"/><g clip-path="url(#b)"><path d="m163.23 99.68.86 6.21a2.47 2.47 0 0 0 .31 1 .86.86 0 0 0 .94.41c.54-.19.57-.93.49-1.49l-.71-5.51a2.16 2.16 0 0 1 0-1 .73.73 0 0 1 .76-.5c.35.08.52.46.61.8.53 2 .42 4.28 1.91 5.64.79-.53.65-1.72.45-2.65a29.49 29.49 0 0 1 -.64-6.28 6.91 6.91 0 0 1 2.63 5c0 .67.09 1.52.73 1.74.71-2.17-.66-4.69.28-6.77a6.37 6.37 0 0 1 1.34-1.77l1.83-1.93 1.18 4.77c.11.43.3.94.74 1a.75.75 0 0 0 .74-.67 2.34 2.34 0 0 0 -.2-1.07c-.39-1.07-.08-2.65-.23-3.77a2.19 2.19 0 0 1 .08-1.22.75.75 0 0 1 1-.4c.8.51 1.71 1.1 2.55 1.57.2.11.49.2.62 0a.44.44 0 0 0 .05-.28c-.05-2.56-2.34-4.69-4.86-5.22a11.62 11.62 0 0 0 -7.43 1.34c-2.31 1.13-4.42 2.62-6.74 3.73a9.37 9.37 0 0 1 -3.82 1 15.92 15.92 0 0 1 -4.06-.82 23.11 23.11 0 0 0 -7.5-.7 1.22 1.22 0 0 0 -.7.2 1.19 1.19 0 0 0 -.3.43l-1.67 3.32a2.24 2.24 0 0 0 -.35 1.27c.06.44.53.85.94.68.21-.08.34-.28.5-.42.69-.61 1.75-.3 2.6 0a1.43 1.43 0 0 1 .35 1.6 9.23 9.23 0 0 0 -.55 1.66c-.05.58.32 1.28.9 1.27s1.1-.72 1.66-.52.88 1.11 1.33.78a8 8 0 0 1 2-3.47 1 1 0 0 1 .9-.41.87.87 0 0 1 .49.42 4.07 4.07 0 0 1 .22 3.18 18.7 18.7 0 0 0 -.82 3.17.81.81 0 0 0 .05.46.62.62 0 0 0 .95 0 2 2 0 0 0 .41-1 15.33 15.33 0 0 1 1-3.19c.08-.2.22-.43.44-.42a.49.49 0 0 1 .34.24c.94 1.29.19 3.15.66 4.67a.74.74 0 0 0 .28.44c.43.25.85-.33 1-.8a12 12 0 0 0 .61-3.6 10.46 10.46 0 0 1 .05-1.94 2 2 0 0 1 1.07-1.52c.63-.06 1.64.66 1.73 1.34z" fill="#d81e46"/><path d="m189.06 82.49a23.27 23.27 0 0 0 -.43 12c.19.81.43 1.62.58 2.44a4.41 4.41 0 0 1 .1.89 4.68 4.68 0 0 1 -.16 1l-1.27 5.71a13.66 13.66 0 0 0 5-4.8 37.07 37.07 0 0 0 3-6.28 17.41 17.41 0 0 0 1.28-4.2 25.85 25.85 0 0 0 0-3.41 7.87 7.87 0 0 0 -.46-3.49 3.46 3.46 0 0 0 -1.91-1.72 4.51 4.51 0 0 0 -2.88 0 13.85 13.85 0 0 0 -2.64 1.25" fill="#ce1d43"/></g><path d="m186.66 80.69c-2.54 0-5.33.1-7.22 1.79l7.46 1.41c.47.09 1 .3 1.08.77a1.14 1.14 0 0 1 -.12.48l-1.33 3.23a21 21 0 0 1 4.78-.9c-.24 2-.59 4-1 5.91a30.93 30.93 0 0 0 4.65-2.95 38.69 38.69 0 0 0 1.74 5c.12.26.29.56.57.56a.68.68 0 0 0 .47-.29c1.33-1.56 1.08-3.88.59-5.87a16.17 16.17 0 0 0 -3.71-7.55c-2.07-2.09-5.2-1.54-7.96-1.59z" fill="#89cfbb"/><path d="m195.13 76.92c0-.12.06-.27.17-.32a.41.41 0 0 1 .22 0 1.89 1.89 0 0 1 1.34.67 2 2 0 0 1 0 1.56c-.26 1-1.34 7.1-2.82 5.71-1.17-1.13.84-6.15 1.09-7.62z" fill="#89cfbb"/></svg>