<svg id="Artwork_-_Primary" data-name="Artwork - Primary" xmlns="http://www.w3.org/2000/svg" viewBox="0 0 250 250"><defs><style>.cls-1{fill:none}.cls-2{fill:#efefef}.cls-3{fill:#093b47}.cls-4{fill:#116572}.cls-5{fill:#14727c}.cls-6{fill:#0b4654}.cls-7{fill:#e2b283}.cls-8{fill:#ffdba1}.cls-9{fill:#eec488}.cls-10{fill:#d99f60}.cls-11{fill:#af6461}.cls-12{fill:#519600}.cls-13{clip-path:url(#clip-path)}.cls-14{fill:#360}.cls-15{fill:#72c900}.cls-16{fill:#fff5ca}.cls-17{clip-path:url(#clip-path-2)}.cls-18{fill:#f2dcb1}.cls-19{fill:#824646}.cls-20{fill:#6b3d3b}.cls-21{clip-path:url(#clip-path-3)}.cls-22{fill:#ec2044}.cls-23{clip-path:url(#clip-path-4)}.cls-24{fill:#d81e46}.cls-25{fill:#ce1d43}.cls-26{fill:#89cfbb}</style><clipPath id="clip-path"><path class="cls-1" d="M191.38 99.84a10.9 10.9 0 0 1 2.79 1.66 8.18 8.18 0 0 1 2 3.18 19 19 0 0 1 1.18 5.36 2.31 2.31 0 0 1-.14 1.2 2.2 2.2 0 0 1-1 .88 32.39 32.39 0 0 1-8.76 2.87 18.66 18.66 0 0 1-5.24.67 11.83 11.83 0 0 1-8.2-4.61 23.1 23.1 0 0 1-4-8.73c-.64-2.45-1.79-10.31-1-13.87a56.06 56.06 0 0 1 6.71 2.7c2.43 1.49 4.88 3 7.37 4.36 2.69 1.49 5.46 2.99 8.29 4.33z"/></clipPath><clipPath id="clip-path-2"><path class="cls-1" d="M133.81 116.58a6.38 6.38 0 0 1-1.14-2.09c-.23-1.25.74-2.53.41-3.76-.53-2-3.8-2.11-4.38-4.08-.2-.68 0-1.45-.34-2.09s-1.3-1-2.07-1.4c-3.3-1.63-4.31-6.23-7.64-7.81a23.64 23.64 0 0 0-3.64-1 4 4 0 0 1-2.83-2.35 18.57 18.57 0 0 1-.3-1.84 6.72 6.72 0 0 0-2.1-3.1 8.5 8.5 0 0 0-2.24-1.78c-1.09-.51-2.34-.53-3.45-1-2.44-1-3.89-3.89-6.48-4.31a8.53 8.53 0 0 1-1.68-.27 6.22 6.22 0 0 1-1.05-.63 5.69 5.69 0 0 0-3.41-.76 11 11 0 0 0-5.19.5l-9.41 2.47a39.65 39.65 0 0 0-8.53 2.94 20.18 20.18 0 0 0-6.57 5.54c-1.89 2.47-3.19 5.34-5 7.84a37.4 37.4 0 0 1-4.23 4.58l-1.8.41a6.27 6.27 0 0 0-1.94.66 2.16 2.16 0 0 0-1.1 1.63 6.14 6.14 0 0 1 0 1.21c-.16.59-.76.91-1.27 1.24a7.39 7.39 0 0 0-2.91 3.5 15.88 15.88 0 0 1-1 2.61c-.56.9-1.5 1.57-1.92 2.55a4.76 4.76 0 0 0 .62 4s1.3 5.8 3.84 7.07c2.11 1.07 4.74 1.09 6.56 2.6a12.93 12.93 0 0 0 1.74 1.49c1.12.64 2.5.46 3.77.62 3.13.4 6 2.95 9 2.32a8.66 8.66 0 0 1 1.73-.33c1.68 0 2.69 1.91 4.23 2.6 1.83.83 4-.18 6-.07 3.14.17 5.67 3.05 8.82 3.12.79 0 1.57-.14 2.36-.08 6.24.53 8.67-.47 15.2-2.84 2.32-.85 5-.89 7-2.25a9.42 9.42 0 0 1 2.3-1.44c1-.29 2.08 0 3.1-.13 1.63-.25 2.92-1.67 4.56-1.79 1.4-.11 2.88.76 4.15.15.79-.37 1.23-1.21 1.82-1.86 1.07-1.17 2.63-1.72 4-2.54s2.64-2.18 2.46-3.76c-.04-.08 1.05-4.51-.05-6.29z"/></clipPath><clipPath id="clip-path-3"><path class="cls-1" d="M197.88 134.36a46.62 46.62 0 0 1 1.91 11.81 43.63 43.63 0 0 0 7.39-8.89 19.27 19.27 0 0 0 2.93-11 30 30 0 0 0-2-7.82c-1-2.77-2.21-5.81-4.87-7a9.73 9.73 0 0 0-3.25-.73c-1.87-.18-9.55 1.72-9.55 1.72a31.48 31.48 0 0 1 2.8 5.23q2.47 8.26 4.64 16.68z"/></clipPath><clipPath id="clip-path-4"><path class="cls-1" d="M95.14 142q4.76 3.34 9.22 7.09a10.09 10.09 0 0 0 2.43 1.69 8.94 8.94 0 0 0 3.33.52 64.93 64.93 0 0 0 15.17-1.49 20.48 20.48 0 0 0 6.9-2.54c2.76-1.78 4.69-4.58 6.47-7.34a12.73 12.73 0 0 0 2.44-5.82 24.26 24.26 0 0 0-4.15-3.35 2.1 2.1 0 0 0-1-.41 2.23 2.23 0 0 0-1.41.6l-10.41 7.7a33.83 33.83 0 0 1-8 4.84 11.53 11.53 0 0 1-9.09 0 24.57 24.57 0 0 1-4.81-3.72 27.53 27.53 0 0 0-8.51-4.91c-3.55-1.28-7.66-2-9.9-5.06a3.68 3.68 0 0 0-.93-1 .91.91 0 0 0-1.42.73c0 .59.82 1.09 1.15 1.5a42.27 42.27 0 0 0 3.56 4.24 77.33 77.33 0 0 0 8.96 6.73z"/></clipPath></defs><path class="cls-2" d="M36.57 135c-4.88 3.4-8.8 9.57-6.7 15.13 1.16 3.07 3.91 5.24 6.64 7.06 9.69 6.45 20.76 10.47 31.79 14.17 8.92 3 17.93 5.81 27.2 7.32 13.48 2.18 27.25 1.53 40.87.66 26.26-1.69 53.38-4.45 76.23-17.49a28.93 28.93 0 0 0 8.41-6.54c2.24-2.78 3.6-6.47 2.87-10-1-4.86-5.55-8.05-9.74-10.74 0 0-22.29-13.24-87.45-13.69S36.57 135 36.57 135z"/><path class="cls-3" d="M28.1 128.56c3.22 20.9 21.94 30.07 31.84 33.34 14.13 4.65 28.46 8.87 43.2 10.87 23.9 3.24 48.26.56 71.85-4.48 7.88-1.69 15.83-3.69 22.81-7.71 13.83-8 23-16.08 24.19-34.69"/><path class="cls-4" d="M119.51 76.06A154 154 0 0 0 64.3 90c-9.82 4.54-19.25 10.21-26.87 17.88-5 5-9.35 11.42-9.43 18.53-.11 9.52 7.38 17.44 15.4 22.58 11.57 7.41 25 11.32 38.49 14.15 34.64 7.31 71.27 8 105-2.86 8.06-2.6 16-5.92 22.6-11.27s11.64-13 12.44-21.39c1.14-12-6.4-23.26-15.72-30.87-16-13.11-37-18.06-57.78-20.35a100.94 100.94 0 0 0-12.54-.56z"/><path class="cls-5" d="M75.74 88.9c-1.82.64-3.81 1.5-4.52 3.29 2 .12 4-.79 5.93-1.5A57 57 0 0 1 82.93 89c21.53-5.31 43.88-8.54 65.88-5.84 2.48.31 6.3 1.61 8.69.9-1.25-2.37-6.63-2.83-9-3-6-.41-12-.64-18.05-.64a183.56 183.56 0 0 0-35.4 3.2 136.06 136.06 0 0 0-19.31 5.28zm13.91 71.26c17.22 3.29 34.84 4 52.37 3.81 1.24 0 2.63-.11 3.42-1.05l-31.35-1.76c-5-.28-10-.56-15.06-1.13a135.72 135.72 0 0 1-45.63-13.58c-2-1-4.07-2.12-6.07-3.25-1.42-.81-3.33-2.51-4.91-2.73-.23 2.3 3 3.83 4.6 4.73 3.17 1.77 6.43 3.4 9.75 4.88a141.37 141.37 0 0 0 20.77 7.31q6 1.61 12.11 2.77z"/><path class="cls-1" d="M187.11 144l-1.07.14a.91.91 0 0 0 0 .23 1 1 0 0 0 .73.67 6.6 6.6 0 0 1 .34-1.04z"/><path class="cls-6" d="M207.88 120.32l-6.29 8.06a5.77 5.77 0 0 0-1.21-2.65 10.08 10.08 0 0 1-1.87-2.33c-.48-1.22 0-2.58.12-3.89.48-5.29-5-9-10-10.93a69.9 69.9 0 0 0-8-2.53h-.1a34.81 34.81 0 0 0-3.64-4.38 14.81 14.81 0 0 0-4-3.14c-1-.46-2.14-.85-2.53-1.85l-1.64-4.3c-1.26-.73-6.2 2.86-7.65 2.66a1.46 1.46 0 0 0-1 .12 1.4 1.4 0 0 0-.44.69c-.48 1.38-37.7 5.66-37.39 7.09 6.56 30.37-2.36 9.36-18 12.26-9.56 1.77-19.39 5.55-28.72 2.79-5-1.49-9.51-4.81-14.71-5.46-4.18-.52-8.71 0-12.92-.08-3.09-.07-6.33 2.74-8.22 5-2 2.47-6.22 2.65-4.9 5.57.75 1.67 5.3 6.32 6.81 7.36 5.64 3.89 12.65 5.11 19.42 6.23l39 6.46a10.59 10.59 0 0 1 3.47 1 15.15 15.15 0 0 1 3.11 2.83c6 6.08 15.24 7.08 23.73 7.73 3.37.26 7 .48 10-1.1 1.62-.86 3-2.22 4.74-2.77 2.36-.75 4.89.1 7.36.3 4 .33 8.57.19 11.75-2.26 4-3.06 8.53-.1 13.62-1 .22.06 1.87-2.52 2.09-2.47.54.13 1.23.45 1.13 1-.22 1.24-3 1.75-3.79 2.79a2.93 2.93 0 0 0 .69 3.74 3.63 3.63 0 0 0 2.88.27 24.32 24.32 0 0 0 4.85-1.84c2.24-1 4.64-2.21 5.78-4.4a1.89 1.89 0 0 0 .11-.25c2.49-.18 5-.07 7.51-.42a6.26 6.26 0 0 0 1.66-.44 6 6 0 0 0 1.76-1.46 25.68 25.68 0 0 0 5.43-24zm-21.83 24a.91.91 0 0 1 0-.23l1.07-.14a6.6 6.6 0 0 0-.33 1 1 1 0 0 1-.74-.6z"/><path class="cls-7" d="M125 79.92a17.66 17.66 0 0 0-4.24 1.59 41.87 41.87 0 0 0-12.06 9 17.6 17.6 0 0 0-4 6.2 14.94 14.94 0 0 0 0 8.61 45 45 0 0 0 3.35 8.06 2.48 2.48 0 0 0 .83 1.1c.89.54 2-.19 2.77-.88 1.07-.94 2.14-1.88 3.23-2.79 7.67-6.42 16.45-11.35 24.65-17.07"/><path class="cls-8" d="M115.36 111.7a1.24 1.24 0 0 1 .33-.15q35.31-10.63 70.15-22.92a1.42 1.42 0 0 0 .92-.63 1.44 1.44 0 0 0 0-1c-1.79-5.77-6.63-10.23-12.1-12.8S163 70.7 157 70.1c-10-1-20.69-1.06-29.37 4a40.51 40.51 0 0 0-8.5 7 47.9 47.9 0 0 0-9.35 13.12c-2 4.35-1.87 14-1.26 19.84a1.25 1.25 0 0 0 2 .9z"/><path class="cls-9" d="M159.09 73.93c-1.92 1.31-2.23 4-2.41 6.3s-.63 5-2.67 6.13a6.84 6.84 0 0 1-3.11.65 70.88 70.88 0 0 1-10.09-.37c-2.39-.26-4.88-.6-7.13.22-3.55 1.29-5.49 5-7.1 8.44-.17.37-.32.88 0 1.15a1 1 0 0 0 .66.16c1.59 0 3.33-.08 4.55-1.12s1.59-2.51 2.85-3.2c1.64-.88 3.59.14 5.34.78a28.9 28.9 0 0 0 5.02 1.16 1.42 1.42 0 0 1 1 .46 1 1 0 0 1 .11.7c-.17.88-1 1.42-1.69 2s-1.08 1.79-.37 2.35a1.86 1.86 0 0 0 1.76 0c2.08-.75 4-1.78 6.06-2.67 7.57-3.33 15.9-4.59 23.58-7.65 1.54-.62 3.28-1.59 3.45-3.24.2-1.88-1.65-3.46-2.8-4.69-1.34-1.42-2.73-2.79-4.11-4.18a13 13 0 0 0-6.2-3.65c-2.12-.53-4.79-1.05-6.7.27z"/><path class="cls-10" d="M119.71 99.28a7.17 7.17 0 0 0 1.69-3.85c.56-4.08-5.92-1.48-6.73 1-.31 1-.42 3.3.24 4.12 1.15 1.45 3.91-.29 4.8-1.27zM155 78.38a2.74 2.74 0 0 0-.87 3.21 4.82 4.82 0 0 0 2.46 2.15 1 1 0 0 0 1.68-.57c.5-1.33 1-3.27 0-4.54a2.45 2.45 0 0 0-3.27-.25zm10.78 4.23a1.16 1.16 0 0 0-.36.37 4 4 0 0 0-.57 1.57 1.26 1.26 0 0 0 0 .61 1.09 1.09 0 0 0 .7.64 1.8 1.8 0 0 0 1.51-3.26 1.2 1.2 0 0 0-1.31.07zm-43.02 19.47a2.67 2.67 0 0 0-2.84 2 1.53 1.53 0 0 0 .07 1 1.43 1.43 0 0 0 .61.63 2.7 2.7 0 0 0 2.37.14 3.39 3.39 0 0 0 1.71-1.69 1.07 1.07 0 0 0 .14-.65 1.1 1.1 0 0 0-.3-.52 2.64 2.64 0 0 0-1.76-.89m-8.65 1.96a.68.68 0 0 0-.49.21 2.33 2.33 0 0 0-1 1.68 1.2 1.2 0 0 0 1.27 1.23 1.22 1.22 0 0 0 .87-1 3.09 3.09 0 0 0-.14-1.38c-.07-.27-.26-.81-.53-.75M136 75.66a1.25 1.25 0 0 0-.1.87 1.12 1.12 0 0 0 1.35.7 1.46 1.46 0 0 0 .8-2.14c-.61-.77-1.71-.16-2.05.57zm34.17-.09a1 1 0 0 0-.28.75 1.57 1.57 0 0 0 .17.7.84.84 0 0 0 1.5.12 1.72 1.72 0 0 0 .24-1.33.72.72 0 0 0-.1-.29.75.75 0 0 0-.57-.2 2.28 2.28 0 0 0-.96.25z"/><path class="cls-11" d="M135.32 106.49a10.08 10.08 0 0 0-8.27 2.88c-.93.95-1.7 2.37-1.11 3.57a3.11 3.11 0 0 0 2 1.42 11.48 11.48 0 0 0 6.39-.1 10.49 10.49 0 0 0 5.5-3 3 3 0 0 0 .86-2.35 2.39 2.39 0 0 0-1-1.51 4.61 4.61 0 0 0-3-.91z"/><path class="cls-12" d="M191.38 99.84a10.9 10.9 0 0 1 2.79 1.66 8.18 8.18 0 0 1 2 3.18 19 19 0 0 1 1.18 5.36 2.31 2.31 0 0 1-.14 1.2 2.2 2.2 0 0 1-1 .88 32.39 32.39 0 0 1-8.76 2.87 18.66 18.66 0 0 1-5.24.67 11.83 11.83 0 0 1-8.2-4.61 23.1 23.1 0 0 1-4-8.73c-.64-2.45-1.79-10.31-1-13.87a56.06 56.06 0 0 1 6.71 2.7c2.43 1.49 4.88 3 7.37 4.36 2.69 1.49 5.46 2.99 8.29 4.33z"/><g class="cls-13"><path class="cls-14" d="M168.91 87.41a99 99 0 0 0 4.37 18.59 18.45 18.45 0 0 0 1.5 3.51 11.24 11.24 0 0 0 4.15 4 7 7 0 0 0 2.45.9c2.29.32 4.55-1.07 5.93-2.92a19.5 19.5 0 0 0 2.69-6.36l2.28-7.89c.08-.27.19-.59.46-.68a.82.82 0 0 1 .44 0 15.84 15.84 0 0 1 5.35 1.81l10.71 28.26-26.24-5.94-14.33-9.07-5-27.14"/></g><path class="cls-15" d="M176.38 105a5.76 5.76 0 0 0-.53 2.07 4.13 4.13 0 0 0 .45 1.75 7.53 7.53 0 0 0 3.85 3.71 1.17 1.17 0 0 0 1.16 0 1.16 1.16 0 0 0 .33-.67 19.32 19.32 0 0 0 .27-5.1l-.17-4.47a20.87 20.87 0 0 0-.44-4.17c-.21-.83-.65-2.71-1.57-1.45a17.36 17.36 0 0 0-1.54 3.72zm7.8 5.53c0 .34.17.78.51.76a.61.61 0 0 0 .4-.23 12.7 12.7 0 0 0 2.39-4 6.07 6.07 0 0 0 .76-3.17 5.23 5.23 0 0 0-1.3-2.55c-.61-.77-1.27-1.49-1.94-2.21a1.76 1.76 0 0 0-1.11-.71c-1.39-.08-.42 4.47-.35 5.28.21 2.3.46 4.56.64 6.83zM177 95.34a3.37 3.37 0 0 1 1.86-.66 4.6 4.6 0 0 1-.89 2.48c-1 1.84-1.46 4-2.71 5.65a1.16 1.16 0 0 1-.56.47.86.86 0 0 1-.86-.27 2.08 2.08 0 0 1-.45-.84c-.34-1-1.17-3.78-.35-4.64a10.13 10.13 0 0 1 1.8-.92zm-5.63-.25a1.19 1.19 0 0 0 .87.7 1.64 1.64 0 0 0 .75-.14 13.64 13.64 0 0 0 2.31-1.11.94.94 0 0 0 .44-.44c.12-.34-.16-.68-.43-.93a5.11 5.11 0 0 0-1.33-1c-.71-.33-2.22-.84-2.8 0-.46.55-.18 2.3.19 2.92z"/><path class="cls-16" d="M133.81 116.58a6.38 6.38 0 0 1-1.14-2.09c-.23-1.25.74-2.53.41-3.76-.53-2-3.8-2.11-4.38-4.08-.2-.68 0-1.45-.34-2.09s-1.3-1-2.07-1.4c-3.3-1.63-4.31-6.23-7.64-7.81a23.64 23.64 0 0 0-3.64-1 4 4 0 0 1-2.83-2.35 18.57 18.57 0 0 1-.3-1.84 6.72 6.72 0 0 0-2.1-3.1 8.5 8.5 0 0 0-2.24-1.78c-1.09-.51-2.34-.53-3.45-1-2.44-1-3.89-3.89-6.48-4.31a8.53 8.53 0 0 1-1.68-.27 6.22 6.22 0 0 1-1.05-.63 5.69 5.69 0 0 0-3.41-.76 11 11 0 0 0-5.19.5l-9.41 2.47a39.65 39.65 0 0 0-8.53 2.94 20.18 20.18 0 0 0-6.57 5.54c-1.89 2.47-3.19 5.34-5 7.84a37.4 37.4 0 0 1-4.23 4.58l-1.8.41a6.27 6.27 0 0 0-1.94.66 2.16 2.16 0 0 0-1.1 1.63 6.14 6.14 0 0 1 0 1.21c-.16.59-.76.91-1.27 1.24a7.39 7.39 0 0 0-2.91 3.5 15.88 15.88 0 0 1-1 2.61c-.56.9-1.5 1.57-1.92 2.55a4.76 4.76 0 0 0 .62 4s1.3 5.8 3.84 7.07c2.11 1.07 4.74 1.09 6.56 2.6a12.93 12.93 0 0 0 1.74 1.49c1.12.64 2.5.46 3.77.62 3.13.4 6 2.95 9 2.32a8.66 8.66 0 0 1 1.73-.33c1.68 0 2.69 1.91 4.23 2.6 1.83.83 4-.18 6-.07 3.14.17 5.67 3.05 8.82 3.12.79 0 1.57-.14 2.36-.08 6.24.53 8.67-.47 15.2-2.84 2.32-.85 5-.89 7-2.25a9.42 9.42 0 0 1 2.3-1.44c1-.29 2.08 0 3.1-.13 1.63-.25 2.92-1.67 4.56-1.79 1.4-.11 2.88.76 4.15.15.79-.37 1.23-1.21 1.82-1.86 1.07-1.17 2.63-1.72 4-2.54s2.64-2.18 2.46-3.76c-.04-.08 1.05-4.51-.05-6.29z"/><g class="cls-17"><path class="cls-18" d="M143.26 112.82c-11.79.72-24.18 1.68-34 8.23-3.15 2.09-6 4.74-9.48 6.18-2.72 1.12-5.72 1.45-8.47 2.52-2.23.88-4.32 2.26-6.71 2.55-2.85.35-5.64-.91-8.51-1.06-2.58-.14-5.15.62-7.74.5-4.27-.2-8-2.76-11.52-5.24l-15.3-10.83a7.61 7.61 0 0 0-4-1.76c-2.7-.06-4.66 2.93-4.51 5.63s1.74 5.06 3.33 7.25a71.26 71.26 0 0 0 10 11.61c10.73 9.59 25.48 13 39.66 15.52 6.76 1.18 13.76 2.21 20.42.56 8.3-2.06 15-8 22.61-11.9 3.32-1.71 6.85-3.05 10-5.07s5.94-4.91 6.85-8.53c1.28-5.12-1.4-10.32-4.18-14.8"/></g><path class="cls-19" d="M191 132.78c-.63-3.33-1.54-7.06-4.46-8.77-1-.58-2.23-.91-2.89-1.87a6.43 6.43 0 0 1-.74-2.38 9.5 9.5 0 0 0-8.19-7.23 14.91 14.91 0 0 1-2.41-.24c-1.69-.43-2.91-1.86-4-3.2a20.65 20.65 0 0 0-5.38-5 7.38 7.38 0 0 0-7.06-.41c-1.32.74-2.8 2.07-4.09 1.28-.51-.32-.79-.91-1.26-1.29-1-.83-2.53-.46-3.74.07a21.59 21.59 0 0 0-9.39 7.89c-.26.4-.6.86-1.09.86s-.84-.52-1.2-.9a3.6 3.6 0 0 0-3.48-.85 8.4 8.4 0 0 0-3.23 1.86c-.31.25-.61.52-.91.8a23.36 23.36 0 0 0-6.34 10.15l-.18.07a7.71 7.71 0 0 0-3.9 4 9.52 9.52 0 0 0-.59 5.58 9.39 9.39 0 0 0-5.37 2.71 5 5 0 0 0-1.29 2 2.62 2.62 0 0 0 .3 2.31c.8 1.09 2.37 1.16 3.58 1.76a1 1 0 0 1 .43.36 1.15 1.15 0 0 1 .1.58 5.27 5.27 0 0 0 2.34 4.23 7.68 7.68 0 0 0 3.1 1.06 14.84 14.84 0 0 0 6.15-.37 17.29 17.29 0 0 1 4.43-1 10.64 10.64 0 0 1 3.33.69l3 1a3.87 3.87 0 0 0 2 .27 3.57 3.57 0 0 0 1.58-1.06 18.8 18.8 0 0 0 1.67-1.89 2.66 2.66 0 0 0 .81.79l2.75 1.94a3.53 3.53 0 0 0 1.7.78 3.43 3.43 0 0 0 1.92-.67l3.48-2c-.62 1.64.81 3.51 2.53 3.85a6.07 6.07 0 0 0 4.82-1.58c1.36-1.1 2.46-2.49 3.81-3.6l.12-.1c.31-.07.61-.15.91-.24.5.14.91.68 1.32 1.08 1.57 1.56 4.19 1.15 6.26.34a17.31 17.31 0 0 0 7.62-5.5c18.55-2.13 11.32-7.31 11.13-8.16z"/><path class="cls-11" d="M130.41 125c1-.41 2-1.12 2.07-2.18a2.55 2.55 0 0 0-.95-1.83 8.4 8.4 0 0 0-5.42-2.13 14.41 14.41 0 0 0-5.78 1.15 5.83 5.83 0 0 0-1.87 1.08c-2.4 2.27.81 4.34 2.89 4.68a15.92 15.92 0 0 0 9.06-.77z"/><path class="cls-20" d="M146.26 102.87c-.76-.73-1.83-1.41-2.82-1a2.58 2.58 0 0 0-1.3 1.61 8.37 8.37 0 0 0 .2 5.81 14.15 14.15 0 0 0 3.36 4.85 5.81 5.81 0 0 0 1.73 1.28c3 1.3 3.66-2.46 3.14-4.51a15.9 15.9 0 0 0-4.31-8.04zM166 144.52a16 16 0 0 0 4.74.88 5.83 5.83 0 0 0 2.69-.4 2.64 2.64 0 0 0 1.59-2.09 3.46 3.46 0 0 0-1.31-2.53c-2.25-2.15-6.31-3.85-9.43-2.8a2.86 2.86 0 0 0-1.93 3.37c.28 1.92 1.96 2.98 3.65 3.57zm-2.28-35.04a16.25 16.25 0 0 0 2.77 4 6 6 0 0 0 2.21 1.52 2.61 2.61 0 0 0 2.59-.38 3.44 3.44 0 0 0 .84-2.72c-.11-3.11-1.83-7.17-4.79-8.61a2.88 2.88 0 0 0-3.73 1.06c-1.16 1.59-.69 3.52.11 5.13z"/><path class="cls-11" d="M151.28 122.72a16.39 16.39 0 0 0-3.63 3.17 6 6 0 0 0-1.35 2.37 2.62 2.62 0 0 0 .66 2.53 3.47 3.47 0 0 0 2.79.55c3.09-.44 6.94-2.58 8.05-5.68a2.88 2.88 0 0 0-1.45-3.6c-1.68-.98-3.55-.32-5.07.66z"/><path class="cls-20" d="M173.64 124c-1.17 0-2.53.38-3 1.45a2.68 2.68 0 0 0 0 1.91 7 7 0 0 0 3.67 3.77 8.71 8.71 0 0 0 8.21-.06 2.55 2.55 0 0 0 1.25-1.4c.54-2-2.08-3.55-3.55-4.26a13.88 13.88 0 0 0-6.58-1.41z"/><path class="cls-12" d="M197.88 134.36a46.62 46.62 0 0 1 1.91 11.81 43.63 43.63 0 0 0 7.39-8.89 19.27 19.27 0 0 0 2.93-11 30 30 0 0 0-2-7.82c-1-2.77-2.21-5.81-4.87-7a9.73 9.73 0 0 0-3.25-.73c-1.87-.18-9.55 1.72-9.55 1.72a31.48 31.48 0 0 1 2.8 5.23q2.47 8.26 4.64 16.68z"/><g class="cls-21"><path class="cls-14" d="M189.59 112.61l9.49-.28a5.24 5.24 0 0 1 1.53.1 3.63 3.63 0 0 1 1.59 1.06c1.91 2 2.2 5.09 2.22 7.89a62.57 62.57 0 0 1-4.71 25c-.74 1.72-1.51 3.87-.29 5.29a4 4 0 0 0 2.55 1.15c4.85.68 9.71-2 12.79-5.78s4.64-8.59 5.77-13.35a94 94 0 0 0 1.89-10.79 34.69 34.69 0 0 0 .09-9.16 15.52 15.52 0 0 0-3.69-8.26 16.23 16.23 0 0 0-4.38-3.24 19.2 19.2 0 0 0-4.6-1.77 20.71 20.71 0 0 0-5.39-.41 32.19 32.19 0 0 0-16.68 5.46"/></g><path class="cls-15" d="M200.84 115.53a1 1 0 0 1 .63-.3c.42 0 .7.43.86.81a9.76 9.76 0 0 1 .76 3.77 1.11 1.11 0 0 1-.1.54 1.06 1.06 0 0 1-.4.36 11.63 11.63 0 0 1-7.08 1.78c-.49 0 0-1.47.13-1.65a11.83 11.83 0 0 1 1.58-2 26.17 26.17 0 0 1 3.62-3.31zm.63 8.04c.52-.09 1.15-.14 1.48.28a1.46 1.46 0 0 1 .18 1.05c-.18 2.45-.54 5-2.09 6.95a.55.55 0 0 1-.31.23c-.21 0-.39-.15-.52-.32l-2.74-3.61c-.48-.65-2-2.75-1.4-3.63.26-.36 2-.39 2.47-.47zm-6.96-5.74c0 .25.12.54.36.59a.63.63 0 0 0 .48-.16 22.8 22.8 0 0 0 2.49-2c.5-.47 1-1.13.76-1.76a1.56 1.56 0 0 0-.91-.77c-.87-.37-3-1-3.62 0s.28 3.17.44 4.1zm6.49 16.56a1.87 1.87 0 0 1 .49.67 2 2 0 0 1 .07.81 5.15 5.15 0 0 1-.72 2.83c-.1.13-.24.27-.41.24a.45.45 0 0 1-.25-.16 3.3 3.3 0 0 1-.71-1.62c-.1-.59-.12-1.19-.22-1.79-.06-.41-.93-2.9-.59-3.11s2.03 1.83 2.34 2.13z"/><path class="cls-18" d="M106.51 99.83a5 5 0 0 0-1.32 1.9 27 27 0 0 0-1.51 3.44 1.17 1.17 0 0 0-.08.71.88.88 0 0 0 .63.5 1.87 1.87 0 0 0 1.5-.38 4.48 4.48 0 0 0 1-1.21 10.72 10.72 0 0 0 1.84-4.07c.19-1.33-.98-1.72-2.06-.89zM59 101.7a1.56 1.56 0 0 0 .52.47 1.08 1.08 0 0 0 1.35-.73 2.89 2.89 0 0 0-.11-1.69 18.7 18.7 0 0 0-1.23-3c-.64-1.26-2.6-2.85-2.62-.42A9.58 9.58 0 0 0 59 101.7zm24.09 2.06a3.59 3.59 0 0 0-1 1.69 3.4 3.4 0 0 0 2.29.27c1.43-.25 7.55-2.72 5.75-4.77-2.13-2.34-5.71 1.42-7.04 2.81zm-27.28 9.1a3.51 3.51 0 0 0-1.05 1.69 3.39 3.39 0 0 0 2.29.27c1.43-.25 7.55-2.72 5.74-4.77-2.07-2.34-5.66 1.43-6.98 2.81zm17.08-26.18a2.61 2.61 0 0 0 .83.76 1 1 0 0 0 1.06-.06 1.34 1.34 0 0 0 .35-.91c.12-1.5-.57-5.41-2.8-5-2.64.53-.33 4.15.56 5.21zm22.82 31.65a2.73 2.73 0 0 0 .83.76 1 1 0 0 0 1.06-.09 1.3 1.3 0 0 0 .35-.9c.12-1.5-.57-5.41-2.8-5-2.64.58-.32 4.17.56 5.23zM74.05 95.92a3.79 3.79 0 0 0-1.72.44 1.39 1.39 0 0 0-.66 1.52c.25.71 1.14.92 1.9.94 1 0 5.27.24 5.09-1.33-.21-1.85-3.48-1.66-4.61-1.57zm39.22 20.64a3.79 3.79 0 0 0-1.72.44 1.38 1.38 0 0 0-.66 1.52c.24.71 1.14.92 1.9.94 1 0 5.27.24 5.09-1.33-.21-1.85-3.48-1.66-4.61-1.57zm-38.84-2.8a3.72 3.72 0 0 0-1.72.44 1.38 1.38 0 0 0-.67 1.52c.25.71 1.15.92 1.9.94 1 0 5.27.24 5.09-1.33-.21-1.84-3.48-1.66-4.6-1.57zm14.25-22.48c0 .5.15 1.09.61 1.29a1.08 1.08 0 0 0 1-.14 3.16 3.16 0 0 0 1.16-1.5c.42-1 1.57-5.18-.54-5-1.77.07-2.27 4.07-2.23 5.35zm-28.45 38.44c0 .5.14 1.09.6 1.29a1 1 0 0 0 1-.14 3.18 3.18 0 0 0 1.17-1.5c.42-1 1.57-5.18-.54-5-1.77.12-2.28 4.07-2.23 5.35zm46.12-40.95a.55.55 0 0 0 .32.14c.28 0 .47-.28.55-.55.51-1.53-.36-6-2.8-5.25s.87 4.94 1.93 5.66z"/><path class="cls-16" d="M75.88 138.66c.26 0 .55-.17.6-.43s-.16-.47-.37-.63c-.85-.64-4.42-2.32-5-.52s3.81 1.8 4.77 1.58z"/><path class="cls-11" d="M140.66 150.52c.91.54 2.1 1 3 .38a2.54 2.54 0 0 0 .92-1.85 8.36 8.36 0 0 0-1.47-5.63 14.17 14.17 0 0 0-4.34-4 5.82 5.82 0 0 0-2-.88c-3.25-.6-3 3.21-2.08 5.09a16 16 0 0 0 5.97 6.89zm44.26-7.61a10 10 0 0 0-8.55 1.87c-1.05.82-2 2.14-1.54 3.4a3.11 3.11 0 0 0 1.76 1.65 11.6 11.6 0 0 0 6.37.67 10.53 10.53 0 0 0 5.82-2.34 3.07 3.07 0 0 0 1.14-2.23 2.51 2.51 0 0 0-.81-1.63 4.68 4.68 0 0 0-2.86-1.26zm-30.17-43.25a1.85 1.85 0 0 0-2.54 1.11 4.12 4.12 0 0 0 .21 2.35 8.45 8.45 0 0 0 3.72 4.49 3.51 3.51 0 0 0 1.6.54 1.61 1.61 0 0 0 1.45-.74 2.49 2.49 0 0 0 0-1.82 14.4 14.4 0 0 0-1.18-3.13 5.93 5.93 0 0 0-2.28-2.4z"/><path class="cls-16" d="M49.74 134.26c.25.27.58.57.93.47a.83.83 0 0 0 .43-.9 4 4 0 0 0-1-2.09c-.46-.57-.94-1.13-1.43-1.68-.3-.34-1-.75-1.3-.21s.15 1.2.33 1.58a11.81 11.81 0 0 0 2.04 2.83zm13.79 6.12a4.19 4.19 0 0 0 2-.75.53.53 0 0 0 .27-.37c0-.21-.17-.39-.36-.48a3.32 3.32 0 0 0-1.66-.16c-.5 0-1 .09-1.49.18s-1.76.58-1.26 1.32c.4.51 1.97.32 2.5.26zm27.99 4.93a.81.81 0 0 0 .68 0 .58.58 0 0 0 .23-.69A1.47 1.47 0 0 0 92 144c-.54-.51-3.1-2.75-3.67-1.39-.48 1.12 2.43 2.39 3.19 2.7zm-50.11-20.69a.56.56 0 0 0 .61-.11.68.68 0 0 0 .16-.33c.27-.92.62-3.38-1.08-2.72-1.29.54-.81 2.72.31 3.16z"/><path class="cls-22" d="M95.14 142q4.76 3.34 9.22 7.09a10.09 10.09 0 0 0 2.43 1.69 8.94 8.94 0 0 0 3.33.52 64.93 64.93 0 0 0 15.17-1.49 20.48 20.48 0 0 0 6.9-2.54c2.76-1.78 4.69-4.58 6.47-7.34a12.73 12.73 0 0 0 2.44-5.82 24.26 24.26 0 0 0-4.15-3.35 2.1 2.1 0 0 0-1-.41 2.23 2.23 0 0 0-1.41.6l-10.41 7.7a33.83 33.83 0 0 1-8 4.84 11.53 11.53 0 0 1-9.09 0 24.57 24.57 0 0 1-4.81-3.72 27.53 27.53 0 0 0-8.51-4.91c-3.55-1.28-7.66-2-9.9-5.06a3.68 3.68 0 0 0-.93-1 .91.91 0 0 0-1.42.73c0 .59.82 1.09 1.15 1.5a42.27 42.27 0 0 0 3.56 4.24 77.33 77.33 0 0 0 8.96 6.73z"/><g class="cls-23"><path class="cls-24" d="M115.4 142.67l.68 4.89a2 2 0 0 0 .24.83.67.67 0 0 0 .74.31c.42-.15.45-.73.39-1.17l-.56-4.33a1.66 1.66 0 0 1 0-.77.57.57 0 0 1 .6-.39c.27.06.4.36.48.63.42 1.53.33 3.36 1.5 4.43.63-.42.51-1.35.35-2.09a23.37 23.37 0 0 1-.5-4.93 5.45 5.45 0 0 1 2.07 3.94c0 .53.07 1.2.57 1.37.56-1.7-.51-3.68.22-5.32a5.25 5.25 0 0 1 1-1.39l1.45-1.52.92 3.75c.09.34.24.74.59.78a.59.59 0 0 0 .58-.53 1.77 1.77 0 0 0-.16-.84 15.35 15.35 0 0 1-.18-3 1.7 1.7 0 0 1 .06-.95.58.58 0 0 1 .79-.32c.64.4 1.36.87 2 1.24.16.08.39.15.49 0a.38.38 0 0 0 0-.21A4.65 4.65 0 0 0 126 133a9.26 9.26 0 0 0-5.85 1.05c-1.81.89-3.47 2.07-5.3 2.93a7.21 7.21 0 0 1-3 .83 12.55 12.55 0 0 1-3.19-.64 17.79 17.79 0 0 0-5.9-.55 1 1 0 0 0-.55.15 1.16 1.16 0 0 0-.24.34l-1.31 2.61a1.81 1.81 0 0 0-.28 1c0 .35.42.67.75.54a2 2 0 0 0 .39-.33c.54-.48 1.37-.24 2 0a1.11 1.11 0 0 1 .27 1.26 7 7 0 0 0-.42 1.3c-.05.46.24 1 .7 1s.86-.57 1.3-.41.7.88 1 .62a6.45 6.45 0 0 1 1.58-2.74.83.83 0 0 1 .71-.32.72.72 0 0 1 .38.33 3.18 3.18 0 0 1 .18 2.5 15.85 15.85 0 0 0-.65 2.5.64.64 0 0 0 0 .36.49.49 0 0 0 .74 0 1.53 1.53 0 0 0 .32-.8 12.37 12.37 0 0 1 .78-2.51c.07-.16.18-.34.35-.33a.43.43 0 0 1 .27.19c.74 1 .14 2.47.52 3.67a.56.56 0 0 0 .22.35c.33.2.67-.26.78-.63a10.12 10.12 0 0 0 .48-2.83 8.67 8.67 0 0 1 0-1.53 1.57 1.57 0 0 1 .84-1.2c.66-.14 1.46.46 1.53.96z"/><path class="cls-25" d="M135.71 129.15a18.29 18.29 0 0 0-.33 9.46c.15.64.33 1.27.45 1.92a3.27 3.27 0 0 1 .08.7 5.13 5.13 0 0 1-.12.77l-1 4.49a10.78 10.78 0 0 0 3.9-3.78 28.81 28.81 0 0 0 2.38-4.94 13.36 13.36 0 0 0 1-3.3 21.8 21.8 0 0 0 .05-2.68 6.36 6.36 0 0 0-.37-2.75 2.69 2.69 0 0 0-1.5-1.35 3.57 3.57 0 0 0-2.26 0 10.13 10.13 0 0 0-2.08 1"/></g><path class="cls-26" d="M133.83 127.74c-2 0-4.19.07-5.68 1.41l5.86 1.11c.37.07.83.23.85.6a.85.85 0 0 1-.09.38l-1.05 2.54a16.62 16.62 0 0 1 3.77-.71q-.3 2.34-.81 4.65a24.55 24.55 0 0 0 3.66-2.32 29.29 29.29 0 0 0 1.37 3.95c.09.2.23.44.45.43a.54.54 0 0 0 .37-.22c1-1.23.85-3.05.46-4.61a12.72 12.72 0 0 0-2.92-5.95c-1.61-1.65-4.07-1.22-6.24-1.26z"/><path class="cls-26" d="M140.49 124.78c0-.1 0-.22.13-.26a.33.33 0 0 1 .17 0 1.47 1.47 0 0 1 1.06.52 1.56 1.56 0 0 1 0 1.22c-.21.81-1.05 5.59-2.22 4.5-.92-.89.66-4.83.86-5.98z"/></svg>