<svg viewBox="0 0 250 250" xmlns="http://www.w3.org/2000/svg" xmlns:xlink="http://www.w3.org/1999/xlink"><clipPath id="a"><path d="m140.88 96.18a88.06 88.06 0 0 1 -2.08-18.38 2.67 2.67 0 0 1 1.28-2.8l6.86-5.26a9.1 9.1 0 0 1 3.12-1.74c2-.51 4 .33 5.85 1.15a1 1 0 0 1 .75 1.42l-2.38 11a12 12 0 0 0 -.39 3.31c.21 2.67 2.23 5 2.25 7.66-.18 0 0 0 .1.2q2.13 6.36 4.69 12.56c.54 1.31-.2 3-.19 4.37a.87.87 0 0 1 -.1.48c-.17.24-.52.23-.82.21-5-.4-9.88 2.54-14.93 2.25a1.22 1.22 0 0 1 -1.35-1 46.51 46.51 0 0 1 -3.46-12.47"/></clipPath><clipPath id="b"><path d="m135.72 66.89c1.34-1.65 3.22-3.25 5.24-3.4a1.1 1.1 0 0 1 1.17 1.25c-2.25 17.8 5.77 35.44 6.49 53.42 0 .78-1.25 1.68-1.25 1.68l-4.83-1.13a44.83 44.83 0 0 1 -4-5.06l-8-13.49c-3.35-5.68-4.91-9.94-3-16.28 1.89-6.01 4.13-12.06 8.18-16.99z"/></clipPath><clipPath id="c"><path d="m129.93 79.94c-1.63-.72-3.41.74-5.19.79-.52 0-1-.1-1.56-.12-3.06-.13-13.54 3.18-15.9 4.36a46 46 0 0 1 -6.92 1.6c-.9.11-4 1.55-4.83 1.73-2.48.55-4.48 3.29-7 3.45-4.55.29-6.09.84-10.23 2.75-2.26 1-6.17 1.49-8.1 3-1.28 1-3.73 1.16-4.14 2.75s-4 0-4.69 5.65c-.2 1.63 1.15 3.24.54 4.77a6 6 0 0 0 .66 4.87c.79 1.49 1.87 2.83 2.54 4.38.59 1.37.84 2.87 1.45 4.24a7.42 7.42 0 0 0 4.55 4.07c4 1.15 9-.68 12.91-1.89s5.92-.59 9.94-1.81c1.17-.35 7.76-2.38 8.9-2.8.71-.26 1.4-.55 2.12-.78a31.73 31.73 0 0 1 3.6-.81 17.08 17.08 0 0 0 6.49-2.25 25.24 25.24 0 0 1 4.4-1.8 14.52 14.52 0 0 1 4.78-.73c3.19-.12 5.15-2.06 8.17-3.11 3.37-1.16 7.31-2.29 8.34-5.71a10.1 10.1 0 0 0 .16-4.1 41.71 41.71 0 0 0 -2.49-10.19c-.4-1-1.26-1.83-1.17-2.93a8.75 8.75 0 0 0 .29-2.76c-.26-1-1.29-1.67-1.92-2.54s-.9-2.31-1.77-3.15-2.86-.47-3.93-.93z"/></clipPath><clipPath id="d"><path d="m172.76 102.18c1.92-.58 3.87-1.1 5.82-1.55a.71.71 0 0 1 .59 0 .74.74 0 0 1 .24.45c1.45 6 2.41 12.06 4.57 17.8.64 1.69 1.38 3.35 1.85 5.09.39 1.47.59 3 .88 4.47a48.49 48.49 0 0 0 1.67 6.06 5.79 5.79 0 0 1 -4.46 7.54l-9 1.64a2.64 2.64 0 0 1 -1 0 2 2 0 0 1 -.93-.55 7.76 7.76 0 0 1 -2.32-3.83c-2.81-10.44-3.9-21.24-4.44-32a4.15 4.15 0 0 1 .11-1.45c.51-1.47 2.42-1.79 3.65-2.75z"/></clipPath><clipPath id="e"><path d="m155.33 115.67a46.78 46.78 0 0 1 2.24-5.79c1.63-3.73 3.29-7.51 5.85-10.67a17.55 17.55 0 0 1 6.09-4.91 2.55 2.55 0 0 1 3.49 3.06c-1 3.38-2.8 6.61-3.79 10-1.36 4.67-1.17 9.63-1 14.49a30.11 30.11 0 0 0 .68 6.07 29.43 29.43 0 0 0 1.91 5l3.11 6.83a4.05 4.05 0 0 1 .52 2 3.51 3.51 0 0 1 -.39 1.17 12.61 12.61 0 0 1 -8.46 6.68 3 3 0 0 1 -1.16.08 3 3 0 0 1 -1.4-.82 11.92 11.92 0 0 1 -3.28-5.24 100.17 100.17 0 0 1 -4.22-23.62"/></clipPath><clipPath id="f"><path d="m152.86 109.72c-1.49-1-3.48.19-5.25 0-.52-.07-1-.26-1.52-.37-3-.6-13.87 1-16.39 1.78a45.87 45.87 0 0 1 -7.09.47c-.9 0-4.21.9-5 1-2.53.14-4.95 2.54-7.48 2.29-4.53-.44-6.14-.14-10.53 1.08-2.39.67-6.33.49-8.47 1.71-1.43.82-3.88.56-4.54 2.06s-4-.59-5.53 4.83c-.45 1.58.62 3.38-.22 4.8a5.93 5.93 0 0 0 -.12 4.9c.54 1.6 1.39 3.1 1.81 4.73.36 1.45.37 3 .76 4.42a7.38 7.38 0 0 0 3.84 4.74c3.74 1.78 8.94.76 13 .2s5.94.36 10.1-.21c1.2-.16 8-1.11 9.23-1.34.74-.15 1.47-.32 2.22-.43a28.19 28.19 0 0 1 3.68-.23 17.24 17.24 0 0 0 6.77-1.19 24.75 24.75 0 0 1 4.63-1.08 14.51 14.51 0 0 1 4.83 0c3.17.39 5.41-1.22 8.56-1.77 3.51-.61 7.59-1.1 9.14-4.3a10 10 0 0 0 .81-4 41.66 41.66 0 0 0 -.83-10.45c-.23-1.08-1-2-.69-3.09a8.43 8.43 0 0 0 .72-2.67c-.09-1.07-1-1.86-1.48-2.82s-.53-2.42-1.25-3.39-2.75-1.05-3.71-1.67z"/></clipPath><path d="m16.54 129.47a374.69 374.69 0 0 0 32.1 54.42c1.43 2 3 4.12 5.23 5.23 3.07 1.51 6.74.91 10.12.27l43.4-8.23c18-3.42 36.1-6.84 53.81-11.65 15.62-4.24 30.94-9.55 46.79-12.89 5.09-1.07 10.35-2 15.23-3.69a6.27 6.27 0 0 0 3.09-9.65 308.71 308.71 0 0 0 -45-48.87 15.18 15.18 0 0 0 -15.49-6.34l-43.61 8.44c-34.2 6.63-68.53 13.28-101.49 24.36-2.15.72-4.57 1.74-5.2 3.87-.42 1.58.3 3.26 1.02 4.73z" fill="#efefef"/><path d="m25.77 112.26-7.07 2.77.16 5.54 1.42 1.9" fill="#9e1c4c"/><path d="m220.54 143.62 4.48-1.76-.14-6.09-10.46-2.03" fill="#9e1c4c"/><path d="m19.93 123.9a378.61 378.61 0 0 0 31.24 54.45c1.4 2 2.9 4.11 5.09 5.22 3 1.52 6.56.92 9.84.28l42.17-8.19c17.54-3.41 35.1-6.82 52.3-11.61 15.18-4.23 30.07-9.53 45.47-12.86 5-1.07 10.06-2 14.81-3.68a6.34 6.34 0 0 0 3-9.65 306 306 0 0 0 -43.75-48.86 14.58 14.58 0 0 0 -15-6.35l-42.44 8.35c-33.24 6.6-66.6 13.23-98.63 24.29-2.09.72-4.45 1.73-5.05 3.86-.45 1.6.25 3.26.95 4.75zm16 1.24c1.61-3.27 7-1.15 9.48.14a19.26 19.26 0 0 1 5 4.09c6.87 7.35 11.53 16.52 15.11 25.92.92 2.4 1.78 5 1.35 7.47s-2.63 4.93-5.18 4.68-4-2.56-5.24-4.64l-15.45-26.1c-1.52-2.53-6.65-8.33-5.08-11.56z" fill="#003d32"/><path d="m19.79 118.6a379 379 0 0 0 31.21 54.4c1.39 2 2.9 4.12 5.09 5.23 3 1.52 6.55.91 9.83.28l42.18-8.2c17.53-3.4 35.09-6.81 52.3-11.61 15.17-4.22 30.07-9.53 45.47-12.85 5-1.07 10.06-2 14.8-3.68a6.35 6.35 0 0 0 3-9.66 306.45 306.45 0 0 0 -43.67-48.85 14.56 14.56 0 0 0 -15.05-6.35l-42.38 8.41c-33.28 6.6-66.65 13.28-98.68 24.28-2.09.72-4.44 1.74-5.05 3.86-.45 1.59.25 3.24.95 4.74zm16 1.24c1.6-3.27 7-1.15 9.47.14a19.26 19.26 0 0 1 5 4.09c6.88 7.35 11.53 16.51 15.12 25.92.91 2.39 1.77 4.94 1.34 7.47s-2.63 4.93-5.18 4.68-4-2.56-5.24-4.65l-15.46-26.09c-1.5-2.53-6.63-8.34-5.05-11.56z" fill="#ffc466"/><path d="m19.79 118.6a379 379 0 0 0 31.21 54.4c1.39 2 2.9 4.12 5.09 5.23 3 1.52 6.55.91 9.83.28l42.18-8.2c17.53-3.4 35.09-6.81 52.3-11.61 15.17-4.22 30.07-9.53 45.47-12.85 5-1.07 10.06-2 14.8-3.68a6.35 6.35 0 0 0 3-9.66 306.45 306.45 0 0 0 -43.67-48.85 14.56 14.56 0 0 0 -15.05-6.35l-42.38 8.41c-33.28 6.6-66.65 13.28-98.68 24.28-2.09.72-4.44 1.74-5.05 3.86-.45 1.59.25 3.24.95 4.74zm16 1.24c1.6-3.27 7-1.15 9.47.14a19.26 19.26 0 0 1 5 4.09c6.88 7.35 11.53 16.51 15.12 25.92.91 2.39 1.77 4.94 1.34 7.47s-2.63 4.93-5.18 4.68-4-2.56-5.24-4.65l-15.46-26.09c-1.5-2.53-6.63-8.34-5.05-11.56z" fill="#89cfbb"/><path d="m64.49 114.63c-.54-1.65-3.13-1.85-4.26-.53a4.05 4.05 0 0 0 .09 4.84c.57.82 1.38 1.88.76 2.66a3.75 3.75 0 0 1 -.93.64c-1.2.83-1 2.79-.08 3.88a7.84 7.84 0 0 0 3.86 2l10.5 3.07c2.72.8 6.08 2.55 5.59 5.34-.25 1.41-1.47 2.43-2.06 3.73-1.12 2.44.24 5.45 2.41 7s4.93 2.08 7.58 2.46c3.13.46 6.28.83 9.44 1 10.72.55 21.41-1.26 32-3.06l56.05-9.55c2.41-.41 5.4-1.43 5.55-3.87.21-3.3-5.27-5.44-4.12-8.54.38-1 1.45-1.74 1.64-2.82.31-1.68-1.56-2.84-3.08-3.62-5-2.57-9.14-6.44-13.24-10.27-3.1-2.89-6.24-5.85-8.36-9.52-.87-1.52-1.56-3.15-2.39-4.69a17.08 17.08 0 0 0 -4.95-5.94c-5.29-3.78-12.49-2.84-18.86-1.64-22.36 4.28-44.87 10.4-63.81 23" fill="#639384"/><path d="m169.53 66.75c3.51-4.07 10.1-5.3 14.55-2.3 3.18 2.14 4.87 5.86 6.13 9.48.9 2.59 1.66 5.23 2.4 7.88a12.31 12.31 0 0 1 .64 4.36 7.86 7.86 0 0 1 -1.7 4c-3.67 4.73-10.7 5.46-16.48 3.9a7.87 7.87 0 0 1 -3.49-1.7 9.16 9.16 0 0 1 -1.94-3.37l-1.64-4.29c-.38-1-.62-2.31.29-2.78 1.1-.56 2.09-1.82 2.63-.72 1.09 2.21 1.4 6.91 3.19 8.59.79.74 3.11 1.27 4.15 1.56a5.82 5.82 0 0 0 2.87-.1 24.24 24.24 0 0 0 7.38-3 4.11 4.11 0 0 0 1.49-1.26c.62-1 .29-2.37-.08-3.52a103.09 103.09 0 0 0 -3.92-10.35 13.47 13.47 0 0 0 -2.55-4.23c-2.7-2.72-7.5-2.74-10.48-.34a9.77 9.77 0 0 0 -2.83 10.44 17 17 0 0 1 .84 2.68 2.76 2.76 0 0 1 -.79 2.57 1.55 1.55 0 0 1 -2.36-.46c-.15-6.18-3.09-11.5 1.7-17.04z" fill="#0c4f60"/><path d="m169.71 81.1a4.48 4.48 0 0 0 -2.67.23c-6.73 2-67.39 20.37-74 22.83-.22.09-.45.17-.7.25l1.08 2.81c11.75-3.55 61.06-18.57 65-19.87 2.29-.77 11.06-2.23 12.31-4.12.49-.76-.16-1.84-1.02-2.13z" fill="#0c4f60"/><path d="m140.88 96.18a88.06 88.06 0 0 1 -2.08-18.38 2.67 2.67 0 0 1 1.28-2.8l6.86-5.26a9.1 9.1 0 0 1 3.12-1.74c2-.51 4 .33 5.85 1.15a1 1 0 0 1 .75 1.42l-2.38 11a12 12 0 0 0 -.39 3.31c.21 2.67 2.23 5 2.25 7.66-.18 0 0 0 .1.2q2.13 6.36 4.69 12.56c.54 1.31-.2 3-.19 4.37a.87.87 0 0 1 -.1.48c-.17.24-.52.23-.82.21-5-.4-9.88 2.54-14.93 2.25a1.22 1.22 0 0 1 -1.35-1 46.51 46.51 0 0 1 -3.46-12.47" fill="#037c3c"/><g clip-path="url(#a)"><path d="m157.4 68.8a26.8 26.8 0 0 0 -4.3 3.58 7.4 7.4 0 0 0 -1.78 2.5 8.61 8.61 0 0 0 -.43 2.25l-.72 7.4a13.36 13.36 0 0 0 .25 5.67c.59 1.71 1.89 3.21 2.05 5 .05.58 0 1.17.08 1.74a6.89 6.89 0 0 0 1 2.23 38.34 38.34 0 0 1 4.61 14 37 37 0 0 1 8-1.4c.09-4.19-1.18-8.26-1.93-12.38a120.67 120.67 0 0 1 -1.32-15.2q-.51-9.75-1.73-19.46" fill="#67ad39"/><path d="m150.7 106c1.28 3.08 2.68 6.12 4.07 9.16h-5.69a4.07 4.07 0 0 1 -2-.34 4 4 0 0 1 -1.58-2.64c-.55-2-1-4.13-1.38-6.22-1.64-8.34-3.83-16.91-4.52-25.4-.09-1.12 0-2.46 1.47-2.61s1.47 1.44 1.73 2.67q1.31 6.19 3.15 12.26 2.05 6.68 4.75 13.12z" fill="#036d33"/></g><path d="m135.72 66.94c1.34-1.64 3.22-3.24 5.24-3.4a1.11 1.11 0 0 1 1.17 1.25c-2.25 17.8 5.77 35.44 6.49 53.42a1.64 1.64 0 0 1 -1.25 1.68c-1.61.39-4.83-1.13-4.83-1.13a44.83 44.83 0 0 1 -4-5.06l-8-13.49c-3.35-5.68-4.91-9.94-3-16.28 1.89-6.01 4.13-12.05 8.18-16.99z" fill="#a02b71"/><g clip-path="url(#b)"><path d="m139.76 71.61c.12 1.17.35 2.33.39 3.51 0 1.8-.36 3.57-.41 5.37a26.89 26.89 0 0 0 1 6.74c1.09 4.68 2.2 9.42 4.21 13.53.11.21.23.44.42.48.35.1.57-.5.64-1a38.65 38.65 0 0 0 0-7.53c-.42-6.83-.87-13.66-1.31-20.49-.15-2.22.11-8.1-2.45-7.86s-2.75 4.75-2.49 7.25z" fill="#cc3a98"/><path d="m130.24 71.78a31.74 31.74 0 0 1 6.17-7.06c-.45 2.66-.83 5.33-1.12 8a.76.76 0 0 0 .14.68 1.09 1.09 0 0 0 .59.16c1.11.12 1.72 1.32 2.09 2.37 2.94 8.29 3.5 17.2 4 26a25.66 25.66 0 0 1 0 4.72 15.73 15.73 0 0 0 -.27 2.81c.06 1 .41 1.9.54 2.86a26.51 26.51 0 0 1 0 3.78 12.24 12.24 0 0 0 1.29 5.57 4.35 4.35 0 0 1 .57 1.54 1.19 1.19 0 0 1 -.78 1.29 1.48 1.48 0 0 1 -.75-.07c-2.83-.83-4.66-3.49-6.23-6-5.55-8.84-10.88-18.42-11.06-28.86-.13-7.11 2.17-14 5-20.57" fill="#842562"/></g><path d="m129.93 79.94c-1.63-.72-3.41.74-5.19.79-.52 0-1-.1-1.56-.12-3.06-.13-13.54 3.18-15.9 4.36a46 46 0 0 1 -6.92 1.6c-.9.11-4 1.55-4.83 1.73-2.48.55-4.48 3.29-7 3.45-4.55.29-6.09.84-10.23 2.75-2.26 1-6.17 1.49-8.1 3-1.28 1-3.73 1.16-4.14 2.75s-4 0-4.69 5.65c-.2 1.63 1.15 3.24.54 4.77a6 6 0 0 0 .66 4.87c.79 1.49 1.87 2.83 2.54 4.38.59 1.37.84 2.87 1.45 4.24a7.42 7.42 0 0 0 4.55 4.07c4 1.15 9-.68 12.91-1.89s5.92-.59 9.94-1.81c1.17-.35 7.76-2.38 8.9-2.8.71-.26 1.4-.55 2.12-.78a31.73 31.73 0 0 1 3.6-.81 17.08 17.08 0 0 0 6.49-2.25 25.24 25.24 0 0 1 4.4-1.8 14.52 14.52 0 0 1 4.78-.73c3.19-.12 5.15-2.06 8.17-3.11 3.37-1.16 7.31-2.29 8.34-5.71a10.1 10.1 0 0 0 .16-4.1 41.71 41.71 0 0 0 -2.49-10.19c-.4-1-1.26-1.83-1.17-2.93a8.75 8.75 0 0 0 .29-2.76c-.26-1-1.29-1.67-1.92-2.54s-.9-2.31-1.77-3.15-2.86-.47-3.93-.93z" fill="#824646"/><path d="m67.56 110.34c.36 1.1.54 2.26 1 3.33a22.47 22.47 0 0 0 1.21 2.27 24.44 24.44 0 0 1 2.09 5 7.86 7.86 0 0 1 .4 3 3.36 3.36 0 0 1 -1.39 2.54 19.93 19.93 0 0 1 -3.57-6.94 9.77 9.77 0 0 0 -1.64-4c-.52-.6-1.22-1-1.75-1.63a2.05 2.05 0 0 1 -.49-2.19c.76.5 1.49 1 2.2 1.61.26-.9-.47-1.75-1.06-2.48-.71-.91-3.4-5.29-1-5.54 1.82-.26 3.55 3.69 4 5.03z" fill="#5e3434"/><g clip-path="url(#c)"><path d="m123.13 109.53a2.06 2.06 0 0 1 -.41.87c-.55.56-1.48.18-2.25.06-1.81-.27-3.44 1.19-4.34 2.79a22.51 22.51 0 0 1 -2.6 3.42c-.68.89-2.14 1.52-2.75.58a2 2 0 0 1 -.21-1.16c0-1.35.69-1.49.18-2.58s-1.16.26-1.45.79-.38 1.14-.65 1.67c-.68 1.35-2.29 1.89-3.74 2.31a1.46 1.46 0 0 1 -1.21 0c-.27-.18-.39-.5-.59-.75a1.92 1.92 0 0 0 -2-.5 6.6 6.6 0 0 0 -1.87 1 25.62 25.62 0 0 1 -8.17 3.49l.42-3c-1.19.41-1.81 1.67-2.41 2.78s-1.51 2.28-2.77 2.27a6.22 6.22 0 0 1 -1.34-.26 10.3 10.3 0 0 0 -4.44.25c-2.59.53-4.47 4-6.14 4.21s-3 1.14-3 1.38c.06.71 3.29-.14 4 0a66.43 66.43 0 0 0 38.9-4.64c3.14-1.41 6.16-3.05 9.29-4.46a72.26 72.26 0 0 0 7.33-3.48c1.69-1 3.42-2.27 5.38-2.13.67 0 1.43.23 1.94-.2a2 2 0 0 0 .52-.92c1.45-4.2 2.92-8.66 2-13-.14-.66-.72-1.48-1.3-1.12a1.08 1.08 0 0 0 -.38.76c-.27 1.6-.11 3.3-.72 4.8s-2.5 2.7-3.87 1.82a5.78 5.78 0 0 0 -1-.67c-1.82-.67-2.66 2.76-4.43 2.14 0-1.29.39-2.47-.45-3.56-.3-.4-1.35-1.48-1.93-1s0 2.32-.83 3.13c-1.01 1.02-2.18 1.38-2.71 2.91z" fill="#5e3434"/></g><path d="m52.54 121.44c4 1 10.43-2.3 14.18-3.55l1.36-.42-1.08-2.8c-4.17 1.43-12.31 3.38-14.46 6.77z" fill="#0c4f60"/><g fill="#5e3434"><path d="m128.88 102.61c.09.29.32.64.61.56s.31-.37.32-.62a8.23 8.23 0 0 0 -.22-1.91 67.43 67.43 0 0 0 -1.77-7.43c-.34-1.07-.87-3.45-1.82-1.55a4.61 4.61 0 0 0 .3 4.31 12.26 12.26 0 0 1 1.75 3.17c.32 1.14.45 2.34.83 3.47z"/><path d="m83.8 113.91a15.79 15.79 0 0 0 .23 2.18 8.34 8.34 0 0 0 1.3 2.64 1.47 1.47 0 0 0 .36-1.3 41.57 41.57 0 0 0 -.8-5.43c-.14-.73-.86-4.68-1.86-3.69s.68 4.56.77 5.6z"/><path d="m80 121c0 .37 0 .85.38 1s.64-.23.7-.57a8.47 8.47 0 0 0 0-1c.07-.71.63-1.28.8-2 .23-.91-.41-2.4-1.33-1.34-.55.65-.47 2.98-.55 3.91z"/><path d="m102.28 102a1.12 1.12 0 0 1 .06.51 2.23 2.23 0 0 1 -.31.54 2 2 0 0 0 0 1.39 12.77 12.77 0 0 0 .84 3c.34.73.81 1.4 1.08 2.16a6.3 6.3 0 0 1 .28 2.52 3.49 3.49 0 0 0 .06 1.25 1 1 0 0 0 .91.74c.76-2.76-.11-5.67-.39-8.52a21.48 21.48 0 0 0 -.33-2.89c-.39-1.71-1.4-3.22-2-4.89-.49-1.44-.66-3-1.23-4.39-.09-.23-.23-.48-.47-.53-1.27-.25-.26 3.53-.13 4 .44 1.74 1.13 3.4 1.63 5.11z"/><path d="m122 87a.33.33 0 0 0 .27-.11.48.48 0 0 0 0-.41 6.16 6.16 0 0 1 -.15-1.6 2.62 2.62 0 0 0 -.11-1.15c-.52-1.13-2-1-1.48.34a7.58 7.58 0 0 1 .54 1.67c.08.51.24 1.26.93 1.26z"/></g><path d="m70.33 111.84c.77 0-.12-4.69-.62-7a1 1 0 0 1 .06-.79 1.33 1.33 0 0 1 .51-.35c1-.52 1.38-1.65 1.9-2.62a1.24 1.24 0 0 1 .44-.52c.51-.3 1.12.17 1.46.65s.74 1.06 1.32 1.06 1-.56 1.11-1.11a15.18 15.18 0 0 1 .31-1.66c.36-1 1.48-1.86 1.06-2.81s-9.58 4-10.55 4.85c-1.4 1.18-.62 2.09.19 3.38 1.31 2.08 2.03 6.97 2.81 6.92z" fill="#ceaa94"/><path d="m103.87 90.52a5.14 5.14 0 0 0 .31 2.08c.4 1.4.89 2.92 2.1 3.75l.24-4c0-.71.19-1.57.85-1.84a7.35 7.35 0 0 1 1.16-.13c1.24-.26 1.52-2 2.59-2.65.91-.55 2.11-.21 3.1-.58s1.7-1.24 2.59-.92 1.12 1.8 2.09 2a5.75 5.75 0 0 0 0-2.37 2.38 2.38 0 0 0 -1.45-1.75 3.26 3.26 0 0 0 -2.33.37c-1.89.86-3.76 2.11-5.83 1.93a6.43 6.43 0 0 0 -1.45-.09c-.71.11-1.74 1.35-2.36 1.82a3.77 3.77 0 0 0 -1.61 2.38z" fill="#ceaa94"/><path d="m127.39 85.78a3.48 3.48 0 0 0 .51 2.22.42.42 0 0 0 .22.15c.18 0 .33-.13.42-.28a18.8 18.8 0 0 0 1.19-2.81c.28-.64 1.29-1.64 1.07-2.32-.44-1.38-3.16-.87-4.17-.7-.5.09-2.28.27-2 1 .17.46 1.71.41 2.11.74a2.55 2.55 0 0 1 .65 2z" fill="#ceaa94"/><path d="m86.27 94.33c-.12.08-.25.19-.23.32s.13.21.25.26c.83.38 1.88.28 2.59.86a4.45 4.45 0 0 1 1 1.55 1.86 1.86 0 0 0 1.34 1.15 1.45 1.45 0 0 0 1.38-1.11 3.83 3.83 0 0 0 -.06-1.9 2.66 2.66 0 0 1 -.1-1c.13-.91 1.16-1.53 1.21-2.45a.4.4 0 0 0 0-.22.29.29 0 0 0 -.2-.09 1.58 1.58 0 0 0 -1.3.73 2.48 2.48 0 0 1 -1.17 1 22.17 22.17 0 0 1 -2.3 0 6 6 0 0 0 -2.41.9z" fill="#ceaa94"/><path d="m197.06 117.2a4.4 4.4 0 0 0 -2.67-.2c-7 .92-69.78 9.38-76.66 10.77l-.74.13.63 2.94c12.16-1.63 63.23-8.61 67.28-9.27 2.38-.39 11.27-.44 12.81-2.11a1.55 1.55 0 0 0 -.65-2.26z" fill="#0c4f60"/><path d="m172.76 102.18c1.92-.58 3.87-1.1 5.82-1.55a.71.71 0 0 1 .59 0 .74.74 0 0 1 .24.45c1.45 6 2.41 12.06 4.57 17.8.64 1.69 1.38 3.35 1.85 5.09.39 1.47.59 3 .88 4.47a48.49 48.49 0 0 0 1.67 6.06 5.79 5.79 0 0 1 -4.46 7.54l-9 1.64a2.64 2.64 0 0 1 -1 0 2 2 0 0 1 -.93-.55 7.76 7.76 0 0 1 -2.32-3.83c-2.81-10.44-3.9-21.24-4.44-32a4.15 4.15 0 0 1 .11-1.45c.51-1.47 2.42-1.79 3.65-2.75z" fill="#ffce06"/><path d="m177.7 126.64c.1 1 .2 2 .33 3 .37.1.55-.43.56-.82l.12-8.43 1.92 12.73c.06.38.29.88.66.77q-.73-11.22-1.8-22.39c-1.21 1-.22 3.09-1.07 4.39l-1-7a7.14 7.14 0 0 0 -.56-2.19c-1.55 2.61-.45 6.57-.17 9.39z" fill="#fee578"/><g clip-path="url(#d)"><path d="m159.52 116.33a21.72 21.72 0 0 1 5.13-12.64 8.88 8.88 0 0 1 2.19-2 4.12 4.12 0 0 1 2.84-.56c1.72.35 2.23 1.79 2.27 3.33.06 1.9 0 3.8-.14 5.7-.21 3.76-.48 7.58.32 11.3l1.09-12a2.74 2.74 0 0 1 .79-2 92.73 92.73 0 0 0 -.28 15.45c.42-2.86-.1-9 .71-8.64s.54 10.92.81 16.38a13.53 13.53 0 0 1 -.14 3.54c-.18.85-.53 1.66-.68 2.51-.45 2.64 1 5.25 1 7.93a1 1 0 0 1 -.1.52 1 1 0 0 1 -.47.35 24.6 24.6 0 0 1 -2.89.56 17.63 17.63 0 0 0 -2.23 1 3 3 0 0 1 -2.37.2 3.37 3.37 0 0 1 -1.6-2c-1.55-3.81-1.4-8.07-1.05-12.16a47.3 47.3 0 0 1 2.71-13.46" fill="#edc107"/></g><path d="m174.46 129c0 1.6 0 3.2.08 4.8 0 .09 0 .19.09.23s.21-.05.27-.14a4.4 4.4 0 0 0 .57-2.27q.14-1.83.24-3.66l.09-1.84c0-.43.26-1.38.06-1.77-.57-1.1-1.11 1.13-1.19 1.55a17 17 0 0 0 -.21 3.1z" fill="#fee578"/><path d="m182.94 125.54a46.67 46.67 0 0 0 1.41 8.47c.35-.21.32-.71.28-1.12s.09-.95.5-1a52.91 52.91 0 0 0 -1.38-8.85 1.77 1.77 0 0 0 -.69-1.19 5 5 0 0 0 -.34 2.61" fill="#fee578"/><path d="m155.33 115.67a46.78 46.78 0 0 1 2.24-5.79c1.63-3.73 3.29-7.51 5.85-10.67a17.59 17.59 0 0 1 5.94-4.84 2.57 2.57 0 0 1 3.62 3c-1 3.38-2.8 6.6-3.79 10-1.36 4.67-1.17 9.63-1 14.49a30.11 30.11 0 0 0 .68 6.07 29.43 29.43 0 0 0 1.91 5l3.11 6.83a4.05 4.05 0 0 1 .52 2 3.51 3.51 0 0 1 -.39 1.17 12.61 12.61 0 0 1 -8.46 6.68 3 3 0 0 1 -1.16.08 3 3 0 0 1 -1.4-.82 11.92 11.92 0 0 1 -3.28-5.24 100.17 100.17 0 0 1 -4.2-23.63" fill="#ec2044"/><g clip-path="url(#e)"><path d="m160.84 99.57-2.14 12a2.44 2.44 0 0 0 .1 1.71 3.62 3.62 0 0 0 .82.79c1.58 1.32 2 3.52 2.31 5.56 1.17 8.36 1.33 17 4.06 25 1.1 3.2 2.62 6.54 1.85 9.84a7.56 7.56 0 0 1 -4.74 5.31 5.85 5.85 0 0 1 -4.41-.09c-2.31-1.09-3.34-3.77-4.06-6.22a105.1 105.1 0 0 1 -3.76-39.16c.57-6.06 1.86-12.46 6.09-16.84" fill="#ce1d43"/></g><path d="m199.16 103c4.12-3.46 10.82-3.62 14.74 0 2.79 2.62 3.87 6.56 4.54 10.33.48 2.71.81 5.44 1.11 8.17a12.27 12.27 0 0 1 -.06 4.4 7.8 7.8 0 0 1 -2.32 3.68c-4.37 4.09-11.43 3.68-16.89 1.23a7.91 7.91 0 0 1 -3.17-2.24 9.17 9.17 0 0 1 -1.37-3.66l-1-4.48c-.22-1-.24-2.37.74-2.69 1.17-.38 2.35-1.47 2.71-.29.72 2.35.28 7 1.78 9 .66.85 2.86 1.74 3.84 2.2a6.14 6.14 0 0 0 2.86.36 24.92 24.92 0 0 0 7.76-1.74 4.16 4.16 0 0 0 1.67-1.06c.78-.93.66-2.29.49-3.49a107.81 107.81 0 0 0 -2.2-10.84 13.39 13.39 0 0 0 -1.85-4.58c-2.23-3.11-7-3.9-10.29-2a9.76 9.76 0 0 0 -4.45 9.84 17.57 17.57 0 0 1 .4 2.78 2.76 2.76 0 0 1 -1.18 2.41 1.55 1.55 0 0 1 -2.26-.82c.85-6.08-1.2-11.8 4.4-16.51z" fill="#0c4f60"/><path d="m152.86 109.72c-1.49-1-3.48.19-5.25 0-.52-.07-1-.26-1.52-.37-3-.6-13.87 1-16.39 1.78a45.87 45.87 0 0 1 -7.09.47c-.9 0-4.21.9-5 1-2.53.14-4.95 2.54-7.48 2.29-4.53-.44-6.14-.14-10.53 1.08-2.39.67-6.33.49-8.47 1.71-1.43.82-3.88.56-4.54 2.06s-4-.59-5.53 4.83c-.45 1.58.62 3.38-.22 4.8a5.93 5.93 0 0 0 -.12 4.9c.54 1.6 1.39 3.1 1.81 4.73.36 1.45.37 3 .76 4.42a7.38 7.38 0 0 0 3.84 4.74c3.74 1.78 8.94.76 13 .2s5.94.36 10.1-.21c1.2-.16 8-1.11 9.23-1.34.74-.15 1.47-.32 2.22-.43a28.19 28.19 0 0 1 3.68-.23 17.24 17.24 0 0 0 6.77-1.19 24.75 24.75 0 0 1 4.63-1.08 14.51 14.51 0 0 1 4.83 0c3.17.39 5.41-1.22 8.56-1.77 3.51-.61 7.59-1.1 9.14-4.3a10 10 0 0 0 .81-4 41.66 41.66 0 0 0 -.83-10.45c-.23-1.08-1-2-.69-3.09a8.43 8.43 0 0 0 .72-2.67c-.09-1.07-1-1.86-1.48-2.82s-.53-2.42-1.25-3.39-2.75-1.05-3.71-1.67z" fill="#935650"/><path d="m86.45 129.8c.18 1.15.17 2.32.44 3.45a21.69 21.69 0 0 0 .82 2.43 23.92 23.92 0 0 1 1.29 5.32 7.66 7.66 0 0 1 -.07 3 3.42 3.42 0 0 1 -1.78 2.3 19.88 19.88 0 0 1 -2.42-7.43 9.8 9.8 0 0 0 -1-4.24c-.43-.68-1-1.21-1.47-1.89a2 2 0 0 1 -.14-2.24c.67.62 1.31 1.27 1.91 1.94.41-.85-.18-1.8-.64-2.62-.56-1-2.52-5.76-.15-5.63 1.9.04 2.98 4.18 3.21 5.61z" fill="#683c3a"/><g clip-path="url(#f)"><path d="m141.44 137.85a2.12 2.12 0 0 1 -.55.8c-.63.46-1.48-.07-2.23-.31-1.74-.55-3.59.63-4.72 2.07a23.56 23.56 0 0 1 -3.11 3c-.82.77-2.37 1.16-2.81.14a1.9 1.9 0 0 1 0-1.18c.24-1.33.91-1.37.59-2.52s-1.2.07-1.56.55-.56 1.06-.91 1.54c-.89 1.23-2.56 1.51-4.06 1.69a1.46 1.46 0 0 1 -1.2-.2 2.69 2.69 0 0 1 -.46-.83 1.91 1.91 0 0 0 -1.85-.8 6.35 6.35 0 0 0 -2 .67 25.72 25.72 0 0 1 -8.62 2.15l.88-2.88c-1.23.22-2 1.37-2.82 2.36s-1.85 2-3.09 1.81a6.59 6.59 0 0 1 -1.28-.48 10.44 10.44 0 0 0 -4.42-.46c-2.65.11-5 3.21-6.73 3.18s-3.19.65-3.21.88c0 .71 3.27.4 3.94.63a66.45 66.45 0 0 0 39.15 1.61c3.32-.89 6.56-2 9.87-2.93a69.63 69.63 0 0 0 7.76-2.34c1.82-.72 3.74-1.7 5.65-1.25.65.15 1.37.46 2 .12a2 2 0 0 0 .65-.83c2.1-3.92 4.26-8.09 4-12.53 0-.67-.48-1.57-1.1-1.31a1.06 1.06 0 0 0 -.5.69c-.52 1.54-.63 3.24-1.48 4.63s-2.89 2.26-4.1 1.17a6 6 0 0 0 -.86-.81c-1.68-.95-3.07 2.3-4.71 1.41.25-1.27.78-2.38.12-3.59-.23-.44-1.1-1.67-1.74-1.32s-.4 2.3-1.32 3c-1.2.87-2.4 1.04-3.17 2.47z" fill="#683c3a"/></g><path d="m69.19 138.26c3.76 1.63 10.66-.6 14.57-1.24l1.4-.2-.62-2.94c-4.34.74-12.69 1.37-15.35 4.38z" fill="#0c4f60"/><path d="m148.21 131.93c0 .31.22.68.52.65s.37-.31.42-.55a8.87 8.87 0 0 0 .08-1.93 67 67 0 0 0 -.56-7.62c-.17-1.1-.31-3.54-1.55-1.82a4.62 4.62 0 0 0 -.39 4.31 11.8 11.8 0 0 1 1.21 3.4c.15 1.19.06 2.38.27 3.56z" fill="#683c3a"/><path d="m101.91 135.91a14.61 14.61 0 0 0 -.11 2.19 8.36 8.36 0 0 0 .85 2.82 1.44 1.44 0 0 0 .57-1.23 41.92 41.92 0 0 0 .07-5.49c0-.74-.11-4.76-1.25-3.94s-.04 4.61-.13 5.65z" fill="#683c3a"/><path d="m97.05 142.29c-.09.36-.11.84.22 1s.67-.13.78-.45a8.37 8.37 0 0 0 .18-1c.18-.69.82-1.16 1.1-1.82.38-.86 0-2.43-1.1-1.53-.72.6-.97 2.91-1.18 3.8z" fill="#683c3a"/><path d="m122.05 127.11a1 1 0 0 1 0 .51c-.07.2-.26.32-.38.49a2 2 0 0 0 -.28 1.35 12.8 12.8 0 0 0 .36 3.09c.22.78.58 1.52.73 2.31a6.35 6.35 0 0 1 -.13 2.53 3.55 3.55 0 0 0 -.15 1.25 1 1 0 0 0 .79.86c1.19-2.6.79-5.61 1-8.47a20 20 0 0 0 .13-2.9c-.11-1.75-.86-3.41-1.16-5.14-.26-1.5-.18-3-.52-4.53 0-.24-.15-.52-.38-.6-1.21-.45-.81 3.44-.76 3.93.12 1.79.53 3.54.75 5.32z" fill="#683c3a"/><path d="m143.88 115.44a.34.34 0 0 0 .28-.07.47.47 0 0 0 .09-.4 7.23 7.23 0 0 1 .11-1.61 2.5 2.5 0 0 0 .07-1.15c-.32-1.2-1.83-1.28-1.51.11a7.17 7.17 0 0 1 .26 1.73c.01.5.04 1.29.7 1.39z" fill="#683c3a"/><path d="m88.94 131.72c.77.08.64-4.65.51-7.06a1 1 0 0 1 .18-.77 1.56 1.56 0 0 1 .57-.26c1-.36 1.63-1.41 2.29-2.28a1.29 1.29 0 0 1 .51-.45c.55-.21 1.08.35 1.35.88s.55 1.16 1.13 1.25 1-.39 1.28-.91a15.16 15.16 0 0 1 .56-1.6c.52-.9 1.76-1.59 1.5-2.6s-10.1 2.46-11.19 3.11c-1.57.94-.94 2-.35 3.37.96 2.28.89 7.25 1.66 7.32z" fill="#ceaa94"/><path d="m125.45 116a5.25 5.25 0 0 0 0 2.09c.18 1.46.42 3 1.48 4l.87-3.88c.16-.69.43-1.51 1.13-1.67a5.76 5.76 0 0 1 1.17.05c1.26-.06 1.81-1.72 3-2.2 1-.41 2.11.12 3.15-.09s1.87-1 2.7-.49.82 1.95 1.75 2.26a5.66 5.66 0 0 0 .43-2.32 2.36 2.36 0 0 0 -1.15-2 3.31 3.31 0 0 0 -2.36 0c-2 .55-4 1.48-6.06 1a5.94 5.94 0 0 0 -1.42-.32c-.72 0-1.94 1.06-2.62 1.42a3.72 3.72 0 0 0 -2.07 2.15z" fill="#ceaa94"/><path d="m149.43 115.08a3.43 3.43 0 0 0 .14 2.29.44.44 0 0 0 .19.19c.17.06.35-.08.47-.21a20.23 20.23 0 0 0 1.61-2.58c.38-.6 1.54-1.42 1.43-2.13-.21-1.43-3-1.36-4-1.35-.5 0-2.29-.1-2.15.66.09.49 1.63.68 2 1.07a2.61 2.61 0 0 1 .31 2.06z" fill="#ceaa94"/><path d="m107.47 117c-.13 0-.27.14-.28.28s.1.22.2.29c.77.51 1.82.58 2.43 1.27a4.68 4.68 0 0 1 .72 1.68 1.84 1.84 0 0 0 1.14 1.34 1.44 1.44 0 0 0 1.54-.87 3.86 3.86 0 0 0 .24-1.88 2.86 2.86 0 0 1 .05-1c.27-.89 1.39-1.33 1.58-2.24a.28.28 0 0 0 0-.22.33.33 0 0 0 -.17-.12 1.6 1.6 0 0 0 -1.41.51 2.49 2.49 0 0 1 -1.31.8 23 23 0 0 1 -2.27-.4 5.9 5.9 0 0 0 -2.46.56z" fill="#ceaa94"/><path d="m101.3 145.56a11.91 11.91 0 0 1 6.6-.21c1 .45-1.59 2-2.45 2.86a80.65 80.65 0 0 1 12.2-2.66c1.1-.15 3-.11 3 .83s-3.65 1.72-5.45 2.62a6.9 6.9 0 0 1 5.52 2.46 1.34 1.34 0 0 1 .41 1c-.09.68-1 .89-1.64.93-4.76.3-9.54.4-14.31.31 1.12.75 2.9 2 2.88 2.82s-3.48.34-5.2.07c-3.11-.47-5.4-1-8.52-.32-1.72.37-3.55 0-3.7-2.17-.24-3.83 7.81-7.45 10.66-8.54z" fill="#67ad39"/><path d="m84.56 145c-.44-.35-1.16-.67-1.49-.21s.28 1.31-.12 1.79a40.25 40.25 0 0 0 -9.53-5.14 2.63 2.63 0 0 0 -1.32-.23.91.91 0 0 0 -.78.94 1.28 1.28 0 0 0 .54.72l3.92 3.27a4.27 4.27 0 0 0 -3.21 2.25 1.26 1.26 0 0 0 -.18.82c.08.4.46.66.82.87a31.18 31.18 0 0 0 9.68 3.69c.78.15 1.69.37 2 1.11a4 4 0 0 0 .28.78 1.46 1.46 0 0 0 1.11.45 7.45 7.45 0 0 0 3.55-.21c3.08-1.22 1.19-3.52 0-5.27a28.17 28.17 0 0 0 -5.27-5.63z" fill="#67ad39"/></svg>