<svg viewBox="0 0 250 250" xmlns="http://www.w3.org/2000/svg" xmlns:xlink="http://www.w3.org/1999/xlink"><clipPath id="a"><path d="m64.35 135.6c9.42 8.8 24.83 15.47 39.59 18.88s29 3.93 42.47 3.65c17.87-.38 35-2.15 49.14-6.57s25.31-11.61 29.92-21.48a19.72 19.72 0 0 0 2-8.14c.19-13.81-17.89-31.38-41.33-40.18-20.46-7.67-41.84-8.46-60.25-7.05-14.73 1.13-28.63 3.51-39.72 8.13-11.8 4.9-19.17 13.16-27.17 20.31-8.22 7.4-6.38 21.48 5.35 32.45z"/></clipPath><clipPath id="b"><path d="m136 99.36a2.73 2.73 0 0 0 2.1.33 17.51 17.51 0 0 0 2.09-.67c4.5-1.45 9.52.45 14.09-.75a6.77 6.77 0 0 0 4.08-2.69 4 4 0 0 0 -.16-4.65 6.4 6.4 0 0 0 -2.2-1.39 12.37 12.37 0 0 0 -2.84-1 12 12 0 0 0 -3.92.09c-1.69.22-3.38.47-5.06.75a8.83 8.83 0 0 0 -4.69 1.86c-1.59 1.11-3.28 2.35-3.87 4.2-.37 1.01-.69 3.18.38 3.92z"/></clipPath><clipPath id="c"><path d="m125 132.59a10.74 10.74 0 0 1 2.57 2 8.16 8.16 0 0 1 1.53 3.41 18.85 18.85 0 0 1 .51 5.5 2.27 2.27 0 0 1 -.29 1.18 2.23 2.23 0 0 1 -1.1.74 32.56 32.56 0 0 1 -9.1 1.77 18.89 18.89 0 0 1 -5.31 0 11.89 11.89 0 0 1 -7.6-5.63 23.32 23.32 0 0 1 -2.93-9.21c-.33-2.52-.49-10.5.79-13.94a56.25 56.25 0 0 1 6.35 3.53c2.24 1.79 4.5 3.56 6.8 5.27 2.53 1.89 5.1 3.69 7.78 5.38z"/></clipPath><clipPath id="d"><path d="m122.24 121.31a11.37 11.37 0 0 0 9.65 9.53 6.94 6.94 0 0 1 2.36.48 5.33 5.33 0 0 1 2.06 2.77c1.21 2.75 3.21 8.26 3.63 8.26s-1.15-5.66-1-8.54a10.24 10.24 0 0 1 1-4.51c.5-1 1.25-1.77 1.82-2.7a13.14 13.14 0 0 0 1.49-3.8c.74-3 .89-6.35-.5-9.14a9.12 9.12 0 0 0 -5.4-4.6c-7.77-2.39-16.19 4.07-15.11 12.25z"/></clipPath><clipPath id="e"><path d="m158.41 133.52a19 19 0 0 1 -16.22 2.84c-.86-.24-1.87-.75-1.85-1.64a1.52 1.52 0 0 1 .95-1.24 9.27 9.27 0 0 1 1.58-.46 11.47 11.47 0 0 0 2.23-.94c2.56-1.32 5.11-2.84 6.81-5.16 1.58-2.15 2.28-4.8 3.47-7.18a19.27 19.27 0 0 1 2.6-3.91 5.11 5.11 0 0 1 1.52-1.3 4.42 4.42 0 0 1 1.6-.35 6.5 6.5 0 0 1 4.14 1.13c3.33 2.43 1.62 5.65.26 8.63a24.33 24.33 0 0 1 -7.09 9.58z"/></clipPath><clipPath id="f"><path d="m178.59 158c-20.57 6-21.12 3.6-42.39 6.26 4.48-3.81 10.23-5.7 15.76-7.68 9.34-3.35 23.62-15.54 32.4-19.13 5.29-2.16 11.84-.74 12 6.2.26 8.63-11.21 12.35-17.77 14.35z"/></clipPath><path d="m69.63 131.65c6.88-6.05 16.43-9.1 25.91-11.12 37.21-8 78.16-2.21 111.25 15.57 4.34 2.34 8.85 5.2 10.39 9.47a13.81 13.81 0 0 1 -.06 8.15 34.18 34.18 0 0 1 -15.47 20.28 56.18 56.18 0 0 1 -14.47 5.92c-28.23 7.72-59.16 2-87.34-6.75-10.71-3.31-28.22-7.15-35.63-15.54-6.72-7.63-1.21-20.1 5.42-25.98z" fill="#efefef"/><path d="m30.06 82.66c-2.77-1.93-5.63-4.07-6.94-7.18s-.36-7.43 2.79-8.64 6.33 1 8.91 3q18.09 14.26 36.18 28.5c1.74 1.37 5.75 3.11 4.27 5.63s-5.26.54-7.14-.25a194.07 194.07 0 0 1 -18.71-9 214.51 214.51 0 0 1 -19.36-12.06z" fill="#003d32"/><path d="m37.61 132.7c-2.89-1.13-5.87-2.41-7.24-4.58s-.38-5.45 2.92-6.69 6.61 0 9.31 1.28l37.79 17.22c1.81.83 6 1.68 4.45 3.71s-5.49 1-7.46.58c-6.68-1.29-13.19-2.88-19.54-4.7q-10.44-2.98-20.23-6.82z" fill="#efefef"/><path d="m64.35 135.6c9.42 8.8 24.83 15.47 39.59 18.88s29 3.93 42.47 3.65c17.87-.38 35-2.15 49.14-6.57s25.31-11.61 29.92-21.48a19.72 19.72 0 0 0 2-8.14c.19-13.81-17.89-31.38-41.33-40.18-20.46-7.67-41.84-8.46-60.25-7.05-14.73 1.13-28.63 3.51-39.72 8.13-11.8 4.9-19.17 13.16-27.17 20.31-8.22 7.4-6.38 21.48 5.35 32.45z" fill="#89cfbb"/><path d="m71 144.43a9.68 9.68 0 0 1 -.15-1.7 2.88 2.88 0 0 1 .37-1.56c.63-.93 2-.95 3.07-.79a22.85 22.85 0 0 1 11 4.79 12.39 12.39 0 0 0 3.7 2.48 29.12 29.12 0 0 0 3.1.55 3.3 3.3 0 0 1 2.5 1.7 1.31 1.31 0 0 1 0 1.11 1.89 1.89 0 0 1 -.53.56 12.86 12.86 0 0 1 -4.87 2.54 11.49 11.49 0 0 1 -7.32-1 33.68 33.68 0 0 1 -6.25-4.11 5.2 5.2 0 0 1 -2.25-2.79" fill="#507569"/><g clip-path="url(#a)"><path d="m74.85 113.45c6.84-6.81 16.29-10.28 25.66-12.62a146.42 146.42 0 0 1 109.62 16.38c4.27 2.57 8.68 5.72 10.17 10.47a17.28 17.28 0 0 1 -.13 9.08 38.82 38.82 0 0 1 -15.44 22.7 53.38 53.38 0 0 1 -14.33 6.73c-27.93 8.86-58.39 2.73-86.11-6.75-10.54-3.61-27.78-7.74-35-17-6.58-8.44-1.08-22.37 5.56-28.99z" fill="#639384"/></g><path d="m181.69 116.51a2.68 2.68 0 0 0 1.12.39 3.15 3.15 0 0 0 1.13-.22l2.85-1a.68.68 0 0 0 .38-.23.62.62 0 0 0 0-.59c-.41-1-1.45-1.54-2.1-2.39-.43-.56-.68-1.24-1.1-1.8a1.84 1.84 0 0 0 -1.78-.88 1.94 1.94 0 0 1 -.48.09 1.1 1.1 0 0 1 -.48-.19 13.93 13.93 0 0 0 -2.05-1c-.41-.16-.95-.29-1.26 0s-.14.82-.38 1.14-.87.42-1.2.83a2.34 2.34 0 0 0 0 2.63c.47.61 1.41.83 2.06 1.18 1.13.68 2.15 1.45 3.29 2.04z" fill="#e59f13"/><g fill="#507569"><path d="m132.1 154.55 9-4.07c.63-.28.12-2.59.8-2.64s2.57 2.2 3 2.77a18.11 18.11 0 0 0 -3 5.21 6 6 0 0 1 -.81 1.67 4.67 4.67 0 0 1 -2 1.24 49.81 49.81 0 0 1 -13.49 3.14 28.06 28.06 0 0 1 -8.68-.1c-3.2-.65-6.16-2.25-9.38-2.83-1.64-.29-3.39-.35-4.76-1.29-.47-.31-.9-.86-.72-1.39a1.32 1.32 0 0 1 .3-.44c1-1 2.52-1 3.9-1 7.34.29 14.74 1.79 22 .44a58 58 0 0 0 8.14-2.4"/><path d="m151.1 148.69-9.1-1.33a1.63 1.63 0 0 0 -1.14.12c-.5.35-.23 1.05.13 1.51 2.63 3.49 7.3 5.35 11.74 7 2.29.85 4.8 1.7 7.22 1.15a5 5 0 0 0 2-.91 3.76 3.76 0 0 0 .24-5.29 9.94 9.94 0 0 0 -5.59-2.95"/><path d="m123.26 125.52a8 8 0 0 0 -2.75 1.61.71.71 0 0 0 -.22.3.65.65 0 0 0 .06.41 6.37 6.37 0 0 0 2.21 2.72 18 18 0 0 0 3.09 1.74 8.24 8.24 0 0 0 2.48.87c.71.09 1.43 0 2.14.1a3.94 3.94 0 0 1 1.78.77c1.09.86 1.67 2.26 2.78 3.11.6.46 1.34.73 1.94 1.19s1.06 1.14 1.63 1.67c.14.12.37.21.46.06a.31.31 0 0 0 0-.19 53.52 53.52 0 0 0 -1.83-9.37 7.37 7.37 0 0 0 -1.2-2.64c-1.14-1.41-3-1.88-4.73-2.51-.89-.33-1.75-.73-2.66-1a5.1 5.1 0 0 0 -2.79-.11"/><path d="m105.28 129.29a9.93 9.93 0 0 0 -3.17.46 3.34 3.34 0 0 0 -2.17 2.2 4.65 4.65 0 0 0 0 1.82 15.31 15.31 0 0 0 1.31 4.45 15.94 15.94 0 0 0 2.55 3.5 26.67 26.67 0 0 0 9.08 6.76c3.55 1.51 7.45 2 11.29 2.39a2.09 2.09 0 0 0 1.19-.1 2.12 2.12 0 0 0 .72-.82c.8-1.33 1.63-2.86 1.21-4.35a5.41 5.41 0 0 0 -1.14-1.89 41.33 41.33 0 0 0 -18.45-12.71"/><path d="m77.22 117.43a25.92 25.92 0 0 0 -4.08 3.37 8.75 8.75 0 0 0 -2.36 4.65 1.42 1.42 0 0 0 .09.87 1.54 1.54 0 0 0 .94.59c1.45.47 2.92.88 4.4 1.24a8.91 8.91 0 0 1 3.2 1.2 17.23 17.23 0 0 1 1.67 1.65 13.82 13.82 0 0 0 2.47 1.89 24.56 24.56 0 0 0 13.62 4.11 15.77 15.77 0 0 0 12.43-6.26c.37-.52.7-1.22.36-1.76a12.08 12.08 0 0 0 8-11.45 1 1 0 0 0 -.25-.75c-.46-.4-1.09.21-1.44.71a17.92 17.92 0 0 1 -2.91 3.06c-4.3 3.86-9 7.91-14.74 8.61a9.64 9.64 0 0 1 -4.4-.38 13.8 13.8 0 0 1 -3.5-2.07q-3.66-2.7-7.16-5.6a11.42 11.42 0 0 0 -3.33-2.18 3.75 3.75 0 0 0 -3.76.52"/><path d="m79.49 114.38a9.05 9.05 0 0 1 2.57-2.7c2.1-1.63 4.3-3.13 6.5-4.63a15.62 15.62 0 0 1 6-2.94 10.33 10.33 0 0 0 2-.37 11.44 11.44 0 0 0 1.62-.95c2.53-1.52 5.83-1.22 8.48.08a23.45 23.45 0 0 1 6.74 5.63 6.88 6.88 0 0 1 1.65 2.46c.6 2-.55 4-.82 6a9.69 9.69 0 0 1 -.31 1.94 1.7 1.7 0 0 1 -1.4 1.22c-.08-.78-.11-1.58-.23-2.36a18.72 18.72 0 0 0 -1.69-4.79 6.67 6.67 0 0 0 -1.42-2.25c-1.33-1.23-3.34-1.19-5.15-1.09a3 3 0 0 0 -2.37.88c-.33.47-.38 1.13-.81 1.52a1.88 1.88 0 0 1 -.79.35 6.84 6.84 0 0 1 -3.93-.51c-1.24-.5-2.39-1.21-3.59-1.8a3.62 3.62 0 0 0 -1.9-.51 3.91 3.91 0 0 0 -1.42.51l-3.36 1.73a2.53 2.53 0 0 0 -1.47 1.36c-.35 1.26 1.27 2.2 1.57 3.48a3.5 3.5 0 0 1 -.84 2.65 3 3 0 0 1 -.69.76 2.21 2.21 0 0 1 -1.66.18c-2.58-.57-4.66-3.23-3.28-5.85z"/><path d="m87.85 119.85a1.83 1.83 0 0 0 1 1.26 4.62 4.62 0 0 0 1.55.5c2.64.53 5.5.78 7.92-.4.37-.19.79-.56.63-.95a.85.85 0 0 0 -.26-.31 10.67 10.67 0 0 0 -6.12-2.39c-1.49-.09-5.03.11-4.72 2.29z"/><path d="m148.17 118.8a6.6 6.6 0 0 0 3.83-1.8c.24-.24.47-.62.27-.9a.8.8 0 0 0 -.37-.24 10.66 10.66 0 0 0 -5.87-.37 4.09 4.09 0 0 0 -1.65.89c-.31.25-.93.64-1 1.07s.52.72.93.87a8.43 8.43 0 0 0 3.86.48z"/><path d="m151 106.52c.18 1.44.5 3.09 1.77 3.79a6.42 6.42 0 0 0 1.38.47 21.78 21.78 0 0 1 3 1.33c2.65 1.27 5.51 2 8.23 3.17 1.89.77 3.71 1.71 5.59 2.51a42.06 42.06 0 0 0 12.44 3.14 7.8 7.8 0 0 0 3-.13 1.11 1.11 0 0 0 .49-.26 1 1 0 0 0 .2-.83 3.45 3.45 0 0 0 -2.06-2.48 12.68 12.68 0 0 0 -3.25-.8 67.65 67.65 0 0 1 -10.88-3.06c-2.77-1-5.53-1.92-8.26-3a67.22 67.22 0 0 0 -7-2.7 30.4 30.4 0 0 0 -4.65-1.15z"/><path d="m121.38 108.54a6.1 6.1 0 0 0 -4 2c1 1 2.56 1 4 .84 6.31-.54 12.71-1.1 18.64-3.31 2.28-.85 4.56-2 7-1.9a22.62 22.62 0 0 1 5 1.07 43.63 43.63 0 0 0 9.89.91h3a63.58 63.58 0 0 0 8.51-.24 66 66 0 0 0 7.11-1.34 2.26 2.26 0 0 0 1.22-.56 1.5 1.5 0 0 0 -.34-2 4.09 4.09 0 0 0 -2.14-.75 117.84 117.84 0 0 0 -14.68-.91 110.46 110.46 0 0 0 -11.07.13 111.91 111.91 0 0 0 -11.08 1.58c-6.29 1.12-12.57 2.23-18.84 3.42"/></g><path d="m172.09 120.55a31.8 31.8 0 0 0 -3.18 1.46c-4.68 1.85-11.27-1.06-17.09-1.4a2.7 2.7 0 0 0 -1.42.18c-1.08.65.89 2 .74 3s-2.38 1.14-4 .88a73.74 73.74 0 0 1 -9.57-2.19c-2.66-.8-5.6-2-6.3-3.91-.82-2.17 2.07-3.93 5.19-4.12s6.4.68 9.59 1.29 6.76.93 9.2-.23c1.89-.9 2.85-2.6 5.07-3.13 1.82-.44 4 0 6 .47 4.76 1.06 17.71 2.48 20 6.59 2.35 4.47-11.45.37-14.23 1.11z" fill="#ffc513"/><path d="m152.34 106.75a6.54 6.54 0 0 0 -3.24-1.1 2.62 2.62 0 0 0 -1.73.41 1.85 1.85 0 0 0 -.7 1.83 1.8 1.8 0 0 0 1.45 1.16 8.48 8.48 0 0 0 3.72.09 1.64 1.64 0 0 0 1.27-.79c.26-.51-.39-1.31-.77-1.6" fill="#ffc513"/><path d="m132.53 96.12a16.35 16.35 0 0 0 -6.26.65.38.38 0 0 0 -.21.13.32.32 0 0 0 0 .17 3.65 3.65 0 0 0 2.2 2.79 12.76 12.76 0 0 0 2.46.49c1.41.26 2.73.88 4.13 1.22a21.32 21.32 0 0 0 5.81.33l8.07-.26a3.92 3.92 0 0 0 1.41-.21 1.24 1.24 0 0 0 .38-2.22 3.64 3.64 0 0 0 -1.23-.61c-4-1.37-8.34-1.72-12.6-2.07" fill="#507569"/><path d="m142.05 135.31a3.69 3.69 0 0 0 -1.82.61.49.49 0 0 0 -.23.28.42.42 0 0 0 .12.3c.61.78 1.72.87 2.7 1 1.89.25 3.74.86 5.65.95a16.09 16.09 0 0 0 6.54-1.27c2.09-.8 4.09-1.82 6.18-2.62a9.33 9.33 0 0 0 2.85-1.44 8.13 8.13 0 0 0 1.28-1.58l2.5-3.68a5.69 5.69 0 0 0 .83-1.58 2.59 2.59 0 0 0 -2.08-3.16 4.36 4.36 0 0 0 -2 .42 37.14 37.14 0 0 0 -8.18 4.47c-2 1.48-4 3.17-6.13 4.45a19.23 19.23 0 0 1 -6.6 2.38" fill="#507569"/><path d="m170.34 134a39.19 39.19 0 0 0 -8.25 5.42 1 1 0 0 0 -.44.61 1.05 1.05 0 0 0 .26.7 6.31 6.31 0 0 0 3.89 2.46c1.77.33 3.59-.12 5.39-.11 1.19 0 2.37.2 3.56.23 3.49.06 6.78-1.42 10.15-2.34 2.13-.58 4.32-.94 6.44-1.56a14.73 14.73 0 0 0 5.87-3 2.48 2.48 0 0 0 1-2.26 2.74 2.74 0 0 0 -1.45-1.51l-3.31-2a7.72 7.72 0 0 0 -1.7-.85 6.81 6.81 0 0 0 -2.11-.24 38.78 38.78 0 0 0 -17.45 4.16" fill="#507569"/><path d="m189.14 126.09a4.42 4.42 0 0 1 .94-1.4c1.53-1.51 4-1.71 6.07-1.17a39 39 0 0 1 5.92 2.55 24.34 24.34 0 0 0 7.86 2 15.19 15.19 0 0 1 3.08.39 3.64 3.64 0 0 1 2.38 1.83 1.55 1.55 0 0 1 .14 1 2 2 0 0 1 -.89 1.07c-2.42 1.72-5.41 2.36-8.27 3.12-2.7.71-5.49 1.56-8.23 1.06a14.52 14.52 0 0 1 -4.35-1.76 12.94 12.94 0 0 1 -3.5-2.62 5.37 5.37 0 0 1 -1.44-4 7.89 7.89 0 0 1 1.53-3.39" fill="#507569"/><path d="m175.36 153c4.51-3.41 10-5.28 15.45-6.7s11.06-2.46 16.36-4.44a16.33 16.33 0 0 1 5.3-1.44.63.63 0 0 1 .52.17c.14.19 0 .46-.09.66a34.94 34.94 0 0 1 -19.13 16c-5.1 1.73-10.51 2.24-15.82 3.11-9.95 1.64-20.17 4.54-29.92 2-.35-.1-.75-.24-.86-.59a.93.93 0 0 1 .13-.72 5.07 5.07 0 0 1 2.79-1.94 235.39 235.39 0 0 1 22.91-7.71" fill="#507569"/><path d="m28.05 73a4.59 4.59 0 0 0 1.65 1.4l2.3 1.41c.79.48 1.8 1 2.59.47a.86.86 0 0 0 .4-.5 1.37 1.37 0 0 0 -.09-.72 6.11 6.11 0 0 0 -1.79-3.14c-.43-.32-.94-.51-1.39-.8a12 12 0 0 0 -1.13-.72c-1.78-.82-3.59.8-2.54 2.6z" fill="#639384"/><path d="m139.12 100.08c-4.63-.48-9-2.38-13.08-4.62a18.15 18.15 0 0 1 -4.51-3.19 7.25 7.25 0 0 1 -2.16-5l5.8.34a2 2 0 0 0 1-.14c.61-.34.66-1.18 1-1.78a2.46 2.46 0 0 1 2.2-1.07 7.2 7.2 0 0 1 2.48.63c3.66 1.43 7.48 3.07 9.86 6.21a4.67 4.67 0 0 0 1.1 1.2 7.61 7.61 0 0 0 1.77.56 7.8 7.8 0 0 1 2.57 1.58l3.44 2.78c.67.54 1.4 1.21 1.38 2.07-4.24-.21-8.5.88-12.85.43z" fill="#519600"/><path d="m136 99.36a2.73 2.73 0 0 0 2.1.33 17.51 17.51 0 0 0 2.09-.67c4.5-1.45 9.52.45 14.09-.75a6.77 6.77 0 0 0 4.08-2.69 4 4 0 0 0 -.16-4.65 6.4 6.4 0 0 0 -2.2-1.39 12.37 12.37 0 0 0 -2.84-1 12 12 0 0 0 -3.92.09c-1.69.22-3.38.47-5.06.75a8.83 8.83 0 0 0 -4.69 1.86c-1.59 1.11-3.28 2.35-3.87 4.2-.37 1.01-.69 3.18.38 3.92z" fill="#ec2044"/><g clip-path="url(#b)" fill="#c11e49"><path d="m133.61 98.52c2.66.09 5.17-1.12 7.79-1.56 4-.66 8.06.48 12 0a3.91 3.91 0 0 0 1.86-.61 4.7 4.7 0 0 0 1.37-2.17l1.9-4.86a.85.85 0 0 1 .17-.31.79.79 0 0 1 .86 0 4.56 4.56 0 0 1 2.44 3.49 9.79 9.79 0 0 1 -.57 4.41 9.18 9.18 0 0 1 -2.26 4 8.88 8.88 0 0 1 -4.57 1.93 19.93 19.93 0 0 1 -9.36-.66 13.56 13.56 0 0 0 -2.14-.58 3 3 0 0 0 -2.1.4c-.74.54-1.09 1.53-1.88 2a3.21 3.21 0 0 1 -1.76.28 10.81 10.81 0 0 1 -6.31-2.58"/><path d="m152.23 92.38c.84-1.83 1.82-3.58 2.8-5.34.32.35.11.91-.1 1.33a72.13 72.13 0 0 0 -3.15 7.21 3.29 3.29 0 0 0 -.28 1.14c0 .82.66 1.75.51 2.52a3.16 3.16 0 0 1 -1-2.36 7.73 7.73 0 0 1 .37-2.34 6.07 6.07 0 0 1 .85-2.16z"/><path d="m146.72 94.2a26.29 26.29 0 0 1 2.08-4.66 6.07 6.07 0 0 1 1.66-2.23l-2.27 5.19c-.32.74-.65 1.48-.9 2.24a19 19 0 0 1 -.45 2.29c-.37.74-.6 0-.56-.55a10.45 10.45 0 0 1 .44-2.28z"/><path d="m144.09 89.77a1.79 1.79 0 0 1 .91-1.09 24 24 0 0 1 -1.47 4.51 24.78 24.78 0 0 0 -1 2.32c-.24.73-.16 1.5-.35 2.19-1.63-.49 1.46-6.91 1.91-7.93z"/><path d="m139.1 90.94c.07-.18.29-.39.4-.24a.25.25 0 0 1 0 .17 6.05 6.05 0 0 1 -.34 1.56 25.63 25.63 0 0 0 -1.29 6.57c-1.15.12-.19-3.09-.05-3.73a31.42 31.42 0 0 1 1.28-4.33z"/></g><path d="m141.93 105.66c-3.35.65-6.29 1.86-9.55 2.63a80.93 80.93 0 0 1 -11.79 1.5 2.13 2.13 0 0 1 -1-.09 4.39 4.39 0 0 1 -1.82-1.78 3.88 3.88 0 0 1 -.43-.79c-.28-.9.65-1.16 1.47-1.25l10-1.13c1.27-.15 2.54-.29 3.77-.5 3.08-.53 5.88-1.47 9.24-1.56" fill="#fff5ca"/><path d="m140.88 105.89a94.43 94.43 0 0 1 15.06-1.82c8.93-.35 19.12 1.41 27.19-.25a43.52 43.52 0 0 0 11.27-4.49c-6-1.93-11.18-1.72-16.25-1.33-7.55.58-21.94 2.45-28.7 4-5.51 1.32-3.57 1.83-8.57 3.89z" fill="#360"/><path d="m157.88 99.63c8.27-4.68 16-10.38 18.51-19.7-6 2.39-9.83 7-14 11.25a40.64 40.64 0 0 1 -22.08 11.6l.54 3.11s13.08-4.02 17.03-6.26z" fill="#360"/><path d="m81.19 99.58a1 1 0 0 1 .48.54c.57 1.28-2.51 2.72-1 4.14a1.53 1.53 0 0 0 1.65.16c.54-.22 1-.61 1.52-.88a5.72 5.72 0 0 1 5.31.45 40.68 40.68 0 0 1 4.43 3.33 4.27 4.27 0 0 0 1.69.87 1.72 1.72 0 0 0 1.72-.58c.51-.75.12-1.83.54-2.64a2.65 2.65 0 0 1 2-1.12 11 11 0 0 1 10.47 3.75 17.33 17.33 0 0 1 1.54 2.59c1.28 2.43 2.58 5 2.86 7.68l2.94-6.69-5.07-8.61-7.27-4.57-5.13-.38-9.71.49" fill="#ffa300"/><path d="m112.13 120c-1 .57-2.1.86-3.06 1.46-1.73 1.07-2.77 3-4.35 4.22a14.87 14.87 0 0 1 -6 2.37 9.42 9.42 0 0 1 -3.53.36 9.09 9.09 0 0 1 -4-2.11q-3.7-2.88-7.15-6.08a12.58 12.58 0 0 0 -3-2.33 10.76 10.76 0 0 1 -2.48-1.21 4.78 4.78 0 0 1 -1.33-3.07 19.17 19.17 0 0 1 2.12-10.74 31.34 31.34 0 0 1 1.89-3.28c-.93-.47-2.54.68-3.1 1.15a12.55 12.55 0 0 0 -2.21 2.39 9.68 9.68 0 0 0 -1.93 6.3c.12 1.56.68 3.06.69 4.62a31.75 31.75 0 0 1 -.49 3.73 4.94 4.94 0 0 0 .73 3.6 6.3 6.3 0 0 0 1.48 1.24 13.31 13.31 0 0 0 3 1.63 20 20 0 0 1 3.38 1c1.88 1 2.58 3.34 3.85 5.07a10.21 10.21 0 0 0 7.19 3.88 16.86 16.86 0 0 0 8.21-1.42 9.49 9.49 0 0 0 3.74-2.5c1-1.17 1.44-2.59 2.52-3.66a21.53 21.53 0 0 1 3.92-2.45c3.07-1.93 4.45-5.62 5.64-9.05.39-1.13.64-2.69-.41-3.28a16.06 16.06 0 0 1 -3 6.64c0-.21 0-.42 0-.62a7.54 7.54 0 0 1 -2.32 2.14z" fill="#ffa300"/><path d="m118.58 110.86a14.39 14.39 0 0 0 -1.94-5.55 11.76 11.76 0 0 0 -3.09-3.7c-1.3-1-2.87-1.52-4.08-2.57-1.5-1.31-2.41-3.33-4.22-4.17s-3.62-.3-5.39.17a18.28 18.28 0 0 1 -4.14 1.07c-1.35 0-2.72-.6-4.14-.6a25.88 25.88 0 0 0 -9.77 2.14c-2.56 1.11-5.12 2.87-5.91 5.55-.68 2.31.09 4.8-.19 7.18s-1.72 5.13-.64 7.42c.76 1.61 2.53 2.46 4.24 3s3.53.8 5 1.81c2.29 1.6 3.16 4.6 5.17 6.53a9.82 9.82 0 0 0 8 2.23 25.37 25.37 0 0 0 8.07-2.9 8.83 8.83 0 0 0 3.09-2.21 28.51 28.51 0 0 0 1.61-2.92c1.7-2.8 5.24-4.05 7.06-6.78a8.59 8.59 0 0 0 1.27-5.7zm-4 4.43a4.23 4.23 0 0 1 -6.47 2.89 19.77 19.77 0 0 0 -2.07-1.5 1.68 1.68 0 0 0 -2.24.52 2.23 2.23 0 0 0 -.07 1.12c.12 1 .24 2.08.38 3.12a4.33 4.33 0 0 1 -.31 3 3.38 3.38 0 0 1 -3.34 1.08 20.8 20.8 0 0 0 -3.65-.56 6.84 6.84 0 0 1 -2.51 0c-1.09-.37-1.64-1.62-2.65-2.19-.4-.22-.85-.33-1.24-.57a3.15 3.15 0 0 1 -1.26-2.2c-.16-.85-.12-1.73-.21-2.59a1.63 1.63 0 0 0 -.29-.89c-.44-.54-1.32-.38-1.9 0a10.93 10.93 0 0 1 -1.65 1.26 3.31 3.31 0 0 1 -3.13-.69 6.46 6.46 0 0 1 -2.38-3.09 4.6 4.6 0 0 1 .41-3.85c.58-.9 1.55-1.6 1.82-2.64a7.4 7.4 0 0 0 -.06-2.25c-.13-1.89.89-4.6 2.79-5.37 1.69-.69 4.4.05 5.83 1a13 13 0 0 1 3.56 4c.45.71 1 1.51 1.83 1.6a2.77 2.77 0 0 0 1.58-.48 3.44 3.44 0 0 0 1.2-.93c.64-.91.25-2.2.63-3.24a3.05 3.05 0 0 1 1.77-1.66 8.88 8.88 0 0 1 2.44-.48 5.22 5.22 0 0 1 1.72 0 5 5 0 0 1 2 1.16 21 21 0 0 1 5.11 6.5 37.83 37.83 0 0 1 1.58 3.64 8.37 8.37 0 0 1 .81 4.29z" fill="#ffc513"/><path d="m165.78 105.64a12.62 12.62 0 0 0 5.45 1 11.67 11.67 0 0 0 5.4-1 4.43 4.43 0 0 0 .33-8.14 12.29 12.29 0 0 0 -4.46-1.39c-2.83-.45-7.25-.67-9.24 1.92s-.03 6.35 2.52 7.61z" fill="#af6461"/><path d="m164 102c.13.37.41.79.81.76s.63-.55.7-1c.11-.72.55-4.17-.69-3.67s-1.12 3.03-.82 3.91z" fill="#6b3d3b"/><path d="m173.55 99.09a6.77 6.77 0 0 1 2.53.93c.75.54 1.23 1.37 2 1.94a2.1 2.1 0 0 0 -.3-2.51 5.7 5.7 0 0 0 -2.35-1.45 7.85 7.85 0 0 0 -1.83-.54 7.53 7.53 0 0 0 -1.06 0h-2.43c-.3 0-2-.19-1.23.41a7.15 7.15 0 0 0 2.28.65c.84.19 1.59.39 2.39.57z" fill="#d37676"/><path d="m196.06 112.21c-6.42 1.3-10.94.24-17.48-.35-1.15-.1-4.56-1.7-5.7-1.9-6.94-1.23-14.57-6.56-21.29-8.29.13.93 1.07 1.43 1.2 2.35a1.76 1.76 0 0 0 .18.69 1.72 1.72 0 0 0 .45.48c3.48 2.92 6.94 4 10.91 6.17a40.12 40.12 0 0 0 28.81 3.82" fill="#cc89a7"/><path d="m196.06 112.21a35.22 35.22 0 0 1 -10.56 1.72 43.23 43.23 0 0 1 -9.51-.53 46.21 46.21 0 0 1 -12.6-4.66 102 102 0 0 1 -11.8-7.07 6.66 6.66 0 0 0 1.24 3.56 15.31 15.31 0 0 0 2.8 3.81 14.18 14.18 0 0 0 3.09 2 90.13 90.13 0 0 0 14.28 5.73 38.56 38.56 0 0 0 5.39 1.33 25.57 25.57 0 0 0 14.54-2c1.36-.6 3.13-3.89 3.13-3.89z" fill="#9e1c4c"/><path d="m143.8 113.28a3.86 3.86 0 0 0 .85 3.11 4.15 4.15 0 0 0 3.44 1.45 4 4 0 0 0 3.36-2.46 4.84 4.84 0 0 0 .26-1.89 3.39 3.39 0 0 0 -.67-2 3.48 3.48 0 0 0 -1.08-.82 3.69 3.69 0 0 0 -5.29.91 3.5 3.5 0 0 0 -.87 1.7z" fill="#72c900"/><path d="m169 109.81-17.05 6c-3.11 1.11-6.81 2.14-9.49.22-2.21-1.57-2.83-4.59-2.7-7.29a27.55 27.55 0 0 1 4.24-12.54" fill="none" stroke="#fff" stroke-miterlimit="10" stroke-width="3.21"/><path d="m90.51 115.53a3.86 3.86 0 0 0 .85 3.11 4.15 4.15 0 0 0 3.44 1.45 4 4 0 0 0 3.36-2.47 4.59 4.59 0 0 0 .25-1.88 3.37 3.37 0 0 0 -.66-2 3.45 3.45 0 0 0 -1.08-.81 3.71 3.71 0 0 0 -5.3.91 3.57 3.57 0 0 0 -.86 1.69z" fill="#72c900"/><path d="m190.47 113.92c-.52 3.1.09 4.72.7 7.45a15 15 0 0 0 1.09 3.42 14.51 14.51 0 0 0 3.28 3.93 16 16 0 0 0 3 2.31 11.31 11.31 0 0 0 5.48 1.34 25.62 25.62 0 0 0 5.64-.71 8.16 8.16 0 0 0 2.86-1 8.39 8.39 0 0 0 2.42-2.86 22.5 22.5 0 0 0 1.77-3.87c.28-1-.15-1-.59-1.93a5.19 5.19 0 0 0 -1.67-1.88 12.61 12.61 0 0 0 -3.42-1.86" fill="#c6173d"/><path d="m190.6 113.44a5.73 5.73 0 0 0 1 5.45c4.83 5.77 12.9 8.1 20.4 7.45 2.14-.19 4.62-.83 4.9-3.44a4.74 4.74 0 0 0 -.61-2.75 27.54 27.54 0 0 0 -4.51-6.1 14.77 14.77 0 0 0 -4.26-3.2 15.06 15.06 0 0 0 -4.63-1.2c-4-.48-8.4 0-11.7 2.4a.7.7 0 0 0 -.24.32z" fill="#ff4363"/><path d="m193.57 117.78a19.81 19.81 0 0 0 7.26 4.83 26.14 26.14 0 0 0 8.57 1.71 12.62 12.62 0 0 0 5.08-.63 1.37 1.37 0 0 0 .91-.76 1.46 1.46 0 0 0 -.17-.93 12.1 12.1 0 0 0 -2.09-3.23c-.52-.58-1.08-1.1-1.65-1.63l-3-2.75a13.73 13.73 0 0 0 -1.72-1.43 12.69 12.69 0 0 0 -2.41-1.15 15.94 15.94 0 0 0 -3.5-1 17.94 17.94 0 0 0 -3.11-.05.58.58 0 0 0 -.26.05.37.37 0 0 0 -.06.49 1 1 0 0 0 .45.32 41.62 41.62 0 0 0 3.91 1.6 14.17 14.17 0 0 1 2.25.92 3.86 3.86 0 0 1 1.67 1.72c.55 1.28.07 2.77-.49 4a.73.73 0 0 1 -.27.39.71.71 0 0 1 -.41.06 10.22 10.22 0 0 1 -5.31-2.33 18.18 18.18 0 0 0 -5-3 2.32 2.32 0 0 0 -1.19-.12c-1.75.42-.03 2.26.54 2.92z" fill="#ec2044"/><path d="m201.06 118.46a5.75 5.75 0 0 0 1.15 3.48.56.56 0 0 0 .25.23.55.55 0 0 0 .59-.18 2 2 0 0 0 .2-1.95c-.13-.44-.31-.87-.48-1.29a1.1 1.1 0 0 0 -.54-.68c-.51-.18-1.16-.31-1.17.39z" fill="#ffc513"/><path d="m207.58 116.89a3.56 3.56 0 0 0 1.17 0 1.25 1.25 0 0 0 .94-.64 1.69 1.69 0 0 0 -1-.69 4.29 4.29 0 0 0 -1.24-.13c-.41 0-1.51 0-1.52.61s1.23.79 1.65.85z" fill="#ffc513"/><path d="m200.92 112.89a.45.45 0 0 0 0 .52.61.61 0 0 0 .56 0 3.37 3.37 0 0 0 1.66-1c.19-.21.36-.52.21-.76s-.56-.22-.84-.11a3.43 3.43 0 0 0 -1.59 1.35z" fill="#ffc513"/><path d="m206.43 119.82c-.35-.3-.83-.87-1.25-.5s.82 2.68 1.82 2.56c1.27-.11-.14-1.69-.57-2.06z" fill="#ffc513"/><path d="m166.43 139a6.47 6.47 0 0 0 4.26 3.21 12.84 12.84 0 0 0 5.45 0 25.34 25.34 0 0 0 13.21-6.9 16.51 16.51 0 0 0 4.88-8.5 9.89 9.89 0 0 0 -2.75-9.11 10.2 10.2 0 0 0 -9-1.93 19.6 19.6 0 0 0 -8.26 4.65 28.72 28.72 0 0 0 -8.36 11.83 8.06 8.06 0 0 0 .15 5.68z" fill="#3e6d00"/><path d="m169.87 140a8.43 8.43 0 0 0 3.1-.42 44 44 0 0 0 9.36-4.31 40.85 40.85 0 0 0 5.75-3.71 15 15 0 0 0 4.3-5.24 5.44 5.44 0 0 0 .6-3.22 7.08 7.08 0 0 0 -1.47-2.82 10.64 10.64 0 0 0 -1.91-2.16 7 7 0 0 0 -6.21-.92 16.94 16.94 0 0 0 -3.4 1.51c-1.58.85-3.14 1.73-4.68 2.66a19.18 19.18 0 0 0 -3.73 2.7 18.87 18.87 0 0 0 -3 4.26 20 20 0 0 0 -1.56 3.35 11.73 11.73 0 0 0 -.41 5.64 3.25 3.25 0 0 0 3.26 2.68z" fill="#7acc46"/><path d="m171.45 133.07a2.31 2.31 0 0 0 1.43 1.27 4.63 4.63 0 0 0 3.34-.76l3.88-2a39.52 39.52 0 0 0 4.83-2.82 13 13 0 0 0 3.8-4.05c.34-.59.59-1.41.13-1.92a1.61 1.61 0 0 0 -1.45-.33 12.51 12.51 0 0 0 -1.92.47 39.84 39.84 0 0 0 -11.4 5.06 6 6 0 0 0 -2.23 2.49c-.37.87-.86 1.59-.41 2.59z" fill="#85db4d"/><path d="m178.17 129.24c.07-.2.08-.49-.12-.53a.35.35 0 0 0 -.22 0c-.53.24-2.32 1.5-1.8 2.24.73 1.05 1.97-1.26 2.14-1.71z" fill="#c4e8dd"/><path d="m183.68 130.27c.19-.2 0-.5-.18-.72-.34-.46-1.52-2.62-2-1.13-.29.9 1.64 2.43 2.18 1.85z" fill="#c4e8dd"/><path d="m181.38 126.39a4.36 4.36 0 0 0 1.25-.45c.68-.32 1.42-.72 1.63-1.44a.21.21 0 0 0 0-.11.27.27 0 0 0 -.08-.07 1.32 1.32 0 0 0 -1.05-.07 3.61 3.61 0 0 0 -.95.5 6.89 6.89 0 0 0 -1.36 1c-.26.41.04.72.56.64z" fill="#c4e8dd"/><path d="m173.86 127c-.15-.09-.31-.22-.32-.39s.25-.36.46-.41c.53-.15 2.39-.23 2.33.63-.08 1.1-2.02.43-2.47.17z" fill="#c4e8dd"/><path d="m179.5 122.43a.65.65 0 0 0 -.75 0c-.57.39-1.34 2.07-.13 2 .81 0 1.63-1.43.88-2z" fill="#c4e8dd"/><path d="m167.68 150.19c4.36-10.76 13.95-18.34 21.18-27.42a71.21 71.21 0 0 0 9.28-15.2" fill="none" stroke="#fff" stroke-miterlimit="10" stroke-width="3.21"/><path d="m125 132.59a10.74 10.74 0 0 1 2.57 2 8.16 8.16 0 0 1 1.53 3.41 18.85 18.85 0 0 1 .51 5.5 2.27 2.27 0 0 1 -.29 1.18 2.23 2.23 0 0 1 -1.1.74 32.56 32.56 0 0 1 -9.1 1.77 18.89 18.89 0 0 1 -5.31 0 11.89 11.89 0 0 1 -7.6-5.63 23.32 23.32 0 0 1 -2.93-9.21c-.33-2.52-.49-10.5.79-13.94a56.25 56.25 0 0 1 6.35 3.53c2.24 1.79 4.5 3.56 6.8 5.27 2.53 1.89 5.1 3.69 7.78 5.38z" fill="#519600"/><g clip-path="url(#c)"><path d="m104.13 117.38a99.06 99.06 0 0 0 2 19.12 18.66 18.66 0 0 0 1 3.68 11.24 11.24 0 0 0 3.65 4.49 7.2 7.2 0 0 0 2.33 1.21 6.67 6.67 0 0 0 6.28-2.18 19.5 19.5 0 0 0 3.47-6l3.27-7.58c.11-.26.26-.56.55-.62a.8.8 0 0 1 .43 0 15.82 15.82 0 0 1 5.11 2.47l7.14 29.52-25.36-9.16-13.14-10.84-1.58-27.69" fill="#360"/></g><path d="m109.37 135.89a6 6 0 0 0 -.79 2 4.09 4.09 0 0 0 .23 1.8 7.53 7.53 0 0 0 3.37 4.19.91.91 0 0 0 1.57-.46 19.21 19.21 0 0 0 .91-5.06l.39-4.47a20.53 20.53 0 0 0 .08-4.22c-.1-.85-.3-2.78-1.38-1.64a17.13 17.13 0 0 0 -2 3.51z" fill="#72c900"/><path d="m116.46 142.35c0 .34.07.79.41.82a.61.61 0 0 0 .43-.18 12.77 12.77 0 0 0 2.88-3.67 6.23 6.23 0 0 0 1.16-3.08 5.41 5.41 0 0 0 -1-2.7c-.51-.84-1.08-1.64-1.65-2.45a1.88 1.88 0 0 0 -1-.85c-1.38-.25-1 4.41-1 5.22-.09 2.3-.17 4.6-.23 6.89z" fill="#72c900"/><path d="m111.19 126.3a3.45 3.45 0 0 1 1.94-.43 4.6 4.6 0 0 1 -1.2 2.36c-1.23 1.71-2 3.78-3.41 5.3a1.22 1.22 0 0 1 -.62.4.86.86 0 0 1 -.82-.38 2.21 2.21 0 0 1 -.35-.89c-.21-1-.69-3.92.24-4.68a10.47 10.47 0 0 1 1.91-.68z" fill="#72c900"/><path d="m105.62 125.35a1.16 1.16 0 0 0 .78.8 1.56 1.56 0 0 0 .77 0 14.29 14.29 0 0 0 2.44-.82.94.94 0 0 0 .49-.38c.17-.33-.08-.7-.31-1a5 5 0 0 0 -1.2-1.19c-.67-.41-2.11-1.12-2.79-.4-.53.54-.46 2.32-.18 2.99z" fill="#72c900"/><path d="m75.6 125.06s5.15 13.45 31.6 15.12 21 15.11 21 15.11" fill="none" stroke="#fff" stroke-miterlimit="10" stroke-width="3.21"/><path d="m103.39 91.71a8.45 8.45 0 0 0 -3.54 0 14.78 14.78 0 0 0 -4.72 1.75 2.37 2.37 0 0 0 -1.13 1.11 2.16 2.16 0 0 0 1 2.35 7.17 7.17 0 0 0 4.27 1.29 17.5 17.5 0 0 0 4.47-.7c1.28-.33 3.45-1.2 3.21-2.92-.18-1.45-2.33-2.59-3.56-2.88z" fill="none" stroke="#f22222" stroke-miterlimit="10" stroke-width="2.14"/><path d="m113.56 98.06a34.42 34.42 0 0 1 -5.46-7.27 17.31 17.31 0 0 1 -1.32-12c1.49.78 2.45 2.28 3.76 3.34 1 .84 2.3 1.39 3.36 2.22a14.35 14.35 0 0 1 3.23 3.94 63.21 63.21 0 0 1 4.19 8c1.21 2.81 2.24 5.74 4 8.23 1.25 1.76 3.21 3.32 4.1 5.3.71 1.56-.26 1-1.23.38a63.43 63.43 0 0 1 -9.62-7c-1.76-1.53-3.39-3.33-5.01-5.14z" fill="#3e6d00"/><path d="m121.76 89.66c-1.09-5.67-2-11.67-.11-17.13.42-.19.82.29 1 .7 3 5.84 4.23 12.38 6.14 18.66.79 2.57 1.7 5.21 1.4 7.88-.15 1.26-.56 2.47-.79 3.71a13.38 13.38 0 0 0 .45 6.73c.15.46 1 1.9.53 2.12s-1.39-.91-1.61-1.21c-2.75-3.72-4.14-9-5.27-13.4-.66-2.66-1.22-5.36-1.74-8.06z" fill="#3e6d00"/><path d="m122.24 121.31a11.37 11.37 0 0 0 9.65 9.53 6.94 6.94 0 0 1 2.36.48 5.33 5.33 0 0 1 2.06 2.77c1.21 2.75 3.21 8.26 3.63 8.26s-1.15-5.66-1-8.54a10.24 10.24 0 0 1 1-4.51c.5-1 1.25-1.77 1.82-2.7a13.14 13.14 0 0 0 1.49-3.8c.74-3 .89-6.35-.5-9.14a9.12 9.12 0 0 0 -5.4-4.6c-7.77-2.39-16.19 4.07-15.11 12.25z" fill="#d81e46"/><g clip-path="url(#d)"><path d="m124.8 112.35a24.58 24.58 0 0 0 -.86 5.19 3.57 3.57 0 0 0 .26 1.84 3.42 3.42 0 0 0 1.1 1.14c2.18 1.65 4.79 3.2 5.54 5.83a6.34 6.34 0 0 0 .4 1.28 5 5 0 0 0 .84 1.06c1.53 1.67 2.53 3.82 4.28 5.25 1.56 1.27 3.66 1.94 4.79 3.61a10.22 10.22 0 0 1 1.2 3.95 40.12 40.12 0 0 1 1 5.52 7.16 7.16 0 0 1 -1.55 5.23 6.08 6.08 0 0 1 -5 1.76 10.25 10.25 0 0 1 -5-2.1 22.8 22.8 0 0 1 -6.68-8.69c-1.61-3.33-2.77-6.84-4.26-10.22-1-2.33-2.19-4.6-3-7a15.16 15.16 0 0 1 -.84-7.5 20.68 20.68 0 0 1 1.44-4.32 6.64 6.64 0 0 1 1.22-2.17 3.5 3.5 0 0 1 3.1-1" fill="#c6173d"/></g><path d="m133.73 113.17a12.62 12.62 0 0 0 3.07 2.09 5.27 5.27 0 0 1 1.5.89 4.66 4.66 0 0 1 .8 1.32l1.2 2.63c.17.38.51.84.9.69a.81.81 0 0 0 .41-.55 7.62 7.62 0 0 0 .21-3.52 6.83 6.83 0 0 0 -1.09-2.87 8.21 8.21 0 0 0 -2.1-2 7.8 7.8 0 0 0 -4.76-1.74c-2.2.18-1.22 2.05-.14 3.06z" fill="#ff4363"/><path d="m170.27 112.27a2.27 2.27 0 0 0 -2.33-1.25 2.42 2.42 0 0 0 -1.07.54 4.14 4.14 0 0 0 -1 4.29 1.59 1.59 0 0 1 .07 1.17c-.29.56-1.1.46-1.7.29l-2.05-.58c-.78-.22-1.72-.65-1.71-1.46s.74-1.13 1.26-1.6a10 10 0 0 0 1-1.21 7.85 7.85 0 0 1 4.37-2.61 3.74 3.74 0 0 1 3.49.77 3.42 3.42 0 0 1 .82 2.06 5.83 5.83 0 0 1 -.14 1.95 1 1 0 0 1 -.42.71c-.87.46-.4-.78-.38-1a3.45 3.45 0 0 0 -.21-2.07z" fill="#6b3d3b"/><path d="m158.41 133.52a19 19 0 0 1 -16.22 2.84c-.86-.24-1.87-.75-1.85-1.64a1.52 1.52 0 0 1 .95-1.24 9.27 9.27 0 0 1 1.58-.46 11.47 11.47 0 0 0 2.23-.94c2.56-1.32 5.11-2.84 6.81-5.16 1.58-2.15 2.28-4.8 3.47-7.18a19.27 19.27 0 0 1 2.6-3.91 5.11 5.11 0 0 1 1.52-1.3 4.42 4.42 0 0 1 1.6-.35 6.5 6.5 0 0 1 4.14 1.13c3.33 2.43 1.62 5.65.26 8.63a24.33 24.33 0 0 1 -7.09 9.58z" fill="#f22222"/><g clip-path="url(#e)"><path d="m166.47 116.12-.09-.09a19.44 19.44 0 0 1 -5.58 9.75 30.18 30.18 0 0 0 -3.05 3 25.86 25.86 0 0 1 -2.1 2.88 9.72 9.72 0 0 1 -2.11 1.47 16.26 16.26 0 0 1 -4.36 1.85 18.71 18.71 0 0 1 -4.36.27l-5-.08c-.22.51.39 1 .91 1.21a54.35 54.35 0 0 0 9.24 3.05 16.92 16.92 0 0 0 3.6.53 10.25 10.25 0 0 0 6.23-2c2.57-1.91 4.07-4.88 5.81-7.56s3.64-5 4.6-7.94a3.81 3.81 0 0 0 .26-1.49 4.66 4.66 0 0 0 -.5-1.53c-.55-1.18-1.32-2.52-2.61-2.64l.55-.38" fill="#ce1d43"/></g><path d="m157.92 118.28a60.17 60.17 0 0 0 -3.49 7 7.93 7.93 0 0 1 -1.4 2.49 1.5 1.5 0 0 0 1.18-.34 4.18 4.18 0 0 0 .81-1 29.28 29.28 0 0 0 2.6-4.88 11.57 11.57 0 0 1 .62-1.34 8.94 8.94 0 0 1 1.08-1.39c.6-.67 1.22-1.31 1.85-2 .41-.41.76-.9 0-1.17-1.43-.52-2.67 1.64-3.25 2.63z" fill="#ff6161"/><path d="m145.76 132.93a3.74 3.74 0 0 0 -1.52-.12 3.14 3.14 0 0 0 -1.4.85 11.42 11.42 0 0 0 -2.65 3.65 4.44 4.44 0 0 0 -.44 3.08 5.42 5.42 0 0 0 1.71 2.22l10 9.11a7.49 7.49 0 0 0 1.64 1.23 6.65 6.65 0 0 0 2.37.49 48.75 48.75 0 0 0 6.62.05 5.51 5.51 0 0 0 2.51-.58 4.39 4.39 0 0 0 1.28-1.26 11 11 0 0 0 .67-11.3c-1-2-1.87-2.93-4.08-3.49-2.59-.65-5.2-1.26-7.8-1.87q-4.43-1.05-8.91-2.06z" fill="#683c3a"/><path d="m146.67 135.47a3.25 3.25 0 0 0 -1.72.32 3.74 3.74 0 0 0 -1.38 2.51 83.16 83.16 0 0 0 12.32 10.39 10.16 10.16 0 0 0 2.56 1.41 5.57 5.57 0 0 0 5.42-1.22c2.24-2.13 2.33-6.69-.36-8.54a11.57 11.57 0 0 0 -4-1.27 55.06 55.06 0 0 1 -5.87-1.91 22.68 22.68 0 0 0 -6.97-1.69z" fill="#9e5a57"/><path d="m154.67 140.39a2.22 2.22 0 0 0 -1.45-.14 1.27 1.27 0 0 0 -.79 1 1.48 1.48 0 0 0 .47 1.22 4 4 0 0 0 1.23.66 8.25 8.25 0 0 1 2 1.2c1 .83 4.61 2.83 4.22-.14-.35-2.19-3.93-3.19-5.68-3.8z" fill="#d67567"/><path d="m100.44 150.06c.31-.3 1-.63 1.27-.93a2.25 2.25 0 0 1 .39-.25l.64.12s6.34 1.94 9.6 2.7a25.71 25.71 0 0 0 6.4.93 23 23 0 0 0 3.8-.49 22.24 22.24 0 0 0 4.38-1.19 16.91 16.91 0 0 0 4.08-2.65 39.73 39.73 0 0 0 6.89-7.22 39.06 39.06 0 0 1 4.6-3l3.22 1.54-7.71 9.26-20.48 8.67-6.14-2.31" fill="#cc89a7"/><path d="m112.09 158.54a25.71 25.71 0 0 0 11.24 2.33 22.12 22.12 0 0 0 6.82-1.51 25.16 25.16 0 0 0 11.1-8.16c2.63-3.46 4.5-11.53 4.5-11.53l-2.66-.14s-3.8 5.07-6.06 7.41a21.3 21.3 0 0 1 -8.5 5.61 30.81 30.81 0 0 1 -6.2 1.23c-4.84.55-10 .6-14.51-1-1.93-.69-5.49-2.51-5.49-2.51l-1.89-.19s1.57 1.92 2.21 2.53a29.12 29.12 0 0 0 3.84 2.95 36.07 36.07 0 0 0 5.6 2.98z" fill="#9e1c4c"/><path d="m122 159.78a11.63 11.63 0 0 0 2.83-.06 11.77 11.77 0 0 0 1.68-.41 25.67 25.67 0 0 0 7.67-4.06 64.67 64.67 0 0 0 6.14-5.47 23.11 23.11 0 0 1 -5.24 3.38c-1 .53-2 1.07-3.08 1.53-2.17 1-4.54 1.64-6.68 2.64a11.46 11.46 0 0 1 -2.11.84 9.56 9.56 0 0 1 -2.88.07 83 83 0 0 1 -9.31-1.27 37.12 37.12 0 0 0 10.98 2.81z" fill="#681436"/><path d="m76.23 132.86c-.23.5-.4 1-.64 1.54a23 23 0 0 1 -1.34 2.17 7.56 7.56 0 0 0 -1.38 4.3c.1 1.87 1.23 3.5 2.32 5l1.68 2.34a5.55 5.55 0 0 0 1.31 1.42 5.47 5.47 0 0 0 1.58.64l3.6 1a6.65 6.65 0 0 0 2.6.37 9.93 9.93 0 0 0 3.4-1.65c1.68-.95 3.67-1.4 5.08-2.71 1.8-1.65 2.26-4.26 2.63-6.67a19.84 19.84 0 0 0 .3-5.85 6.72 6.72 0 0 0 -2.91-4.88c-.85-.51-1.84-.76-2.69-1.27a12.77 12.77 0 0 0 -2.08-1.32 4.94 4.94 0 0 0 -2.1-.16c-4 .39-9.49 1.7-11.36 5.73z" fill="#824646"/><path d="m76 137.15a3.18 3.18 0 0 0 -.68 2.86c.15.4.43.73.58 1.13a7.55 7.55 0 0 1 .2 1.86 5.53 5.53 0 0 0 2.16 3.51 4.45 4.45 0 0 0 2.32 1.13c.87.1 1.75-.19 2.62-.09a17.47 17.47 0 0 1 2.51.81 2.08 2.08 0 0 0 2.37-.66 2.28 2.28 0 0 0 -.42-2.29 1.29 1.29 0 0 0 -.38-.39c-.46-.27-1 .06-1.52.24a3.46 3.46 0 0 1 -3.56-1.09 10 10 0 0 1 -1.88-3.77c-.32-.95-.64-1.91-.89-2.88-.12-.49-.22-2.64-.55-2.91-.88-.73-2.43 1.9-2.88 2.54z" fill="#5e3434"/><path d="m87.21 136.45c.34.87.85 1.8 1.76 2a.37.37 0 0 0 .5-.4 10.53 10.53 0 0 0 .17-2.5 3.32 3.32 0 0 1 .11-1.51c.32-.72 1.19-1.13 1.17-2 0-1.09-1.09-1.54-2-1.69a11.11 11.11 0 0 0 -4.79.47c-1.1.4-1.86 1.18-.93 2.29.65.79 1.68.56 2.49 1.05a4.22 4.22 0 0 1 1.52 2.29z" fill="#935650"/><path d="m128.35 120.48a3.92 3.92 0 0 0 1.37-1.63 3.6 3.6 0 0 0 -2.38-.64c-1.55 0-8.42 1.71-6.83 4.15 1.84 2.81 6.22-.62 7.84-1.88z" fill="#f2dcb1"/><path d="m147.34 129.7a3.76 3.76 0 0 0 .36 2.1 3.62 3.62 0 0 0 2-1.41c1-1.21 4.12-7.53 1.23-7.89-3.3-.41-3.51 5.15-3.59 7.2z" fill="#f2dcb1"/><path d="m94.64 145.67a2.9 2.9 0 0 0 1.21 0 1 1 0 0 0 .8-.81 1.4 1.4 0 0 0 -.36-1c-1-1.29-4.29-3.93-5.76-2-1.75 2.35 2.66 3.58 4.11 3.81z" fill="#f2dcb1"/><path d="m159.23 137.34a4.08 4.08 0 0 0 -1.07 1.57 1.47 1.47 0 0 0 .55 1.69c.7.4 1.57-.08 2.18-.59.86-.72 4.4-3.55 3.15-4.68-1.48-1.33-3.97 1.13-4.81 2.01z" fill="#f2dcb1"/><path d="m208.94 113.66a4.11 4.11 0 0 0 -1.07 1.58 1.48 1.48 0 0 0 .55 1.69c.7.39 1.57-.08 2.18-.6.86-.71 4.4-3.55 3.15-4.68-1.48-1.32-3.97 1.14-4.81 2.01z" fill="#f2dcb1"/><path d="m214.25 138.5a38.16 38.16 0 0 1 -13.89 3.07l12.64-5.86a20.75 20.75 0 0 0 5.63-3.39 209 209 0 0 0 -20.58 6.5 95.8 95.8 0 0 1 14.63-9.06c-6 .12-11.34 3.65-16.29 7.06a24.83 24.83 0 0 1 8.9-8.44c-4.69.67-17.29 9.69-12.38 15.08 5.74 6.3 16.23-2.77 21.34-4.96z" fill="#360"/><path d="m178.59 158c-20.57 6-21.12 3.6-42.39 6.26 4.48-3.81 10.23-5.7 15.76-7.68 9.34-3.35 23.62-15.54 32.4-19.13 5.29-2.16 11.84-.74 12 6.2.26 8.63-11.21 12.35-17.77 14.35z" fill="#ffa300"/><g clip-path="url(#f)"><path d="m197.21 140.79a39.57 39.57 0 0 1 -5.79 7.4 7.73 7.73 0 0 1 -1.43 1.19 8.19 8.19 0 0 1 -2.38.82q-16.53 3.86-32.7 9.05a7.16 7.16 0 0 1 -3 .51c-.6-.08-1.16-.31-1.75-.4a7.29 7.29 0 0 0 -3.06.39 90 90 0 0 0 -14.55 5.53c-.36.17-.76.4-.82.8s.48.87 1 1.07c3.39 1.35 7.17 1.18 10.82 1l19.7-1c7.45-.39 15-.8 22.06-3.2s13.68-7.1 16.69-13.92a10.45 10.45 0 0 0 1.06-4.8 5.4 5.4 0 0 0 -2.23-4.22c-.74-.48-1.65-.77-2.13-1.5" fill="#e59f13"/></g><path d="m185.53 138.42c-6.83 3-12.54 7.94-18.82 12a54.07 54.07 0 0 0 7.57-3.31c4-2.13 7.81-4.8 12.24-5.69a12.43 12.43 0 0 0 4-1.11c.31-.18.63-.52.48-.84a.85.85 0 0 0 -.34-.31c-1.91-1.24-2.88-1.69-5.13-.74z" fill="#ffda71"/><path d="m195.55 151.56c-14.16 4.42-31.27 6.19-49.14 6.57-13.44.28-27.72-.25-42.47-3.65s-30.17-10.08-39.59-18.88c-7.94-7.42-11.35-16.26-10.15-23.5-2.68 16 6 28.84 14.1 37.89 11.32 12.72 29.07 17.29 45.87 20.14q16.83 2.87 33.83 4.23c6.64.55 13.36.92 19.92-.28a73.51 73.51 0 0 0 9.87-2.7c11-3.64 22.14-8.06 30.76-15.87 7.53-6.82 16.11-16.75 18.59-30.26a21.45 21.45 0 0 1 -1.62 4.83c-4.66 9.92-15.8 17.06-29.97 21.48z" fill="#003d32"/></svg>