<svg id="Artwork_-_Primary" data-name="Artwork - Primary" xmlns="http://www.w3.org/2000/svg" viewBox="0 0 250 250"><defs><style>.cls-1{fill:none}.cls-2{fill:#efefef}.cls-3{fill:#89cfbb}.cls-4{fill:#c41c40}.cls-5{fill:#ec2044}.cls-6{fill:#f2dcb1}.cls-7{fill:#824646}.cls-8{fill:#5e3434}.cls-9{fill:#fff5ca}.cls-10{fill:#935650}.cls-11{fill:#aa615e}.cls-12{fill:#ffc513}.cls-13{fill:#ffd95f}.cls-14{fill:#f2b814}.cls-15{fill:#e29000}.cls-16{clip-path:url(#clip-path)}.cls-17{fill:#ce8400}.cls-18{fill:#037c3c}.cls-19{fill:#67ad39}.cls-20{fill:#9e1c4c}</style><clipPath id="clip-path"><path class="cls-1" d="M120.27 136.88a24.62 24.62 0 0 1 5.2 3.76 38.93 38.93 0 0 1 4.07 3.86c1.11 1.27 2.16 2.76 3.65 3.3a3.05 3.05 0 0 1 .91.39c.86.63.76 2.13 1.32 3.11s1.65 1.35 2.13 2.34a8.66 8.66 0 0 1 .42 2.12 4.75 4.75 0 0 0 1.74 2.92c.61.46 1.32.72 1.94 1.18a9.16 9.16 0 0 1 2.23 2.81l2.36 3.91a12.74 12.74 0 0 0 1.54 2.18 5.09 5.09 0 0 0 5 1.5c.76-.22 1.48-.62 2.25-.79 2.06-.46 4.18.77 6.25.35s3.95-2.7 6.19-2.81a3.37 3.37 0 0 0 1.73-.24 4.26 4.26 0 0 0 .81-.88 15.35 15.35 0 0 1 2.6-1.95c2.23-1.71 3.34-4.75 4.33-7.62a3.06 3.06 0 0 0 .24-1.71 3.1 3.1 0 0 0-.71-1.13 11.57 11.57 0 0 1-2.48-6.57c-.08-1.39.08-2.8-.11-4.17-.35-2.55-1.82-4.67-3.23-6.66-1-1.39-2.07-2.85-3.57-3.37-2.25-.79-4.63.82-7 .55-2-.22-3.67-1.72-5.61-2a19.38 19.38 0 0 0-3.65.07c-4.72.09-9.06-3.31-13.77-3.43a9.64 9.64 0 0 1-2.89-.22c-1.67-.54-2.78-2.27-4-3.7a16.15 16.15 0 0 0-4.09-3.45c-1.32-.77-3-1.31-4.23-.42-.55.39-1 1-1.61 1.24-1.06.36-2.26-.67-3.27-.14-.76.4-1 1.49-1.16 2.44-.24 1.65-.29 3.3-.46 5a28.4 28.4 0 0 0-.54 3.26c.2 3.14 3.41 3.98 5.47 4.97z"/></clipPath></defs><path class="cls-2" d="M67 127q-22.3 17.78-43.5 37.8c-1.58 1.49-3.34 3.71-2.74 6.13.53 2.15 2.57 2.8 4.28 3.1 45.91 7.84 92.58 2.26 138.7 7.59 11.93 1.38 24 3.49 35.83 1.13s17.47-10.42 23.4-24.07c1.2-2.78 8.63-14.5 5.82-20.59s-18.2-7.77-27.38-9.79-18.56-1.76-27.87-1.49z"/><path class="cls-3" d="M223 124.64v-.1.18z"/><path class="cls-4" d="M223 123.72v-.18c-.51-4-4.08-6.18-7.18-7.2-7.24-2.36-14.73-3-22.17-3.47-21.45-1.32-42.93-1.12-64.4-.91l-45.71.45c-7 .06-11.61-.08-17.89 4.1a197.06 197.06 0 0 0-18 13.55 211.45 211.45 0 0 0-19 18.26 5.65 5.65 0 0 0-1.82 3.68 3.62 3.62 0 0 0 .17 1 5.43 5.43 0 0 0 2.58 2.92c4.25 2.49 8.94 3.37 13.56 4 10.73 1.49 21.53 1.86 32.32 2.21 35 1.16 70 2.22 105 1.68 4.63-.07 9.36-.19 13.72-2.23 5.1-2.39 9.29-7.23 13.19-12.15q6.79-8.57 13-17.93a14.12 14.12 0 0 0 2.71-6.32 7.62 7.62 0 0 0 0-1.07 2.72 2.72 0 0 0-.08-.39z"/><path class="cls-5" d="M223 125.19a7.62 7.62 0 0 0 0-1.07 2.85 2.85 0 0 0 0-.42v-.18c-.51-4-4.08-6.18-7.18-7.19-7.24-2.37-14.73-3-22.17-3.48-21.45-1.32-42.93-1.11-64.4-.91l-45.71.45c-7 .07-11.61-.08-17.89 4.1a197.06 197.06 0 0 0-18 13.55 210.2 210.2 0 0 0-19 18.27 5.6 5.6 0 0 0-1.86 3.63A3.62 3.62 0 0 0 27 153a5.43 5.43 0 0 0 2.58 2.92 26.33 26.33 0 0 0 6.69 2.71 277.06 277.06 0 0 1 28.61-28c3.28-2.76 6.68-5.47 10.45-6.8A31.52 31.52 0 0 1 84 122.5a794.87 794.87 0 0 1 123.75 2.5c3.12.3 6.59.86 8.57 4a13.17 13.17 0 0 1 1.65 6q1.18-1.73 2.34-3.48a14.12 14.12 0 0 0 2.69-6.33z"/><path class="cls-6" d="M139.85 102.75c.73-2 1.46-3.93 2.25-5.85a12.79 12.79 0 0 1 2.9-4.75 1.86 1.86 0 0 1 .76-.47 2 2 0 0 1 1.07.12 13.18 13.18 0 0 1 2 .88 3.31 3.31 0 0 1 1.66 1.58 4.71 4.71 0 0 1-.33 3.24l-2.43 6.84a8 8 0 0 1-1 2.21 4.07 4.07 0 0 1-4.44 1.29 3.57 3.57 0 0 1-1.94-1.22 2.6 2.6 0 0 1-.4-2.41m-10.39-14.8a3.47 3.47 0 0 1 1-1.21 2.92 2.92 0 0 1 2.56.06 25.45 25.45 0 0 1 2.94 1.29 3.43 3.43 0 0 1 1.76 1.58 4.4 4.4 0 0 1-.22 3.14 42.21 42.21 0 0 1-3.39 7.56 3.71 3.71 0 0 1-1 1.28c-1 .7-2.28.13-3.33-.44-1.66-.9-3.58-2.39-3.31-4.78a23.58 23.58 0 0 1 2.99-8.48zm-12.63-6.64a3.5 3.5 0 0 0-1.07 1.44q-2.42 4.86-4.42 10a1.12 1.12 0 0 0-.11.47 1 1 0 0 0 .37.61 13.94 13.94 0 0 0 4.37 2.86c1.08.45 2.4.7 3.3-.12a4.18 4.18 0 0 0 .92-1.45 42.08 42.08 0 0 0 2.5-8.25c.37-1.72.42-4.12-1.09-5.2-1.08-.81-3.7-1.06-4.77-.36zm-14.27-4.02a2.21 2.21 0 0 1 .76-1.1 1.65 1.65 0 0 1 1.12-.1 14.28 14.28 0 0 1 4.58 1.59 3.5 3.5 0 0 1 1.88 2 4.78 4.78 0 0 1-.65 3.21l-2.39 5a6.31 6.31 0 0 1-1.55 2.34 4.91 4.91 0 0 1-3.78.55c-5.52-.69-1.29-10.24.03-13.49z"/><path class="cls-7" d="M93.82 87.05c.86-2.66 3.46-4 5.73-2.93a7 7 0 0 1 1.3.81 18.71 18.71 0 0 0 2.63 2.2c1.78.94 3.86.27 5.8.55 2.89.4 5.29 2.87 8.14 3.6 2.12.55 4.38.1 6.47.79 2.33.76 4.18 2.84 6.48 3.72 3 1.14 6.37.18 9.18 1.75 1.6.89 2.82 2.51 4.4 3.42a9.27 9.27 0 0 0 4.5 1c2.24.05 4 2.2 3.92 4.78l-.08 2.31a5.1 5.1 0 0 1-.33 1.65c-3.26 8.27-11.49 20-16.59 26.45-8.7 11.09-18.83 21.68-30 29.19a11.65 11.65 0 0 1-12.37.46c-2.37-1.37-4.51-3.63-7.16-3.8-2-.13-4 1-5.94.6-2.9-.58-4.69-4.15-7.48-5.2-1.74-.64-3.65-.24-5.43-.73-4.11-1.14-7.85-7.81-11.7-5.81a8.13 8.13 0 0 1-7.15.18c-3-1.4-5.51-4.7-8.79-4.86-.79 0-1.57.11-2.36.1-2.28 0-4.31-1.3-6.16-2.94s-1.68-6.59-.24-8.63c1.3-1.83 2.64-1.21 4.66-2.12 3.32-1.5 6.94-1.81 10.47-2.36 14-2.17 27.91-8.53 37.86-20.15a19.94 19.94 0 0 0 2.88-4.15c.88-1.81 1.34-3.85 2.14-5.71.89-2.07 2.18-3.88 3-6a14.4 14.4 0 0 0 .88-3.69 6.44 6.44 0 0 1 .25-1.25z"/><path class="cls-8" d="M80.51 148.22a11.44 11.44 0 0 1-3.37-.81l-25.45-8.87a34.57 34.57 0 0 0-5.31-1.54 24.22 24.22 0 0 1-4-.78c-1-.35-1.89-.91-2.84-1.35a11.92 11.92 0 0 0-4.74-1.08c-1.73.61-2.95.26-4.13 1.92-1.44 2-1.57 7 .24 8.63s3.88 2.93 6.16 2.94c.79 0 1.57-.14 2.36-.1 3.28.16 5.74 3.46 8.79 4.86a8.13 8.13 0 0 0 7.15-.18c3.85-2 7.59 4.67 11.7 5.81 1.78.49 3.69.09 5.43.73 2.79 1 4.58 4.62 7.48 5.2 2 .39 4-.73 5.94-.6 2.65.17 4.79 2.43 7.16 3.8a11.65 11.65 0 0 0 12.29-.43c.63-.42 1.25-.86 1.87-1.3-.31-.48-.75-.84-1.1-1.29-6.31-7.99-15.73-15.23-25.63-15.56z"/><path class="cls-9" d="M31.36 148.27a5.73 5.73 0 0 0 3.06 1c1.9 0 3.68-.92 5.4-1.85 2-1.09.6-.39 2.58-1.47a5.84 5.84 0 0 0 1.85-1.35 2.59 2.59 0 0 0 .54-2.33 3.07 3.07 0 0 0-2-1.68L40 139.35a7.58 7.58 0 0 0-2.63-.78 7.53 7.53 0 0 0-2.66.58c-1.79.62-5.59.71-6.7 2s1.99 6.17 3.35 7.12zm23.13 7.42a6.43 6.43 0 0 1-3.45.08 8.37 8.37 0 0 1-2.42-1.45 2.6 2.6 0 0 1 0-4.82c3.72-2.86 7.69-6.71 12.27-2.86 5.84 4.89-3.57 8.36-6.4 9.05zm19.86 6.76a6.93 6.93 0 0 1-3.85 1 7.53 7.53 0 0 1-3.27-1.6c-1-.68-2-1.58-2-2.76a3.43 3.43 0 0 1 1.38-2.09 45.67 45.67 0 0 1 4.49-4c2.61-1.93 8.4-3 9.4 2.1s-2.65 5.58-6.15 7.35zm23.24 1.98c-1.91 2.1-2.42 3.16-5.18 4.82a8.48 8.48 0 0 1-1.86.92 9.76 9.76 0 0 1-4.61-.15 8.38 8.38 0 0 1-3-1 2.41 2.41 0 0 1-1.25-2.53 3.18 3.18 0 0 1 1.18-1.38l3.72-2.92a17.87 17.87 0 0 1 4.09-2.66 7.24 7.24 0 0 1 5.07-.3 4.46 4.46 0 0 1 2.65 2.29 2.42 2.42 0 0 1-.77 3"/><path class="cls-8" d="M80.74 128.32c9.47-6.2 16.4-16.37 23.08-26.3a40.73 40.73 0 0 0 5.09-9.19 165.62 165.62 0 0 1-17.85 22.62c-7.14 7.57-15.12 14.45-24.33 18-2.56 1-5.76 1.54-7.94 3.41 2.91.27 6.69-1.67 9.45-2.63a56 56 0 0 0 12.5-5.91zm16.41 2.48c2.25-2 4.39-4.23 6.47-6.5a154.45 154.45 0 0 0 16-20.87 12.84 12.84 0 0 0 2.23-5 152.15 152.15 0 0 1-43.28 42.68c-1 .64-2.47 1.22-3.13 2.28 2.83.83 7.62-2.7 10-4.1a69.65 69.65 0 0 0 11.71-8.49zM136 106.64c.39-.68.74-1.64.25-2.22.89 1-13.83 18.79-15.27 20.42a150.2 150.2 0 0 1-18.23 17.49c-3 2.45-6.77 4.41-9.55 7.18 2.15-.33 4.51-2 6.41-3.18a96.09 96.09 0 0 0 10.18-7.63 114.53 114.53 0 0 0 18-19.28 121.77 121.77 0 0 0 8.21-12.78z"/><path class="cls-10" d="M105.07 103.67a28.78 28.78 0 0 1-1.84 2.37c-.83.94-1.78 1.76-2.54 2.78-1.07 1.42-1.75 3.16-2.71 4.68-1.35 2.17-3.26 3.91-4.12 6.39.5.37 1.15 0 1.62-.44a21.55 21.55 0 0 0 4.17-5c.63-1 1.19-2.12 1.86-3.11 2.21-3.25 5.56-5.22 7.91-8.33 1.45-1.92 2.5-4.26 4.19-5.89a1.52 1.52 0 0 0 .54-.78 1.18 1.18 0 0 0-.86-1.19c-1.9-.69-2.66.85-3.71 2.3zm15.61 2.84c-.3.61-.49 1.28-.82 1.85a7.1 7.1 0 0 1-1.1 1.38l-4.55 4.85a5.78 5.78 0 0 0-1.79 3 .66.66 0 0 0 .11.54.41.41 0 0 0 .23.09 3.07 3.07 0 0 0 2.18-.88 26.45 26.45 0 0 0 3.62-3.34c1.46-1.62 2.85-3.52 4.79-4.18a29.49 29.49 0 0 1 3-.56 3.35 3.35 0 0 0 2.41-1.83.8.8 0 0 0 .07-.48c-.06-.25-.3-.37-.5-.5a2.7 2.7 0 0 1-1-3.06c.15-.43.41-.92.21-1.33a.93.93 0 0 0-.29-.3 3 3 0 0 0-3.82.72c-.37.46-.65 1-1 1.51a18.63 18.63 0 0 0-1.75 2.52zm25 4.26c-.23.83-2.86 2.06-3 4.46a10.71 10.71 0 0 1-.1 1.61 4.52 4.52 0 0 1-.66 1.36c-1.44 2.27-3 4.43-4.58 6.55s-3.41 4.41-4.93 6.79a49.27 49.27 0 0 1-3.63 5.46c-1.14 1.33-2.57 2.63-2.71 4.48a.46.46 0 0 0 0 .26.35.35 0 0 0 .26.16c.64.1 1.22-.41 1.72-.9 4.59-4.57 8.41-10.1 12.27-15.47 2.38-3.31 4.73-6.65 6.91-10.14a10.4 10.4 0 0 0 1.56-3.61 4.27 4.27 0 0 0-.22-2.58c-.14-.28-.33-.59-.22-.89a1.63 1.63 0 0 0 .17-.38c0-.29-.32-.42-.58-.39a3 3 0 0 0-.43.09c-.76.25-1.2 1.59-1.27 2s-.33.37-.56 1.14zm-45.47-22.93c-.67-.19-1.49-1.33-2.3-1.87a.37.37 0 0 0-.26-.08c-.1 0-.17.12-.23.21a27.34 27.34 0 0 0-1.48 2.58 14.85 14.85 0 0 0-1.87 6.53 2.51 2.51 0 0 1-.1.87 2.26 2.26 0 0 1-.32.54 18.85 18.85 0 0 0-2.3 4.07 2.89 2.89 0 0 0-.29 1.32c0 .46.36.92.76.91a1 1 0 0 0 .64-.37c.6-.61 1-1.44 1.56-2.11 1.07-1.29 2.68-2 3.31-3.66a10.86 10.86 0 0 0 .43-2.07c.27-1.65 1-3.34 2.28-4.07a9.5 9.5 0 0 0 .89-.48 1.19 1.19 0 0 0 .51-.92 1.41 1.41 0 0 0-.09-.91c-.2-.39-.48-.33-1.14-.49z"/><path class="cls-11" d="M107.61 145.06c-.52.59-1 1.24-1.57 1.77a8.59 8.59 0 0 1-3.04 1.77 8.53 8.53 0 0 0-1.8.74A2.59 2.59 0 0 0 100 151a1.08 1.08 0 0 0 .12.81 1 1 0 0 0 .71.34c1.87.26 3.81-.23 5.61.38.91.31 1.82.9 2.74.68a3.07 3.07 0 0 0 1.77-1.64c.41-.75.71-1.59 1.17-2.31.93-1.45 2.47-2.3 3.3-3.83s.82-3.29 1.59-4.76 2.89-2.36 1-3.81c-2.34-1.79-3.91 2.28-5.34 3.79s-3.53 2.7-5.06 4.41zm-54.29-13.59c-1.85.19-3.84.07-5.41 1.2a1 1 0 0 0-.49.89.8.8 0 0 0 .54.56c1.31.54 2.72-.2 4.11-.38s2.7.18 4-.07a9.73 9.73 0 0 0 2.37-.93L61.9 131c.54-.27 1.81-1.15 1.09-2-.48-.55-1.8.14-2.31.32a30.14 30.14 0 0 1-7.36 2.15zM76 133.61c-1.59.62-3.3.85-4.77 1.79a6.66 6.66 0 0 1-2 1.12c-.64.14-1.29 0-1.92.1a2.27 2.27 0 0 0-.69 4 3.7 3.7 0 0 0 2.5 0 6.94 6.94 0 0 1 3 .14 4.15 4.15 0 0 0 1.24.25 2 2 0 0 0 1.67-1.27 2.87 2.87 0 0 0-.11-2.33 1.54 1.54 0 0 1-.28-.79 1 1 0 0 1 .36-.61 10.24 10.24 0 0 1 3.09-1.43c.72-.31 4.33-2 3-3.2-.91-.8-4.04 1.81-5.09 2.23zm16 5.16c-.92.59-1.93.95-2.87 1.48a4.88 4.88 0 0 0-2.24 2.43 1.23 1.23 0 0 0-.07.73c.15.48.72.53 1.15.43 1.76-.42 3.16-1.89 4.71-2.93 1.17-.78 2.45-1.33 3.64-2.09s4.73-4.4 1.51-4.76c-1.97-.22-4.22 3.66-5.83 4.71z"/><path class="cls-12" d="M162.64 149.17c2.34 1.64 5.28-.15 8-.58s5.35.53 7.92-.2c1.13-.32 2.18-.94 3.31-1.22 2.24-.56 3.38-.55 5.59-1.26 1.15-.36 3.68-2.34 4.8-2.79 2.78-1.11 6-.28 8.59-1.93a23.77 23.77 0 0 0 2.43-2.09c1.45-1.24 2.9 0 4.4-1.2a7.33 7.33 0 0 0 3-5c.32-3.82-1.41-6.54-1.72-10.36a66.65 66.65 0 0 0-1.92-8.62c-.66-2.53-2.19-6.93-3.79-8.81-1.77-2.08-.83-2.56-3-4-.89-.58-1.61.56-3.23 0-1-.36-12.56 2.84-17.3 3.75a53.66 53.66 0 0 0-9.22 2.32c-2 .76-3.85 1.74-5.86 2.3-1.47.4-3 .57-4.43 1.11a10.43 10.43 0 0 0-4.53 3.44 8.89 8.89 0 0 0-1.79 5.76c.13 1 .48 2 .65 3.07.46 2.68-.29 5.54.39 8.16.52 2 1.8 3.64 2 5.68.14 1.13-.06 2.29.08 3.42a10.69 10.69 0 0 0 1.34 3.51c1.08 1.96 2.57 4.37 4.29 5.54z"/><path class="cls-13" d="M197.72 110.06c.22 1.1.91 2 1 3.16 0 .49-.05 1 0 1.48.09 1.4 1.05 2.52 1.41 3.87.25.94.19 2 .42 2.91.4 1.67 1.66 3 1.81 4.73.1 1.16-.29 2.49.33 3.41a9 9 0 0 0 .73.79 6.91 6.91 0 0 1 1 2.8c.21.85 1.66 2.49 2.66 1.74s-.37-7.54-.41-9a34.42 34.42 0 0 0-1.75-8.82l-1.5-5.15a7.71 7.71 0 0 0-.82-2.08c-.61-1-1.6-1.54-2.15-2.55s-1.29-4.15-2.81-2.88c-.71.58-.29 1.54-.14 2.31.2 1.07.01 2.22.22 3.28z"/><path class="cls-14" d="M154.65 115.59a9.16 9.16 0 0 0 .27 2.9c.16.76.41 1.64 1.06 1.86a1.63 1.63 0 0 0 .76 0l1.3-.18a1.23 1.23 0 0 0 .9-.41 1.7 1.7 0 0 0 .19-.78c.06-.8.07-1.6.05-2.41a5.14 5.14 0 0 0-.63-2.74c-1.32-1.95-3.65-.22-3.9 1.76zm7.15 7.67a11.67 11.67 0 0 0 .66 2.18 1.68 1.68 0 0 0 .34.58 1.35 1.35 0 0 0 1.19.23 2.72 2.72 0 0 0 2.24-1.5 3.55 3.55 0 0 0 .2-1.22c0-1.78-.29-5.4-2.5-5-1.93.31-2.5 2.82-2.13 4.73zm-3.8 6.42a3 3 0 0 0 0 1.29 11.38 11.38 0 0 0 .79 2.95 1 1 0 0 0 .31.47.84.84 0 0 0 .54.07 4.76 4.76 0 0 0 1.35-.27 1.88 1.88 0 0 0 1-1 3.52 3.52 0 0 0 0-2c-.19-1.1-.54-3.26-1.78-3.41-.73-.03-1.95 1.11-2.21 1.9zm11.83 6.85c.15.56.4 1.19.9 1.33a1.18 1.18 0 0 0 .67 0 6.27 6.27 0 0 0 1-.33 2 2 0 0 0 1-.73c1-1.61-.5-5.31-2.09-5.75-2.82-.81-1.93 3.95-1.48 5.48zm-3.58 6.32a1.82 1.82 0 0 0 1.85 0 1.79 1.79 0 0 0 .77-.46 2.07 2.07 0 0 0 .28-1.46 17.4 17.4 0 0 0-1.05-4.28c-.67-1.91-3-1.26-3.28.63-.19 1.36.52 4.79 1.43 5.57zm12.42 6.15a2.12 2.12 0 0 0 1.46.26 1.51 1.51 0 0 0 .69-.18 1.38 1.38 0 0 0 .43-.52c.64-1.21.33-2.77 0-4.13-.31-1.17-.8-2.63-2-2.78a2.09 2.09 0 0 0-2.09 1.28c-.59 1.48.41 5.25 1.51 6.07zm-15.19 1a2.54 2.54 0 0 0 1.12 1 1.92 1.92 0 0 0 .79.06 2.53 2.53 0 0 0 1.13-.35 1.53 1.53 0 0 0 .67-1.07 2.44 2.44 0 0 0-.16-1c-.48-1.54-1.63-5.27-3.61-4.09s-.94 4.03.06 5.45zm11.02-27.34a1.91 1.91 0 0 0 .29.63c.38.48 1 .4 1.59.29a2.08 2.08 0 0 0 1.65-1 2.75 2.75 0 0 0 .09-1.51c-.24-1.73-.89-4.91-3-4.18s-1.12 4.11-.62 5.77zm-6.06-10.32a2.39 2.39 0 0 0 1 .06 2.46 2.46 0 0 0 2.63-2.72 7.68 7.68 0 0 0-.29-1.85c-.33-1.33-.91-1.75-2.09-1.52a3.2 3.2 0 0 0-2.18 1.18c-.87 1.3-.51 4.34.93 4.85zm15.66 21.16a3 3 0 0 0 .9 1.63 1.91 1.91 0 0 0 1.91 0A1.94 1.94 0 0 0 188 134a3 3 0 0 0 0-1.54 28 28 0 0 0-.83-2.92 2.6 2.6 0 0 0-.88-1.41 1.74 1.74 0 0 0-.7-.19c-2.81-.15-2.02 3.67-1.49 5.56zm-3.4-11.18a5.41 5.41 0 0 0 .36 1.14 1 1 0 0 0 .33.45 1.14 1.14 0 0 0 .48.16 2 2 0 0 0 1.73-.34 2 2 0 0 0 .54-1.4 4.79 4.79 0 0 0-.26-1.54 8.28 8.28 0 0 0-1.81-3.42 1.25 1.25 0 0 0-.6-.41 1 1 0 0 0-.6.08c-1.78.82-.52 3.81-.17 5.28zm3.67-12.9a1.15 1.15 0 0 0 .55.1 4.22 4.22 0 0 0 1.36-.23 1.28 1.28 0 0 0 .75-.54 2 2 0 0 0 .12-1.25c-.19-1.57-.61-6.47-3-4.37a3.12 3.12 0 0 0-.91 2.51c.07.93.25 3.36 1.13 3.78zm7.74 3.85a4.31 4.31 0 0 0 1.07 3 1.82 1.82 0 0 0 2.19.17 1.3 1.3 0 0 0 .49-.57 1.91 1.91 0 0 0 .11-.64 17.47 17.47 0 0 0-.29-3.38 4 4 0 0 0-.55-1.74 1.74 1.74 0 0 0-1.31-.69c-1.98-.02-1.82 2.12-1.71 3.85zm.5 13.08a2 2 0 0 0 .59 1.14 1.13 1.13 0 0 0 .59.18 1.73 1.73 0 0 0 1.53-1 4.52 4.52 0 0 0 .11-2.8 6.28 6.28 0 0 0-.9-2.64 1.49 1.49 0 0 0-2.6.66c-.4 1.22.37 3.29.68 4.46zm.39 12.31c.27.8.67 1.67 1.39 1.89a2 2 0 0 0 1.41-.23 2.05 2.05 0 0 0 1.14-.93c.81-1.7-.64-5.19-2.31-5.51-2.45-.45-2.21 3.12-1.63 4.78z"/><path class="cls-15" d="M120.27 136.88a24.62 24.62 0 0 1 5.2 3.76 38.93 38.93 0 0 1 4.07 3.86c1.11 1.27 2.16 2.76 3.65 3.3a3.05 3.05 0 0 1 .91.39c.86.63.76 2.13 1.32 3.11s1.65 1.35 2.13 2.34a8.66 8.66 0 0 1 .42 2.12 4.75 4.75 0 0 0 1.74 2.92c.61.46 1.32.72 1.94 1.18a9.16 9.16 0 0 1 2.23 2.81l2.36 3.91a12.74 12.74 0 0 0 1.54 2.18 5.09 5.09 0 0 0 5 1.5c.76-.22 1.48-.62 2.25-.79 2.06-.46 4.18.77 6.25.35s3.95-2.7 6.19-2.81a3.37 3.37 0 0 0 1.73-.24 4.26 4.26 0 0 0 .81-.88 15.35 15.35 0 0 1 2.6-1.95c2.23-1.71 3.34-4.75 4.33-7.62a3.06 3.06 0 0 0 .24-1.71 3.1 3.1 0 0 0-.71-1.13 11.57 11.57 0 0 1-2.48-6.57c-.08-1.39.08-2.8-.11-4.17-.35-2.55-1.82-4.67-3.23-6.66-1-1.39-2.07-2.85-3.57-3.37-2.25-.79-4.63.82-7 .55-2-.22-3.67-1.72-5.61-2a19.38 19.38 0 0 0-3.65.07c-4.72.09-9.06-3.31-13.77-3.43a9.64 9.64 0 0 1-2.89-.22c-1.67-.54-2.78-2.27-4-3.7a16.15 16.15 0 0 0-4.09-3.45c-1.32-.77-3-1.31-4.23-.42-.55.39-1 1-1.61 1.24-1.06.36-2.26-.67-3.27-.14-.76.4-1 1.49-1.16 2.44-.24 1.65-.29 3.3-.46 5a28.4 28.4 0 0 0-.54 3.26c.2 3.14 3.41 3.98 5.47 4.97z"/><g class="cls-16"><path class="cls-17" d="M112.43 137.13a13.36 13.36 0 0 1 .72-4.48c.57-1.38 1.77-2.53 3.09-2.44s2.5 1.45 3.87 1.52a13.64 13.64 0 0 0 1.67-.22c2.89-.24 4.83 3.27 7.36 4.9 1.29.83 2.8 1.19 4 2.26 1.48 1.37 2.07 3.63 2.49 5.76a7 7 0 0 0 .76 2.38 5.61 5.61 0 0 0 1.26 1.31l5.56 4.62c1.11.93 1.55.58 2.9.78.95.14 2.63 1.21 3.58 1.23 2.91.09 5.35 2.58 8.19 3.27 4.33 1.07 8.47-2.11 12.61-3.91a4.69 4.69 0 0 1 1.77-.49 5.61 5.61 0 0 1 2 .47c.74.28 1.24 1.34 2 1.62 1.35.5 2.92.22 4.27.72a3.45 3.45 0 0 1 1.47.87 4.56 4.56 0 0 1 .79 2.31l.86 5.86a6.66 6.66 0 0 1 .1 2c-.24 1.65-1.59 2.74-2.87 3.54a29.64 29.64 0 0 1-11 4.14c-4.5.71-9.39.43-13.18 3.32-1.71 1.31-3.25 3.27-5.31 3.42a6.14 6.14 0 0 1-3.8-1.47 29.37 29.37 0 0 1-7.72-8.26c-2.53-4-4.24-8.71-7.06-12.46-1.45-1.93-3.37-3.66-5.58-3.71-2 0-4 1.32-5.91.76-1.4-.41-2.44-1.73-3.35-3a82.68 82.68 0 0 1-7.12-12.14m28.02-5.96a2.84 2.84 0 0 0 1.65 3.19 8.66 8.66 0 0 0 4 1 .68.68 0 0 0 .69-.29.85.85 0 0 0-.16-.8c-.4-.56-1-.91-1.31-1.57a11.77 11.77 0 0 1-.23-2 4.06 4.06 0 0 0-2.43-2.53 1.75 1.75 0 0 0-1.06-.3c-.78.18-1.02 2.55-1.15 3.3z"/></g><path class="cls-17" d="M156.31 150.31a7.08 7.08 0 0 1 2 2 3.22 3.22 0 0 0 2.35 1.39 1.2 1.2 0 0 0 .67-.2c.54-.41.4-1.26.1-1.84a5.33 5.33 0 0 0-1.47-1.76c-.73-.56-1.64-1-2-1.83-.52-1.25-1.53-4-3.32-2-1.64 1.84.26 3.52 1.67 4.24zm13.49-3.89a15 15 0 0 0 1 2.57 7.49 7.49 0 0 0 3.07 3.09 2.57 2.57 0 0 0-.38-2.14c-.39-.63-.89-1.14-1.22-1.81-.88-1.78-.29-4.21-1.3-5.9a15.54 15.54 0 0 1-1.33-1.91c-.26-.63-.26-1.36-.48-2s-.84-1.23-1.39-.94c-1.14.61.08 2.74.34 3.56.54 1.81 1.12 3.64 1.69 5.48z"/><path class="cls-18" d="M123 166.42a7.68 7.68 0 0 1 1.89-2.26c5.45-5 11.53-9.22 18.24-11.33 4.85-1.52 9.91-1.9 14.93-2.28a23.87 23.87 0 0 1-2.13 2.74L150 160.2a13.61 13.61 0 0 1-3.19 3 16.07 16.07 0 0 1-4.53 1.39c-3.35.81-6.48 2.48-9.73 3.69s-6.79 1.94-10.07.84"/><path class="cls-19" d="M102.05 148a64.29 64.29 0 0 0 16.44 14.62 33.28 33.28 0 0 0 11.09 4.62c1.39.27 3.84 1.15 4.15-1 .23-1.67-1.67-3.7-2.52-4.83a34.52 34.52 0 0 0-17.36-12.33 28.43 28.43 0 0 0-11.8-1.08z"/><path class="cls-20" d="M207.35 149.46c-3.9 4.92-8.09 9.76-13.19 12.15-4.36 2-9.09 2.16-13.72 2.23-35 .54-70-.52-105-1.68-10.79-.35-21.59-.72-32.32-2.21-4.62-.64-9.31-1.52-13.56-4A5.43 5.43 0 0 1 27 153a.61.61 0 0 0 0 .14c1.92 6.8 4.34 12.73 8.09 15.06 4.91 3 14.91 3 20.32 3.61 41.76 4.76 84.86 5.33 126.78 5.64 3.92 0 8 0 11.6-1.86a28.66 28.66 0 0 0 7.3-6.17 122 122 0 0 0 12.68-15.39c5.13-7.44 9.27-16.44 9.24-28.84a14.12 14.12 0 0 1-2.71 6.32q-6.14 9.37-12.95 17.95z"/></svg>