<svg id="Artwork_-_Primary" data-name="Artwork - Primary" xmlns="http://www.w3.org/2000/svg" viewBox="0 0 250 250"><defs><style>.cls-1{fill:none}.cls-2{fill:#efefef}.cls-3{fill:#003d32}.cls-4{fill:#89cfbb}.cls-5{fill:#639384}.cls-6{fill:#360}.cls-7{fill:#519600}.cls-8{fill:#72c900}.cls-9{fill:#71bc40}.cls-10{fill:#ffa300}.cls-11{clip-path:url(#clip-path)}.cls-12{fill:#ed9200}.cls-13{fill:#ce7f00}.cls-14{fill:#b26900}.cls-15{fill:#ec2044}.cls-16{fill:#ce1d43}.cls-17{fill:#fff5ca}.cls-18{fill:#ffd95f}.cls-19{fill:#ffc513}.cls-20{fill:#67ad39}</style><clipPath id="clip-path"><path class="cls-1" d="M63.08 126c6.92-10.32 20.77-20.74 30.18-28.68 3.56-3 7.47-5.69 11.89-7 4.92-1.43 10.14-1 15.25-1a150.55 150.55 0 0 0 17-1.06c3.23-.35 6.6-.74 9.62.49 6.1 2.48 8.32 10.31 13.47 14.5 2 1.65 4.45 2.7 6.41 4.42a40.88 40.88 0 0 1 4.71 5.66c3.1 3.9 7 7 10.54 10.51s6.75 7.61 7.89 12.53a4.23 4.23 0 0 1-.13 3 4.43 4.43 0 0 1-2.19 1.7 85.48 85.48 0 0 1-27.12 7.55c-6.21.65-12.47.62-18.69 1.24-7.31.74-14.58 2.39-21.92 2-8.31-.38-16.31-3.3-24.53-4.67-6.08-1-12.4-1.21-18.06-3.71-4.82-2.13-14-6.43-16.17-11.59a4.11 4.11 0 0 1 .51-4.06z"/></clipPath></defs><path class="cls-2" d="M120.27 177.45c11.33.53 30.81.08 42-1.94 13.93-2.53 29-5.54 40-14.78 1.38-1.16 2.83-2.57 3-4.42.29-3.37-3.6-5.28-6.78-6-9.35-2-19-2.21-28.49-2.4l-102.19-2c-5.11-.1-10.29-.19-15.24 1.1s-14.78 3.89-12.31 8.75 3.86 18.14 80.01 21.69z"/><path class="cls-3" d="M28.78 130.85c2.15 11.82 10.31 21.5 19.89 27.23s20.49 8 31.28 9.57a267.4 267.4 0 0 0 88.12-2c9.77-1.87 19.62-4.35 28.24-9.78s16.89-9.18 21.3-21.88"/><path class="cls-4" d="M33.51 140.59c13.49 12.7 33.83 16.93 52.38 19.11a289.23 289.23 0 0 0 77.93-1.29c15-2.31 29.91-5.89 43-13.06 6-3.27 12.18-8.76 10.87-15.29-.58-2.87-2.57-5.31-4.74-7.39-9.18-8.75-22.15-12.66-34.7-15.49a292.53 292.53 0 0 0-78.91-6.83c-17.17.86-34.44 3.05-50.67 8.41a41.81 41.81 0 0 0-12 5.67 30.32 30.32 0 0 0-5.92 6.4 13 13 0 0 0-1.56 12l.94 2.59a13.37 13.37 0 0 0 3.38 5.17z"/><path class="cls-5" d="M97.1 102.57a106.62 106.62 0 0 0-53.17 18.92c-4 2.84-8.23 6.56-8.54 11.49-.4 6.35 5.76 11.1 11.6 13.75 11 5 23.05 7 35 8.41 34.19 4 69.2 3.27 102.56-5.14 5.19-1.31 10.45-2.86 14.85-5.91s7.85-7.89 7.95-13.21a9.15 9.15 0 0 0-1.62-5.65 12.77 12.77 0 0 0-4.27-3.31 69 69 0 0 0-9.5-4.34c-8.3-3.06-17.1-4.5-25.83-5.92-24-3.92-48.13-7.84-72.46-8.14"/><path class="cls-6" d="M67 102.33c2.59 3.82 3.21 9.65 2.47 14.35a19.39 19.39 0 0 1-1.12 4.13c-2.4 6.13-7.93 10.62-13.92 11.29s-12.9-1.83-16.36-7.31c-.51-.81-.33-2.43-.18-3.42a3.79 3.79 0 0 1 .69-1.53 9.75 9.75 0 0 1 3.89-3.34"/><path class="cls-7" d="M37.45 118.62c2.2-7.63 9.11-12.24 15.81-15.23 3.18-1.42 6.51-2.66 10-2.7a4.61 4.61 0 0 1 3.27 1 5.37 5.37 0 0 1 1.4 3.31 14 14 0 0 1-2.59 10.13 21.48 21.48 0 0 1-4.75 4.29 96.45 96.45 0 0 1-8.11 5.23 21.18 21.18 0 0 1-7 2.86c-5.19.81-9.81-2.69-8.03-8.89z"/><path class="cls-8" d="M64.19 104.69a1.19 1.19 0 0 1 .36-.17.91.91 0 0 1 .87.34 2.43 2.43 0 0 1 .46.94 8.39 8.39 0 0 1 0 4.66 2.7 2.7 0 0 1-.79 1.41 2.74 2.74 0 0 1-1.33.45c-2.75.4-5.52.76-8.28 1-.7.06-1.91-.28-1.49-1.38.13-.33.52-.56.76-.78s.78-.68 1.17-1a49 49 0 0 1 5.16-3.63c1.05-.61 2.08-1.22 3.11-1.84zm-1.49-1.26a.78.78 0 0 1 .25.23.59.59 0 0 1-.07.62 1.53 1.53 0 0 1-.48.39 76.41 76.41 0 0 0-6.8 4.59c-.56.42-1.25.87-1.87.57a.42.42 0 0 1-.18-.17.55.55 0 0 1 .07-.41c.68-1.45 1.39-2.88 2.15-4.29s1.37-2.18 2.75-2 2.88-.27 4.18.47zm-1.38 11.46a.7.7 0 0 1 .45.13c.22.21.13.6 0 .88a6.48 6.48 0 0 1-1.33 1.66 26.18 26.18 0 0 1-2.61 2.24c-.28.21-.63.42-.94.27a1 1 0 0 1-.38-.41c-.5-.77-1-1.54-1.46-2.31-.25-.42-1.34-1.74-1.17-2.26s1.63-.32 2.06-.31h2.56zm-8.96-5.42a2.33 2.33 0 0 1-.8 1.18 1.44 1.44 0 0 1-.81.13 13.82 13.82 0 0 1-4.24-.64c-.12 0-.25-.11-.27-.25a.65.65 0 0 1 0-.2 5.86 5.86 0 0 1 2.34-2.77c1.84-1.29 5.55-3 5.89-2.19m-3.69 7.91a.42.42 0 0 1 .2.17.41.41 0 0 1-.09.38 3 3 0 0 1-1.11.85c-.83.45-1.67.89-2.53 1.27a38.54 38.54 0 0 1-5.32 1.76l-1.69.46c-.28.08-.67.1-.78-.2a.81.81 0 0 1 0-.31 5.36 5.36 0 0 1 1.12-2.4 20.19 20.19 0 0 0 1.55-2.12 3.71 3.71 0 0 1 .6-.93c.5-.47 1.16-.15 1.73-.06s1.44.15 2.16.22a11.52 11.52 0 0 1 4.16.91zm-9.12 6.55a5.74 5.74 0 0 0-1.44 1 2.36 2.36 0 0 0-.74 1.63 2.51 2.51 0 0 0 1.67 2.18c.85.36 1.79.41 2.67.71.39.13.83.31 1.18.07a1.85 1.85 0 0 0 .51-.82 7.33 7.33 0 0 1 .81-1.31l5.09-7a1.24 1.24 0 0 0 .33-.83c-.1-1.08-3 .71-3.44.93-1.42.69-2.83 1.42-4.23 2.16-.81.41-1.61.84-2.41 1.28zM53.47 117l1.19 1.82a2.1 2.1 0 0 1 .47 1.8c-.25.62-1 .75-1.53 1a9.8 9.8 0 0 0-1.28.76c-1.07.68-2.26 1.1-3.32 1.8a3.93 3.93 0 0 1-.77.44 1 1 0 0 1-.84-.07 1.08 1.08 0 0 1-.39-.74 3 3 0 0 1 .79-2l2.83-3.81a7.67 7.67 0 0 1 1.49-1.87c.54-.3 1.08.45 1.36.87z"/><path class="cls-7" d="M203.27 140.75c1.06.74 2.48 1.47 3.46.62a2.55 2.55 0 0 0 .33-2.92 6.51 6.51 0 0 0-2.06-2.18c-13-10-26-20-38-31.29-1.13-1.06-2.4-2.19-3.88-2.18-6.41.06 2.5 7.73 3.56 8.69q5.83 5.3 11.84 10.31 12 10.04 24.75 18.95zm14.27-4.21c1.08.68 2.54 1.34 3.49.43a2.55 2.55 0 0 0 .2-2.92 6.48 6.48 0 0 0-2.15-2.08c-13.38-9.3-26.78-18.63-39.3-29.3-1.18-1-2.49-2.06-4-2-6.4.39 2.82 7.59 3.92 8.5q6 5 12.27 9.68 12.47 9.44 25.57 17.69z"/><path class="cls-9" d="M210.24 135.21c1.12.61 2.61 1.16 3.5.19a2.54 2.54 0 0 0 0-2.93 6.33 6.33 0 0 0-2.26-1.92c-13.89-8.34-27.79-16.72-40.9-26.48-1.23-.92-2.6-1.89-4.07-1.7-6.37.84 3.25 7.38 4.4 8.21q6.31 4.55 12.79 8.8 12.99 8.52 26.54 15.83z"/><path class="cls-10" d="M63.08 126c6.92-10.32 20.77-20.74 30.18-28.68 3.56-3 7.47-5.69 11.89-7 4.92-1.43 10.14-1 15.25-1a150.55 150.55 0 0 0 17-1.06c3.23-.35 6.6-.74 9.62.49 6.1 2.48 8.32 10.31 13.47 14.5 2 1.65 4.45 2.7 6.41 4.42a40.88 40.88 0 0 1 4.71 5.66c3.1 3.9 7 7 10.54 10.51s6.75 7.61 7.89 12.53a4.23 4.23 0 0 1-.13 3 4.43 4.43 0 0 1-2.19 1.7 85.48 85.48 0 0 1-27.12 7.55c-6.21.65-12.47.62-18.69 1.24-7.31.74-14.58 2.39-21.92 2-8.31-.38-16.31-3.3-24.53-4.67-6.08-1-12.4-1.21-18.06-3.71-4.82-2.13-14-6.43-16.17-11.59a4.11 4.11 0 0 1 .51-4.06z"/><g class="cls-11"><path class="cls-12" d="M70.11 105.68c2.75 8 6.09 16.75 13.06 20.43 2.2 1.16 4.62 1.72 6.89 2.71a41.25 41.25 0 0 1 6.66 4l10.28 7.09c2.49 1.71 5.06 3.46 7.94 4.05 6.48 1.33 12.78-3.4 19.36-3.45 4.36 0 8.57 2 12.93 2.06 7.44.09 13.92-5.42 21.12-7.48 4.58-1.31 9.66-1.29 13.55-4.27 2-1.52 3.51-3.72 5.49-5.26s4.82-2.31 6.76-.71a8.37 8.37 0 0 1 2.2 4 80.86 80.86 0 0 1 3.32 15.62 12.3 12.3 0 0 1-.22 5.27 10.77 10.77 0 0 1-3.68 4.64c-6.24 5.16-13.42 8.72-20.53 12.24-7.76 3.84-15.59 7.7-23.87 9.8s-17.17 2.36-25.13-.94c-11.91-4.94-21-17.41-33.63-19.31-5.78-.87-11.65.64-17.11 2.9-4.5 1.93-9.5 4.35-14.08 2.48-3.48-1.42-5.79-5-7.88-8.4-3.27-5.3-6.6-10.75-8-17s-.51-13.51 3.72-17.9"/><path class="cls-12" d="M167.5 132.37c.5.18 1-.26 1.34-.67a40.92 40.92 0 0 0 8.25-15 1.33 1.33 0 0 0 0-1.07.75.75 0 0 0-.48-.3c-1.64-.4-2.52 2-2.78 3.37a13.37 13.37 0 0 1-1.11 4.23c-1.64 3.2-4.05 5.93-5.22 9.44zm-13.43-42.58c-4.73 7.83-12.31 12.88-19.79 17.35a22.17 22.17 0 0 0-3.62 2.49c1.57 1.06 3.57 0 5.13-1A143.82 143.82 0 0 0 148.22 99a43.12 43.12 0 0 0 8.32-8.93m2.51 2.93c-4.47 5.79-10.32 10-15.88 14.48a1.8 1.8 0 0 0-.65.79 1.2 1.2 0 0 0 1 1.41 2.87 2.87 0 0 0 1.77-.64 67.27 67.27 0 0 0 15.26-13.59M101.24 91a47.45 47.45 0 0 0 24.31 10.46A106.69 106.69 0 0 1 103.3 89a2.62 2.62 0 0 0-1.3-.62 1 1 0 0 0-1 .83m7.66-1.28l7.77 5a47.55 47.55 0 0 0 8.69 4.74 15.81 15.81 0 0 0 9.71.77c2.76-.76 5.13-2.49 7.43-4.19a33.8 33.8 0 0 0 7.57-6.88 2.4 2.4 0 0 0 .63-1.66 2.24 2.24 0 0 0-.55-1.11 19.47 19.47 0 0 0-4-3.58 101.07 101.07 0 0 0-15.36-9.18 28.05 28.05 0 0 0-9.1-3 11.62 11.62 0 0 0-9 2.52c-2.94 2.66-3.75 6.89-4.17 10.82"/></g><path class="cls-13" d="M43.65 132.61a16.7 16.7 0 0 0 1.7-1c1.36-1 2.26-3 3.89-3.12.61 0 1.21.2 1.82.15 1.25-.09 2.16-1.32 3.29-1.93a3.54 3.54 0 0 1 3-.18c1.15.45 2.07 1.5 3.25 1.85.7.21 1.46.16 2.14.42 2.7 1 2.64 5.64 5 7.37.51.37 1.12.59 1.6 1 1.38 1.21 1.25 3.53 1.83 5.37.39 1.24 1.15 2.36 1.27 3.67a66 66 0 0 1-9.94.32l-8.13-.15a10.61 10.61 0 0 1-3.88-.55c-1.87-.75-3.35-2.52-5.3-3-.76-.18-1.55-.14-2.31-.32-1.23-.3-4.29-3.66-4.19-4.89.19-1.87 3.06-3.92 4.96-5.01z"/><path class="cls-14" d="M66.91 144.24a4.1 4.1 0 0 0 2.27-.28 1.59 1.59 0 0 0 .57-.43 1.81 1.81 0 0 0 .08-1.68c-.87-2.13-4.41-3.2-6.21-1.91-2.84 2.06 1.77 4.12 3.29 4.3z"/><path class="cls-15" d="M69.79 141.33a26.15 26.15 0 0 0 3.07-1.33 16.25 16.25 0 0 0 3.38-3.35c1.47-1.68 3.35-3.23 5.46-3.12 1.91.09 3.53 1.51 5 2.9 4.21 4.11 8.35 9.29 8.38 15.51-.19.64-.94.79-1.55.83l-9.82.68c-5.15.36-10.64.7-15.53-1.46-2-.9-4.61-2.07-3.82-4.9.64-2.56 3.31-4.81 5.43-5.76z"/><path class="cls-16" d="M72.73 142a15.72 15.72 0 0 0 .59 1.67 1.1 1.1 0 0 0 .41.57.69.69 0 0 0 .51 0 2.59 2.59 0 0 0 1.24-1.34 5.29 5.29 0 0 0 .69-1.75 2.68 2.68 0 0 0-.65-2.15c-.57-.61-1.62-1-2.29-.39a3.31 3.31 0 0 0-.5 3.39zm-6.22 1a5.25 5.25 0 0 0 .93 1.5 2.15 2.15 0 0 0 .56.5.65.65 0 0 0 .72 0c.77-.63.09-2.83-.55-3.38-.9-.8-2.11.13-1.66 1.38zm10.58 4.36a1.13 1.13 0 0 1 .9-.23 1 1 0 0 1 .56.78 2.09 2.09 0 0 1-.41 1.49 4.22 4.22 0 0 1-1.12 1 15.63 15.63 0 0 1-2.14 1.21c-1.34.62-1.42-.88-.86-1.86s2.12-1.82 3.07-2.39zm9.91-9.42a1.48 1.48 0 0 0-.35.4 1.37 1.37 0 0 0-.08.75 9.55 9.55 0 0 0 1.19 3.26.26.26 0 0 0 .13.14c.07 0 .14 0 .19-.1l2.07-2.1a3.36 3.36 0 0 0 .76-1 2.45 2.45 0 0 0-.93-2.83c-.88-.33-2.34.93-2.98 1.48zm-1.4 8.52a1.08 1.08 0 0 0-.5.11c-.35.22-.39.77-.31 1.21a3.64 3.64 0 0 0 .58 1.37 1.24 1.24 0 0 0 .51.48 1.42 1.42 0 0 0 .68.08l1.63-.06c1 0 1.35-1.7.83-2.54s-2.56-.7-3.42-.65zm-5.2-6.62a2.85 2.85 0 0 0-.26 1.51c0 .54.06 1.08.12 1.61a1.09 1.09 0 0 0 .18.55.72.72 0 0 0 .92.06 2.74 2.74 0 0 0 1.27-1.93c.1-.56.16-2.25-.37-2.61s-1.59.36-1.86.81zM63.91 148a13.16 13.16 0 0 1 2.24 1.22 1.38 1.38 0 0 1 .4.36 1.65 1.65 0 0 1 .16.91v.63a.66.66 0 0 1 0 .28.54.54 0 0 1-.49.23 3.31 3.31 0 0 1-3.38-1.41c-.66-1.1-.3-2.83 1.07-2.22zm32.83 2.1a1.18 1.18 0 0 1 .92.12 1.63 1.63 0 0 1 .43.76l.57 1.7a.32.32 0 0 1 0 .19.25.25 0 0 1-.21.17c-.4.13-.8.24-1.2.35a5.34 5.34 0 0 1-2.82.2 2.23 2.23 0 0 1-1.31-.88c-1.36-2.04 2.49-2.43 3.62-2.61zM80 152.89a2.52 2.52 0 0 1 2.15-.9 3 3 0 0 1 1.17.8 1 1 0 0 1 .19.26.81.81 0 0 1-.15.6 4.17 4.17 0 0 1-2 2.07 2 2 0 0 1-2.16-.72c-.66-.92.16-1.54.8-2.11z"/><path class="cls-17" d="M161 145.72a40.33 40.33 0 0 0 13.48-10.14c1.12-1.36 2.18-3 2.14-4.72a55.39 55.39 0 0 1-17.65 12.43 93.89 93.89 0 0 1-9 3.64c-1.53.53-3.07 1-4.62 1.52-1.18.37-3.74.6-4.64 1.39-1.34 1.17 1.12 1.81 2.33 1.93 2.57.25 5.6-1.28 8-2.08a81 81 0 0 0 9.96-3.97z"/><path class="cls-18" d="M137.77 152.59a5 5 0 0 0 2.88.58 9.61 9.61 0 0 0 4.91-1.41 2.16 2.16 0 0 0 .85-.87 1.85 1.85 0 0 0-.67-2.09 3.79 3.79 0 0 0-2.1-.59c-1.76-.12-4.87-.55-6.41.6-1.38 1.03-.78 2.95.54 3.78z"/><path class="cls-17" d="M150.63 154.65a37.16 37.16 0 0 0 15.66-5 6.94 6.94 0 0 0 3.36-3.74 51.79 51.79 0 0 1-20.26 5.72 93 93 0 0 1-9.6.33c-1.6 0-3.21-.07-4.82-.15-1.22-.06-3.72-.72-4.8-.28-1.6.65.56 2.11 1.67 2.64 2.38 1.13 5.69.72 8.2.79a77.88 77.88 0 0 0 10.59-.31z"/><path class="cls-18" d="M126.66 153.16a5.38 5.38 0 0 0 2.58 1.55 9.3 9.3 0 0 0 5.06.36 2 2 0 0 0 1-.53 1.89 1.89 0 0 0 0-2.22 4.18 4.18 0 0 0-1.82-1.29c-1.64-.72-4.48-2.2-6.27-1.64-1.6.5-1.57 2.54-.55 3.77z"/><path class="cls-17" d="M180.56 147.94c-4.82 3.08-10 5.41-15.34 6.07-1.65.21-3.43.21-4.7-.87 6.78-1.22 13.37-4.38 19.47-8.44 2.74-1.82 5.39-3.82 8-5.93 1.3-1.05 2.58-2.14 3.84-3.24 1-.83 2.65-3 3.76-3.33 1.64-.51.65 2.08 0 3.23-1.33 2.45-4.24 4.26-6.24 5.93a85.82 85.82 0 0 1-8.79 6.58z"/><path class="cls-18" d="M199.26 131.25a6.46 6.46 0 0 1-1.28 2.92 10.69 10.69 0 0 1-3.93 3.56 1.77 1.77 0 0 1-1.13.24 1.74 1.74 0 0 1-1.13-1.83 4.82 4.82 0 0 1 .81-2.22c1-1.65 2.48-4.68 4.23-5.38 1.56-.63 2.61 1.04 2.43 2.71z"/><path class="cls-17" d="M160.79 147.25c9.32 1.79 18.94 2.25 28.19.06.51-.12 1.17-.61.88-1.1-3.69-.18-7.38.08-11.07 0-10.24-.13-20.3-2.59-30.2-5.29-2.52-.68-5-1.38-7.55-2.07l-3.72-1c-1-.27-2.55-1-3.6-.78-2.69.61 1.73 2.87 2.38 3.09 2.52.85 5 1.7 7.55 2.51a149.28 149.28 0 0 0 17.14 4.58z"/><path class="cls-18" d="M137.72 141.26a1 1 0 0 0 .79-.27 1.33 1.33 0 0 0 .23-.56l.39-1.61a1.53 1.53 0 0 0 0-.92 1.32 1.32 0 0 0-.5-.52 34.08 34.08 0 0 0-6.16-3.28c-1.06-.42-2.81-1.07-3.56.27-.64 1.12.06 2.39.76 3.21a10.52 10.52 0 0 0 8.05 3.68z"/><path class="cls-14" d="M44.75 140.09a.76.76 0 0 0 .41.13 1 1 0 0 0 .59-.4 3 3 0 0 0 .92-1.66 2.62 2.62 0 0 0-.68-1.78 6.57 6.57 0 0 0-3.5-2.37 2.15 2.15 0 0 0-1.58.06c-3.19 1.71 2.77 5.45 3.84 6.02z"/><path class="cls-19" d="M79.13 139.8c.14.37.37.81.73.78s.51-.49.52-.88a4.15 4.15 0 0 0-.2-1.15 2.07 2.07 0 0 0-.47-.92c-1.32-1.29-.77 1.67-.58 2.17zm-9.46 11.92a1.46 1.46 0 0 0 .57 1 .24.24 0 0 0 .14.05.24.24 0 0 0 .19-.08.71.71 0 0 0 .19-.53 2.15 2.15 0 0 0-.12-.56l-.38-1.25c-.08-.29-.18-.62-.46-.71a3.45 3.45 0 0 0-.13 2.08zm-3.31-2.19c0 .14 0 .3.17.36a.33.33 0 0 0 .31-.07c.43-.31 1.17-1.66.41-2s-.93 1.18-.89 1.71zm18.23.37a3.36 3.36 0 0 0-.2 1.34.18.18 0 0 0 0 .1c0 .06.12 0 .19 0a2.77 2.77 0 0 0 1.25-1.13c.26-.41.65-1.31 0-1.55s-1.06.78-1.24 1.24zm7.85-1.09a1.28 1.28 0 0 0 .24.53.42.42 0 0 0 .48.14c.22-.11.27-.42.28-.69 0-.5.06-2.68-.73-2.58s-.39 2.11-.27 2.6z"/><path class="cls-14" d="M60.61 132.73a8.22 8.22 0 0 0-1.33 1.65 3.46 3.46 0 0 0-.46 2.11.65.65 0 0 0 .16.39.49.49 0 0 0 .31.11c2.18.27 4.25-1.21 5.69-3.05.74-.95 2.17-3.41.29-3.88-1.65-.42-3.58 1.56-4.66 2.67zm-5.41 13.43c.78 1.11 1.83 2.16 3.1 2.18a.45.45 0 0 0 .28-.07.57.57 0 0 0 .16-.43 5.68 5.68 0 0 0-1.05-3.58c-.54-.78-2.36-2.88-3.46-2.34-1.34.66.44 3.5.97 4.24zm-3.72-16.1a9.09 9.09 0 0 0-1.07 2.63 3.39 3.39 0 0 0-.17 1.34 1.11 1.11 0 0 0 .75 1 1.26 1.26 0 0 0 .66-.1 5.33 5.33 0 0 0 3.18-4.68c.17-2.82-2.45-1.54-3.35-.19z"/><path class="cls-12" d="M98.16 122.25c1.81.71 3.7 1.14 5.52 1.81 2.59 1 5 2.4 7.53 3.55a36.76 36.76 0 0 0 20.22 3c-4.29-.41-8.62-.82-12.7-2.34-3.31-1.24-6.37-3.17-9.62-4.62-5.38-2.4-11.26-3.46-16.33-6.61-1.46-.91-3.27-2.6-5-2.86s.1 1.72.72 2.17c3.1 2.24 6.18 4.55 9.66 5.9zm57.66.84a8.77 8.77 0 0 0 3.21-1.75 55.64 55.64 0 0 1-14 2 97 97 0 0 1-20.37-.86c-1.2-.21-9.39-2.16-9.63-.34-.18 1.36 7.86 2.93 9 3.18a57.93 57.93 0 0 0 31.78-2.19zm-2.73 11.57a10.41 10.41 0 0 0-3.42 3.08 4.24 4.24 0 0 0 2.74-1.07c5.19-3.63 10.24-7.75 14.13-13.07.75-1 2.39-2.81 2.6-4.16.26-1.62-1.3-.08-1.68.5a58.15 58.15 0 0 1-6.21 7.79 51.46 51.46 0 0 1-8.16 6.93z"/><path class="cls-20" d="M118.7 112c-4.08-4.38-9.13-7.45-14.12-10.46l-12.8-7.74c-.82-.5-2.29-1-2.5.48-.14.91 1 2.25 1.56 2.81 1.12 1.09 2.66 1.24 4 1.88 5.11 2.46 10 5.71 15 8.4q4.41 2.32 8.86 4.63z"/><path class="cls-19" d="M70.72 109.4a1.8 1.8 0 0 0-.86.55 2.28 2.28 0 0 0-.32.94l-1.18 6.19a10.79 10.79 0 0 0-.12 5.26A7.79 7.79 0 0 0 71 126a18.66 18.66 0 0 0 4.88 2.77 3.28 3.28 0 0 0 1.71.28 3.82 3.82 0 0 0 2.14-1.88 41.34 41.34 0 0 0 2.53-4.39 15.84 15.84 0 0 0 2-7.39c-.21-7.65-8.66-7.89-13.54-5.99zm35.39 30.53a1.89 1.89 0 0 0-1 .67 2.26 2.26 0 0 0-.26 1.1 44.48 44.48 0 0 0 .25 8.48c.13 1 .43 2.25 1.32 2.57a2.31 2.31 0 0 0 1.25 0l5.61-1a9.54 9.54 0 0 0 3.72-1.25c3.37-2.25 3.81-8.92.92-11.87s-8.92.07-11.81 1.3zm44.09-28.34a5.86 5.86 0 0 0 .38 2.45 10 10 0 0 0 2.42 3.86 4.9 4.9 0 0 0 2.26 1.35A5.87 5.87 0 0 0 158 119a37.63 37.63 0 0 0 4.09-1.35 2 2 0 0 0 1.53-2c.22-3.22-2.39-9.81-5.67-10.32-2.74-.46-7.47 3.12-7.75 6.26z"/><path class="cls-17" d="M138.06 116.19c-3.87 2.4-8.38 3.16-12.8 3.47s-8.89.2-13.25 1.06c-1.3.26-4.67 1.44-5-.89s3.83-1.44 5.11-1.47c5.51-.13 11-.57 16.5-1.12 3.17-.32 6.31-.68 9.44-1.05z"/><path class="cls-6" d="M137.48 85.63a9.39 9.39 0 0 1 5.22-.17c.8.36-1.25 1.54-1.94 2.26a63.47 63.47 0 0 1 9.64-2.1c.87-.12 2.37-.09 2.39.65s-2.88 1.36-4.32 2a5.39 5.39 0 0 1 4.36 1.94 1.08 1.08 0 0 1 .33.78c-.07.54-.76.71-1.3.74q-5.66.34-11.31.24c.89.6 2.29 1.6 2.28 2.23s-2.75.27-4.11.06c-2.46-.38-4.27-.8-6.74-.26-1.36.3-2.8 0-2.92-1.72-.19-2.93 6.17-5.79 8.42-6.65z"/><path class="cls-6" d="M124.25 85.2c-.34-.28-.91-.53-1.17-.17s.22 1-.1 1.42a31.3 31.3 0 0 0-7.53-4.06 2 2 0 0 0-1-.18.71.71 0 0 0-.62.74 1 1 0 0 0 .43.57l3.09 2.58a3.38 3.38 0 0 0-2.53 1.78 1 1 0 0 0-.15.64 1.21 1.21 0 0 0 .65.7 25.07 25.07 0 0 0 7.66 2.91c.61.12 1.33.3 1.57.88a2.69 2.69 0 0 0 .22.62 1.17 1.17 0 0 0 .88.35 5.88 5.88 0 0 0 2.8-.16c2.44-1 .94-2.79 0-4.17a22.35 22.35 0 0 0-4.2-4.45z"/></svg>